<svg width="62" height="32" viewBox="0 0 62 32" fill="none" xmlns="http://www.w3.org/2000/svg">
<path d="M14.3438 25H1.43701V22.7983L7.83105 15.8242C8.75391 14.7959 9.40869 13.939 9.79541 13.2534C10.1909 12.5591 10.3887 11.8647 10.3887 11.1704C10.3887 10.2563 10.1294 9.51807 9.61084 8.95557C9.10107 8.39307 8.41113 8.11182 7.54102 8.11182C6.50391 8.11182 5.69971 8.42822 5.12842 9.06104C4.55713 9.69385 4.27148 10.5596 4.27148 11.6582H1.06787C1.06787 10.4893 1.33154 9.43896 1.85889 8.50732C2.39502 7.56689 3.15527 6.8374 4.13965 6.31885C5.13281 5.80029 6.27539 5.54102 7.56738 5.54102C9.43066 5.54102 10.8984 6.01123 11.9707 6.95166C13.0518 7.8833 13.5923 9.17529 13.5923 10.8276C13.5923 11.7856 13.3198 12.792 12.7749 13.8467C12.2388 14.8926 11.3555 16.0835 10.125 17.4194L5.43164 22.4424H14.3438V25ZM17.6396 15.4814L18.6812 5.80469H28.9907V8.57324H21.3442L20.8169 13.1611C21.7046 12.6514 22.7065 12.3965 23.8228 12.3965C25.6509 12.3965 27.0703 12.981 28.0811 14.1499C29.1006 15.3188 29.6104 16.8921 29.6104 18.8696C29.6104 20.8208 29.0479 22.3765 27.9229 23.5366C26.7979 24.688 25.2554 25.2637 23.2954 25.2637C21.5376 25.2637 20.0786 24.7671 18.9185 23.7739C17.7671 22.772 17.1431 21.4536 17.0464 19.8188H20.1445C20.2676 20.7505 20.6016 21.4668 21.1465 21.9678C21.6914 22.46 22.4033 22.7061 23.2822 22.7061C24.2666 22.7061 25.0312 22.3545 25.5762 21.6514C26.1299 20.9482 26.4067 19.9902 26.4067 18.7773C26.4067 17.6084 26.1035 16.6855 25.4971 16.0088C24.8906 15.3232 24.0557 14.9805 22.9922 14.9805C22.4121 14.9805 21.9199 15.0596 21.5156 15.2178C21.1113 15.3672 20.6719 15.666 20.1973 16.1143L17.6396 15.4814Z" fill="black"/>
<path d="M31.6284 8.53516C31.6284 7.97656 31.8083 7.51953 32.168 7.16406C32.5277 6.80436 32.9995 6.62451 33.5835 6.62451C34.1759 6.62451 34.6499 6.80436 35.0054 7.16406C35.3651 7.51953 35.5449 7.98714 35.5449 8.56689V9.02393C35.5449 9.57829 35.3651 10.0332 35.0054 10.3887C34.6499 10.7441 34.1802 10.9219 33.5962 10.9219C33.0249 10.9219 32.5531 10.7484 32.1807 10.4014C31.8125 10.0501 31.6284 9.57829 31.6284 8.98584V8.53516ZM32.7075 9.02393C32.7075 9.31592 32.7879 9.5529 32.9487 9.73486C33.1138 9.9126 33.3296 10.0015 33.5962 10.0015C33.8586 10.0015 34.0701 9.9126 34.231 9.73486C34.3918 9.5529 34.4722 9.30745 34.4722 8.99854V8.53516C34.4722 8.24316 34.3896 8.00618 34.2246 7.82422C34.0638 7.64225 33.8501 7.55127 33.5835 7.55127C33.3169 7.55127 33.1032 7.64437 32.9424 7.83057C32.7858 8.01253 32.7075 8.25374 32.7075 8.5542V9.02393ZM36.0718 13.7339C36.0718 13.1668 36.2559 12.7077 36.624 12.3564C36.9922 12.0052 37.4619 11.8296 38.0332 11.8296C38.6087 11.8296 39.0785 12.0052 39.4424 12.3564C39.8105 12.7077 39.9946 13.1816 39.9946 13.7783V14.229C39.9946 14.7791 39.8169 15.234 39.4614 15.5938C39.1102 15.9492 38.6383 16.127 38.0459 16.127C37.4535 16.127 36.9753 15.9513 36.6113 15.6001C36.2516 15.2446 36.0718 14.777 36.0718 14.1973V13.7339ZM37.1509 14.229C37.1509 14.5168 37.2334 14.7537 37.3984 14.9399C37.5677 15.1219 37.7835 15.2129 38.0459 15.2129C38.3167 15.2129 38.5283 15.1261 38.6807 14.9526C38.8372 14.7749 38.9155 14.5273 38.9155 14.21V13.7339C38.9155 13.4377 38.833 13.2007 38.668 13.0229C38.5029 12.8452 38.2913 12.7563 38.0332 12.7563C37.7708 12.7563 37.5571 12.8452 37.3921 13.0229C37.2313 13.2007 37.1509 13.4461 37.1509 13.7593V14.229ZM33.9136 15.3081L33.1201 14.8511L37.6333 7.62744L38.4268 8.08447L33.9136 15.3081Z" fill="black"/>
<path d="M33.6504 25V18.6016H35.54C36.1055 18.6016 36.6064 18.7275 37.043 18.9795C37.4824 19.2314 37.8223 19.5889 38.0625 20.0518C38.3027 20.5146 38.4229 21.0449 38.4229 21.6426V21.9634C38.4229 22.5698 38.3013 23.103 38.0581 23.563C37.8179 24.0229 37.4736 24.3774 37.0254 24.6265C36.5801 24.8755 36.0688 25 35.4917 25H33.6504ZM34.7622 19.498V24.1123H35.4873C36.0703 24.1123 36.5171 23.9307 36.8276 23.5674C37.1411 23.2012 37.3008 22.6768 37.3066 21.9941V21.6382C37.3066 20.9438 37.1558 20.4136 36.854 20.0474C36.5522 19.6812 36.1143 19.498 35.54 19.498H34.7622ZM43.27 22.1436H40.6421V24.1123H43.7139V25H39.5303V18.6016H43.6831V19.498H40.6421V21.2646H43.27V22.1436ZM47.9634 23.3521C47.9634 23.0708 47.8638 22.854 47.6646 22.7017C47.4683 22.5493 47.1123 22.3955 46.5967 22.2402C46.0811 22.085 45.6709 21.9121 45.3662 21.7217C44.7832 21.3555 44.4917 20.8779 44.4917 20.2891C44.4917 19.7734 44.7012 19.3486 45.1201 19.0146C45.542 18.6807 46.0884 18.5137 46.7593 18.5137C47.2046 18.5137 47.6016 18.5957 47.9502 18.7598C48.2988 18.9238 48.5728 19.1582 48.772 19.4629C48.9712 19.7646 49.0708 20.1001 49.0708 20.4692H47.9634C47.9634 20.1353 47.8579 19.8745 47.647 19.687C47.439 19.4966 47.1401 19.4014 46.7505 19.4014C46.3872 19.4014 46.1045 19.479 45.9023 19.6343C45.7031 19.7896 45.6035 20.0063 45.6035 20.2847C45.6035 20.519 45.7119 20.7153 45.9287 20.8735C46.1455 21.0288 46.5029 21.1812 47.001 21.3306C47.499 21.4771 47.8989 21.6455 48.2007 21.8359C48.5024 22.0234 48.7236 22.2402 48.8643 22.4863C49.0049 22.7295 49.0752 23.0151 49.0752 23.3433C49.0752 23.8765 48.8701 24.3013 48.46 24.6177C48.0527 24.9312 47.499 25.0879 46.7988 25.0879C46.3359 25.0879 45.9097 25.0029 45.52 24.833C45.1333 24.6602 44.8315 24.4229 44.6147 24.1211C44.4009 23.8193 44.2939 23.4678 44.2939 23.0664H45.4058C45.4058 23.4297 45.5259 23.7109 45.7661 23.9102C46.0063 24.1094 46.3506 24.209 46.7988 24.209C47.1855 24.209 47.4756 24.1313 47.6689 23.9761C47.8652 23.8179 47.9634 23.6099 47.9634 23.3521ZM54.9331 22.917C54.8687 23.5996 54.6167 24.1328 54.1772 24.5166C53.7378 24.8975 53.1533 25.0879 52.4238 25.0879C51.9141 25.0879 51.4644 24.9678 51.0747 24.7275C50.688 24.4844 50.3892 24.1401 50.1782 23.6948C49.9673 23.2495 49.8574 22.7324 49.8486 22.1436V21.5459C49.8486 20.9424 49.9556 20.4106 50.1694 19.9507C50.3833 19.4907 50.6895 19.1362 51.0879 18.8872C51.4893 18.6382 51.9521 18.5137 52.4766 18.5137C53.1826 18.5137 53.751 18.7056 54.1816 19.0894C54.6123 19.4731 54.8628 20.0151 54.9331 20.7153H53.8257C53.7729 20.2554 53.6382 19.9243 53.4214 19.7222C53.2075 19.5171 52.8926 19.4146 52.4766 19.4146C51.9932 19.4146 51.6211 19.5918 51.3604 19.9463C51.1025 20.2979 50.9707 20.8149 50.9648 21.4976V22.0645C50.9648 22.7559 51.0879 23.2832 51.334 23.6465C51.583 24.0098 51.9463 24.1914 52.4238 24.1914C52.8604 24.1914 53.1885 24.0933 53.4082 23.897C53.6279 23.7007 53.7671 23.374 53.8257 22.917H54.9331ZM60.4219 19.498H58.4268V25H57.3237V19.498H55.3462V18.6016H60.4219V19.498ZM60.6943 23.875C60.8936 23.875 61.0474 23.9321 61.1558 24.0464C61.2642 24.1577 61.3184 24.2983 61.3184 24.4683C61.3184 24.6353 61.2642 24.7744 61.1558 24.8857C61.0474 24.9941 60.8936 25.0483 60.6943 25.0483C60.5039 25.0483 60.353 24.9941 60.2417 24.8857C60.1304 24.7773 60.0747 24.6382 60.0747 24.4683C60.0747 24.2983 60.1289 24.1577 60.2373 24.0464C60.3457 23.9321 60.498 23.875 60.6943 23.875Z" fill="black"/>
</svg>
