<svg width="98" height="75" viewBox="0 0 98 75" fill="none" xmlns="http://www.w3.org/2000/svg">
<path d="M1.94727 26.3223L4.64746 1.23438H31.376V8.41211H11.5518L10.1846 20.3066C12.486 18.985 15.0837 18.3242 17.9775 18.3242C22.7171 18.3242 26.3971 19.8395 29.0176 22.8701C31.6608 25.9007 32.9824 29.9795 32.9824 35.1064C32.9824 40.165 31.5241 44.1982 28.6074 47.2061C25.6908 50.1911 21.6917 51.6836 16.6104 51.6836C12.0531 51.6836 8.27051 50.3962 5.2627 47.8213C2.27767 45.2236 0.659831 41.8057 0.40918 37.5674H8.44141C8.76042 39.9827 9.6263 41.8398 11.0391 43.1387C12.4518 44.4147 14.2975 45.0527 16.5762 45.0527C19.1283 45.0527 21.1107 44.1413 22.5234 42.3184C23.959 40.4954 24.6768 38.0117 24.6768 34.8672C24.6768 31.8366 23.8906 29.444 22.3184 27.6895C20.7461 25.9121 18.5814 25.0234 15.8242 25.0234C14.3203 25.0234 13.0443 25.2285 11.9961 25.6387C10.9479 26.026 9.80859 26.8008 8.57812 27.9629L1.94727 26.3223Z" fill="white"/>
<path d="M71.9473 30.0479C71.9473 37.2028 70.6029 42.6032 67.9141 46.249C65.248 49.8721 61.1807 51.6836 55.7119 51.6836C50.3343 51.6836 46.2783 49.9176 43.5439 46.3857C40.8324 42.8311 39.4424 37.5788 39.374 30.6289V22.0156C39.374 14.8607 40.707 9.49447 43.373 5.91699C46.0618 2.33952 50.152 0.550781 55.6436 0.550781C61.0895 0.550781 65.1455 2.29395 67.8115 5.78027C70.5003 9.2666 71.8789 14.4847 71.9473 21.4346V30.0479ZM63.6416 20.751C63.6416 16.0798 63.0036 12.6618 61.7275 10.4971C60.4515 8.30957 58.4235 7.21582 55.6436 7.21582C52.932 7.21582 50.9382 8.2526 49.6621 10.3262C48.3861 12.377 47.7139 15.5898 47.6455 19.9648V31.2441C47.6455 35.8926 48.2949 39.3561 49.5938 41.6348C50.8926 43.9134 52.932 45.0527 55.7119 45.0527C58.3779 45.0527 60.349 44.0046 61.625 41.9082C62.901 39.7891 63.5732 36.485 63.6416 31.9961V20.751Z" fill="white"/>
<path d="M77.4985 6.19922C77.4985 4.86719 77.9274 3.77734 78.7852 2.92969C79.6429 2.07194 80.7681 1.64307 82.1606 1.64307C83.5734 1.64307 84.7036 2.07194 85.5513 2.92969C86.409 3.77734 86.8379 4.89242 86.8379 6.2749V7.36475C86.8379 8.68669 86.409 9.77148 85.5513 10.6191C84.7036 11.4668 83.5835 11.8906 82.1909 11.8906C80.8286 11.8906 79.7035 11.4769 78.8154 10.6494C77.9375 9.81185 77.4985 8.68669 77.4985 7.27393V6.19922ZM80.0718 7.36475C80.0718 8.06104 80.2635 8.62614 80.647 9.06006C81.0405 9.48389 81.5552 9.6958 82.1909 9.6958C82.8166 9.6958 83.3211 9.48389 83.7046 9.06006C84.0881 8.62614 84.2798 8.04085 84.2798 7.3042V6.19922C84.2798 5.50293 84.083 4.93783 83.6895 4.50391C83.306 4.06999 82.7964 3.85303 82.1606 3.85303C81.5249 3.85303 81.0153 4.07503 80.6318 4.51904C80.2585 4.95296 80.0718 5.52816 80.0718 6.24463V7.36475ZM88.0942 18.5962C88.0942 17.244 88.5332 16.1491 89.4111 15.3115C90.2891 14.474 91.4092 14.0552 92.7715 14.0552C94.1439 14.0552 95.264 14.474 96.1318 15.3115C97.0098 16.1491 97.4487 17.2793 97.4487 18.7021V19.7769C97.4487 21.0887 97.0249 22.1735 96.1772 23.0312C95.3397 23.8789 94.2145 24.3027 92.8018 24.3027C91.389 24.3027 90.2487 23.884 89.3809 23.0464C88.5231 22.1987 88.0942 21.0837 88.0942 19.7012V18.5962ZM90.6675 19.7769C90.6675 20.4631 90.8643 21.0282 91.2578 21.4722C91.6615 21.9061 92.1761 22.123 92.8018 22.123C93.4476 22.123 93.9521 21.9162 94.3154 21.5024C94.6888 21.0786 94.8755 20.4883 94.8755 19.7314V18.5962C94.8755 17.8898 94.6787 17.3247 94.2852 16.9009C93.8916 16.4771 93.387 16.2651 92.7715 16.2651C92.1458 16.2651 91.6362 16.4771 91.2427 16.9009C90.8592 17.3247 90.6675 17.91 90.6675 18.6567V19.7769ZM82.9478 22.3501L81.0557 21.2603L91.8179 4.03467L93.71 5.12451L82.9478 22.3501Z" fill="white"/>
<path d="M2.51758 74V59.0703H6.92676C8.24609 59.0703 9.41504 59.3643 10.4336 59.9521C11.459 60.54 12.252 61.374 12.8125 62.4541C13.373 63.5342 13.6533 64.7715 13.6533 66.166V66.9146C13.6533 68.3296 13.3696 69.5737 12.8022 70.647C12.2417 71.7202 11.4385 72.5474 10.3926 73.1284C9.35352 73.7095 8.16064 74 6.81396 74H2.51758ZM5.11182 61.1621V71.9287H6.80371C8.16406 71.9287 9.20654 71.5049 9.93115 70.6572C10.6626 69.8027 11.0352 68.5791 11.0488 66.9863V66.1558C11.0488 64.5356 10.6968 63.2983 9.99268 62.4438C9.28857 61.5894 8.2666 61.1621 6.92676 61.1621H5.11182Z" fill="white"/>
<path d="M26.2234 67.335H20.0915V71.9287H27.259V74H17.4973V59.0703H27.1872V61.1621H20.0915V65.2842H26.2234V67.335Z" fill="white"/>
<path d="M38.4346 70.1548C38.4346 69.4985 38.2021 68.9927 37.7373 68.6372C37.2793 68.2817 36.4487 67.9229 35.2456 67.5605C34.0425 67.1982 33.0854 66.7949 32.3745 66.3506C31.0141 65.4961 30.334 64.3818 30.334 63.0078C30.334 61.8047 30.8227 60.8135 31.8003 60.0342C32.7846 59.2549 34.0596 58.8652 35.625 58.8652C36.664 58.8652 37.5903 59.0566 38.4038 59.4395C39.2173 59.8223 39.8564 60.3691 40.3213 61.0801C40.7861 61.7842 41.0185 62.5669 41.0185 63.4282H38.4346C38.4346 62.6489 38.1885 62.0405 37.6963 61.603C37.2109 61.1587 36.5137 60.9365 35.6045 60.9365C34.7568 60.9365 34.0971 61.1177 33.6255 61.48C33.1606 61.8423 32.9282 62.3481 32.9282 62.9976C32.9282 63.5444 33.1811 64.0024 33.687 64.3716C34.1929 64.7339 35.0268 65.0894 36.1889 65.438C37.3511 65.7798 38.2842 66.1729 38.9883 66.6172C39.6924 67.0547 40.2085 67.5605 40.5366 68.1348C40.8647 68.7021 41.0288 69.3687 41.0288 70.1343C41.0288 71.3784 40.5503 72.3696 39.5932 73.1079C38.643 73.8394 37.3511 74.2051 35.7173 74.2051C34.6372 74.2051 33.6426 74.0068 32.7334 73.6104C31.831 73.207 31.1269 72.6533 30.6211 71.9492C30.1221 71.2451 29.8725 70.4248 29.8725 69.4883H32.4668C32.4668 70.3359 32.7471 70.9922 33.3076 71.457C33.8681 71.9219 34.6714 72.1543 35.7173 72.1543C36.6196 72.1543 37.2964 71.9731 37.7475 71.6108C38.2055 71.2417 38.4346 70.7563 38.4346 70.1548Z" fill="white"/>
<path d="M55.9572 69.1396C55.8069 70.7324 55.219 71.9766 54.1936 72.8721C53.1682 73.7607 51.8044 74.2051 50.1023 74.2051C48.9128 74.2051 47.8635 73.9248 46.9543 73.3643C46.052 72.7969 45.3547 71.9937 44.8625 70.9546C44.3703 69.9155 44.114 68.709 44.0935 67.335V65.9404C44.0935 64.5322 44.343 63.2915 44.842 62.2183C45.341 61.145 46.0554 60.3179 46.9851 59.7368C47.9216 59.1558 49.0017 58.8652 50.2253 58.8652C51.8728 58.8652 53.1989 59.313 54.2038 60.2085C55.2087 61.104 55.7932 62.3687 55.9572 64.0024H53.3733C53.2502 62.9292 52.9358 62.1567 52.4299 61.6851C51.9309 61.2065 51.196 60.9673 50.2253 60.9673C49.0974 60.9673 48.2292 61.3809 47.6208 62.208C47.0193 63.0283 46.7116 64.2349 46.698 65.8276V67.1504C46.698 68.7637 46.9851 69.9941 47.5593 70.8418C48.1404 71.6895 48.988 72.1133 50.1023 72.1133C51.1208 72.1133 51.8864 71.8843 52.3991 71.4263C52.9118 70.9683 53.2365 70.2061 53.3733 69.1396H55.9572Z" fill="white"/>
<path d="M70.0244 61.1621H65.3691V74H62.7954V61.1621H58.1811V59.0703H70.0244V61.1621Z" fill="white"/>
<path d="M71.9201 71.375C72.385 71.375 72.7439 71.5083 72.9968 71.7749C73.2497 72.0347 73.3762 72.3628 73.3762 72.7593C73.3762 73.1489 73.2497 73.4736 72.9968 73.7334C72.7439 73.9863 72.385 74.1128 71.9201 74.1128C71.4758 74.1128 71.1237 73.9863 70.864 73.7334C70.6042 73.4805 70.4743 73.1558 70.4743 72.7593C70.4743 72.3628 70.6008 72.0347 70.8537 71.7749C71.1066 71.5083 71.4621 71.375 71.9201 71.375Z" fill="white"/>
</svg>
