<svg width="82" height="83" viewBox="0 0 82 83" fill="none" xmlns="http://www.w3.org/2000/svg">
<path d="M80.4012 79.0765H45.869C43.5767 79.0765 41.7119 77.2122 41.7119 74.9205C41.7119 72.6295 43.5767 70.7652 45.869 70.7652H57.1085C64.2235 70.7652 70.0116 64.9786 70.0116 57.8656C70.0116 54.42 68.6693 51.1806 66.232 48.744L58.4921 41.0062C60.032 39.7911 61.0306 38.9545 61.4937 38.4916C66.3457 33.6409 66.3457 25.7488 61.4937 20.8981C56.6417 16.0474 48.7475 16.0474 43.8961 20.8981C43.423 21.3704 42.5431 22.43 41.3501 23.9438C36.0543 19.2368 29.3056 16.6622 22.1607 16.6622H6.65972C4.83052 16.6622 3.34254 15.1746 3.34254 13.3465C3.34254 11.5178 4.83052 10.0302 6.65972 10.0302H17.7311C22.1388 10.0302 25.7247 6.44532 25.7247 2.03883C25.7247 1.15603 25.0092 0.440674 24.1261 0.440674C23.2431 0.440674 22.5275 1.15603 22.5275 2.03883C22.5275 4.68285 20.3759 6.83393 17.7311 6.83393H6.65972C3.06757 6.83393 0.145354 9.75534 0.145354 13.3465C0.145354 16.9371 3.06757 19.8591 6.65972 19.8591H22.1607C28.5863 19.8591 34.6526 22.1988 39.3859 26.4741C28.2132 41.0425 1.72457 77.8963 0.387831 79.7569C-0.0683746 80.3923 0.00224349 81.2657 0.555939 81.8192C0.865909 82.1285 1.27524 82.2872 1.68708 82.2872C2.01205 82.2872 2.33889 82.1885 2.61949 81.9873C2.7476 81.8954 15.5782 72.6801 29.095 62.8394C29.8087 62.3196 29.9662 61.32 29.4462 60.6065C28.9263 59.8924 27.9258 59.7355 27.2127 60.2554C20.3478 65.2535 13.6597 70.0898 8.72514 73.6504C22.8606 54.0602 43.2986 26.0156 46.1565 23.1585C49.7617 19.5542 55.6274 19.5542 59.2327 23.1585C62.838 26.7628 62.838 32.6269 59.2327 36.2311C58.8765 36.5879 58.0141 37.322 56.2167 38.7315L51.0666 33.5827L53.7707 30.8794C54.395 30.2552 54.395 29.2437 53.7707 28.619C53.1458 27.9948 52.134 27.9948 51.5091 28.619L43.8411 36.2855C43.2168 36.9096 43.2168 37.9218 43.8411 38.5459C44.1529 38.8583 44.5623 39.0145 44.971 39.0145C45.3803 39.0145 45.7896 38.8583 46.1015 38.5459L48.8056 35.8432L53.6657 40.7026C50.3867 43.2086 45.3416 46.9803 37.6573 52.6219C36.9461 53.1442 36.7924 54.1445 37.3148 54.8561C37.8379 55.5671 38.8384 55.7208 39.5502 55.1979C46.8245 49.8573 52.2646 45.8045 55.9461 42.9824L63.9704 51.0044C65.8039 52.8375 66.8132 55.2741 66.8132 57.8656C66.8132 63.2161 62.4593 67.5689 57.1073 67.5689H45.869C41.8138 67.5689 38.5147 70.867 38.5147 74.9212C38.5147 78.9753 41.8138 82.2734 45.869 82.2734H80.4012C81.2837 82.2734 81.9998 81.5574 81.9998 80.6746C81.9998 79.7925 81.2837 79.0765 80.4012 79.0765V79.0765Z" fill="black"/>
<path d="M33.9401 56.8495C33.8539 56.792 33.7614 56.742 33.6651 56.7027C33.5676 56.6627 33.4683 56.6321 33.3664 56.6115C33.1602 56.5696 32.9471 56.5696 32.7409 56.6115C32.639 56.6321 32.5384 56.6627 32.4421 56.7027C32.3465 56.742 32.2521 56.792 32.1659 56.8495C32.0778 56.907 31.9959 56.9738 31.9228 57.0476C31.8491 57.1213 31.7822 57.2025 31.7247 57.2906C31.6672 57.3768 31.6172 57.4693 31.5772 57.5674C31.5372 57.663 31.5072 57.7635 31.4866 57.866C31.4654 57.9685 31.4541 58.0734 31.4541 58.1778C31.4541 58.2815 31.4654 58.3871 31.4866 58.4908C31.5072 58.5914 31.5372 58.692 31.5772 58.79C31.6172 58.8856 31.6672 58.9781 31.7247 59.0649C31.7822 59.1524 31.8491 59.2342 31.9228 59.3073C31.9959 59.3829 32.0778 59.4485 32.1659 59.5073C32.2521 59.5648 32.3465 59.6147 32.4421 59.6547C32.5384 59.6941 32.639 59.7247 32.7409 59.7453C32.8433 59.7666 32.949 59.7759 33.0527 59.7759C33.1583 59.7759 33.2627 59.7666 33.3664 59.7453C33.4683 59.7247 33.5676 59.6941 33.6651 59.6547C33.7614 59.6147 33.8539 59.5648 33.9401 59.5073C34.0282 59.4485 34.1101 59.3829 34.1832 59.3073C34.4826 59.0106 34.6532 58.5982 34.6532 58.1778C34.6532 57.7573 34.4826 57.345 34.1832 57.0476C34.1101 56.9738 34.0282 56.907 33.9401 56.8495V56.8495Z" fill="black"/>
</svg>
