<svg width="13" height="13" viewBox="0 0 13 13" fill="none" xmlns="http://www.w3.org/2000/svg">
<path d="M6.40484 13C6.40484 13 6.32524 13 6.16603 13C6.00683 13 5.77687 12.9819 5.47615 12.9458C5.17543 12.9006 4.80395 12.8282 4.3794 12.6836C3.95486 12.5389 3.48609 12.322 3.00847 11.9965C2.76966 11.8338 2.52201 11.653 2.28321 11.436C2.0444 11.2191 1.80559 10.984 1.58447 10.7038C1.14224 10.1613 0.726537 9.50139 0.443506 8.72392C0.15163 7.95549 -0.0164191 7.06954 0.0012703 6.13839C0.0189597 5.18915 0.293146 4.2128 0.806139 3.3178C1.32798 2.42281 2.08862 1.6363 3.02616 1.05772C3.9637 0.470097 5.06929 0.0994437 6.23679 0.0180807C6.38715 0.00904033 6.51982 0.00904033 6.67903 0C6.82054 0 6.95321 0 7.11242 0.00904033C7.42198 0.0180807 7.70501 0.0632823 8.00573 0.117524C8.30645 0.171766 8.59833 0.253129 8.8902 0.352573C9.18208 0.452017 9.46511 0.578581 9.7393 0.723227C10.8449 1.30181 11.7913 2.2872 12.3485 3.48053C12.6315 4.07719 12.8261 4.71905 12.9234 5.38804C13.0118 6.05702 13.0384 6.71697 12.9234 7.41307C12.8084 8.0911 12.5784 8.76008 12.2335 9.35674C11.8797 9.95341 11.4286 10.4958 10.9068 10.9388C9.85428 11.8338 8.50988 12.3672 7.13895 12.4666C5.77687 12.5751 4.32633 12.2406 3.17652 11.4089C2.60162 11.0021 2.09747 10.4777 1.7083 9.88108C1.31913 9.28442 1.04495 8.61544 0.885741 7.91933C0.806139 7.5758 0.761915 7.22323 0.735381 6.87065C0.726537 6.78025 0.726537 6.68985 0.726537 6.59944V6.46384V6.42768V6.38248V6.31919C0.726537 6.23783 0.726537 6.16551 0.735381 6.06606C0.744226 5.97566 0.753071 5.87622 0.761915 5.78581C0.850363 5.07163 1.09801 4.38456 1.4518 3.77886C2.17707 2.55841 3.32688 1.69054 4.59168 1.24757C5.21965 1.0306 5.883 0.913074 6.54636 0.904033H6.67903H6.79401C6.87361 0.904033 6.94437 0.904033 7.03282 0.913074C7.20971 0.922114 7.36891 0.949235 7.52812 0.967316C7.85537 1.02156 8.17378 1.10292 8.48335 1.22044C9.10248 1.44645 9.66854 1.79903 10.1462 2.25104C10.6238 2.70306 10.9952 3.24548 11.2606 3.82406C11.5259 4.40264 11.6851 5.02643 11.747 5.64117C11.7824 5.94854 11.7913 6.25591 11.7824 6.56328V6.67177L11.7736 6.78929C11.7647 6.87065 11.7559 6.95202 11.747 7.02434C11.7294 7.17802 11.694 7.33171 11.6586 7.47636C11.5082 8.07302 11.2341 8.62448 10.8803 9.09458C10.5265 9.56467 10.0931 9.95341 9.63316 10.2608C8.69562 10.8665 7.62541 11.1467 6.59942 11.1196C5.58228 11.0925 4.60936 10.767 3.86641 10.2065C3.11461 9.65508 2.58393 8.88665 2.30974 8.10014C2.16822 7.70236 2.08862 7.30459 2.05324 6.9249C2.02671 6.53616 2.03555 6.15647 2.10631 5.80389C2.25667 5.09875 2.58393 4.51113 2.93771 4.05007C3.30035 3.58901 3.69836 3.24548 4.06984 3.00139C4.45016 2.7573 4.80395 2.61266 5.09582 2.52225C5.3877 2.44089 5.62651 2.41377 5.77687 2.40473C5.85647 2.39569 5.91838 2.40473 5.95376 2.39569C5.99798 2.39569 6.01567 2.39569 6.01567 2.39569C6.01567 2.39569 5.99798 2.39569 5.95376 2.39569C5.91838 2.39569 5.85647 2.39569 5.77687 2.41377C5.61766 2.43185 5.3877 2.46801 5.10467 2.56745C4.82164 2.6669 4.47669 2.82962 4.12291 3.08275C3.76912 3.33588 3.39764 3.68846 3.06154 4.14951C2.73429 4.61057 2.44241 5.18011 2.32743 5.8491C2.22129 6.50904 2.30974 7.26843 2.59277 7.99165C2.8758 8.71488 3.38879 9.39291 4.09637 9.87204C4.80395 10.3512 5.67957 10.6314 6.60827 10.6314C7.52812 10.6314 8.49219 10.3512 9.31475 9.79068C10.1285 9.23018 10.8007 8.37135 11.0218 7.34075C11.0483 7.21419 11.0748 7.08762 11.0925 6.95202C11.1014 6.88873 11.1102 6.82545 11.1102 6.76217L11.1191 6.67177V6.56328C11.1191 6.29207 11.1102 6.02086 11.0748 5.74965C11.0041 5.20723 10.8537 4.66481 10.6149 4.16759C10.1373 3.17316 9.28822 2.35953 8.22685 1.98887C7.17433 1.61822 5.95376 1.66342 4.86586 2.07024C3.76912 2.46801 2.78735 3.24548 2.18591 4.26704C1.88519 4.7733 1.68177 5.34284 1.61985 5.93046C1.61101 6.00278 1.61101 6.0751 1.60216 6.13839C1.59332 6.20167 1.59332 6.30111 1.59332 6.37343V6.43672C1.59332 6.4548 1.59332 6.44576 1.59332 6.4548V6.48192V6.59944C1.59332 6.67177 1.59332 6.75313 1.60216 6.82545C1.61985 7.13282 1.66408 7.43115 1.73483 7.72948C1.87635 8.32615 2.10631 8.88665 2.43357 9.39291C2.76082 9.89917 3.18537 10.3331 3.67183 10.6766C4.15828 11.0202 4.70666 11.2823 5.29041 11.427C5.58228 11.4993 5.87416 11.5535 6.17488 11.5807L6.396 11.5987L6.6348 11.6078C6.76747 11.6078 6.93552 11.6078 7.07704 11.5897C8.27992 11.5083 9.44742 11.0473 10.3584 10.2789C11.2694 9.51043 11.9151 8.43463 12.1097 7.27747C12.1362 7.13282 12.1539 6.98818 12.1627 6.84353C12.1804 6.71697 12.1804 6.52712 12.1804 6.40056C12.1804 6.10223 12.1627 5.80389 12.1185 5.5146C12.0389 4.92698 11.8797 4.35744 11.6321 3.8331C11.1545 2.78442 10.3407 1.92559 9.37666 1.39221C9.13786 1.25661 8.8902 1.14812 8.63371 1.04868C8.3949 0.949235 8.1384 0.867872 7.87306 0.81363C7.60772 0.759388 7.33354 0.714186 7.07704 0.705146C6.95321 0.687065 6.80285 0.696106 6.66134 0.687065C6.54636 0.687065 6.396 0.687065 6.27217 0.696106C4.14944 0.795549 2.22129 1.97079 1.23953 3.58901C0.753071 4.38456 0.478885 5.28859 0.425816 6.14743C0.372748 7.02434 0.505419 7.86509 0.753071 8.6064C1.00072 9.35674 1.36336 9.99861 1.77906 10.541C1.98249 10.8122 2.2036 11.0563 2.42472 11.2733C2.64584 11.4903 2.8758 11.6801 3.10576 11.8428C4.01677 12.5118 4.8924 12.774 5.47615 12.8915C5.77687 12.9458 6.00683 12.9729 6.16603 12.9819C6.32524 13 6.40484 13 6.40484 13Z" fill="#9CE4D0"/>
</svg>
