<svg width="69" height="70" viewBox="0 0 69 70" fill="none" xmlns="http://www.w3.org/2000/svg">
<path d="M59.748 12.0337L68.4599 3.32874C69.0205 2.76859 69.0205 1.86123 68.4599 1.30121C67.8993 0.741067 66.9912 0.741067 66.4308 1.30121L57.7189 10.0062C51.5818 4.36099 43.4202 0.881137 34.4402 0.881137C25.4602 0.881137 17.2985 4.36099 11.1615 10.0062L2.44959 1.30121C1.889 0.741067 0.980905 0.741067 0.420446 1.30121C-0.140014 1.86136 -0.140149 2.76873 0.420446 3.32874L9.13232 12.0337C3.48266 18.1661 3.36145e-05 26.3214 3.36145e-05 35.2939C3.36145e-05 44.2663 3.48266 52.4216 9.13232 58.554L0.420446 67.259C-0.140149 67.8191 -0.140149 68.7265 0.420446 69.2865C0.700675 69.5665 1.06795 69.7066 1.43508 69.7066C1.80222 69.7066 2.16936 69.5665 2.44972 69.2865L11.1616 60.5816C17.2985 66.2267 25.4602 69.7066 34.4402 69.7066C43.4202 69.7066 51.5818 66.2267 57.7189 60.5816L66.4308 69.2865C66.711 69.5665 67.0783 69.7066 67.4454 69.7066C67.8126 69.7066 68.1797 69.5665 68.4601 69.2865C69.0206 68.7264 69.0206 67.819 68.4601 67.259L59.7482 58.554C65.3977 52.4216 68.8803 44.2663 68.8803 35.2939C68.8803 26.3214 65.3977 18.1661 59.748 12.0337ZM34.4402 3.74882C42.6286 3.74882 50.0744 6.90619 55.6903 12.0331L34.4402 33.2663L13.1901 12.0331C18.806 6.90632 26.2518 3.74882 34.4402 3.74882ZM2.87 35.2939C2.87 27.112 6.02988 19.6721 11.1609 14.0607L32.411 35.2939L11.1609 56.527C6.03002 50.9156 2.87 43.4757 2.87 35.2939ZM34.4402 66.8389C26.2518 66.8389 18.806 63.6815 13.1901 58.5546L34.4402 37.3214L55.6903 58.5546C50.0744 63.6814 42.6286 66.8389 34.4402 66.8389ZM36.4693 35.2939L57.7194 14.0607C62.8503 19.672 66.0104 27.112 66.0104 35.2939C66.0104 43.4757 62.8505 50.9156 57.7194 56.527L36.4693 35.2939Z" fill="black"/>
</svg>
