<svg width="69" height="83" viewBox="0 0 69 83" fill="none" xmlns="http://www.w3.org/2000/svg">
<path d="M3.13814 0.440674H65.8808C67.5857 0.440674 68.9497 1.80763 68.9497 3.51633V79.3824C68.7792 81.0911 67.4152 82.2872 65.8808 82.2872H3.13814C1.43318 82.2872 0.0692053 80.9202 0.0692053 79.2115V3.51633C0.0692053 1.80763 1.43318 0.440674 3.13814 0.440674ZM2.79715 79.3824C2.79715 79.5533 2.96765 79.7241 3.13814 79.7241H65.8808C66.0513 79.7241 66.3923 79.5533 66.3923 79.2115V20.6033H2.79715V79.3824ZM2.62665 18.2111H66.2218V3.51633C66.2218 3.34546 66.0513 3.17459 65.8808 3.17459H3.13814C2.96765 3.17459 2.62665 3.34546 2.62665 3.68719V18.2111V18.2111Z" fill="black"/>
<path d="M34.5101 28.8052C46.9563 28.8052 57.0156 38.8865 57.0156 51.36C57.0156 63.8334 46.9563 73.9147 34.5101 73.9147C22.0639 73.9147 12.0046 63.8334 12.0046 51.36C12.0046 38.8865 22.0639 28.8052 34.5101 28.8052ZM34.5101 71.3517C45.4219 71.3517 54.4582 62.4665 54.4582 51.36C54.4582 40.4243 45.5924 31.3682 34.5101 31.3682C23.4279 31.3682 14.562 40.2534 14.562 51.36C14.562 62.4665 23.5984 71.3517 34.5101 71.3517Z" fill="black"/>
<path d="M34.5098 37.8611C42.0116 37.8611 47.979 43.8415 47.979 51.3598C47.979 58.878 42.0116 64.8585 34.5098 64.8585C27.008 64.8585 21.0406 58.878 21.0406 51.3598C21.0406 43.8415 27.008 37.8611 34.5098 37.8611ZM34.5098 62.2954C40.4772 62.2954 45.4216 57.3402 45.4216 51.3598C45.4216 45.3793 40.4772 40.4241 34.5098 40.4241C30.2474 40.4241 26.4965 42.8163 24.7915 46.4046C27.1785 46.9172 29.0539 49.1385 29.0539 51.7015C29.0539 54.0937 27.349 56.1441 25.1325 56.8276C27.008 60.0741 30.4179 62.2954 34.5098 62.2954ZM26.326 51.7015C26.326 50.1637 25.1325 49.1385 23.7685 48.9676C23.598 49.822 23.4275 50.5054 23.4275 51.3598C23.598 52.5559 23.7685 53.5811 23.939 54.4354C25.303 54.2646 26.326 53.0685 26.326 51.7015Z" fill="black"/>
<path d="M9.27646 6.07959H23.4276C25.1326 6.07959 26.4966 7.44655 26.4966 9.15524V11.3765C26.3261 13.0852 25.1326 14.4522 23.4276 14.4522H9.27646C7.57149 14.4522 6.20752 13.0852 6.20752 11.3765V9.15524C6.20752 7.44655 7.57149 6.07959 9.27646 6.07959ZM8.59447 11.5474C8.59447 11.7183 8.76497 12.06 9.10596 12.06H23.2572C23.4276 12.06 23.7686 11.8892 23.7686 11.5474V9.32611C23.7686 9.15524 23.5981 8.8135 23.2572 8.8135H9.10596C8.93547 8.8135 8.59447 8.98437 8.59447 9.32611V11.5474Z" fill="black"/>
<path d="M34.6809 5.05371C37.5794 5.05371 39.9663 7.44588 39.9663 10.3507C39.9663 13.2554 37.5794 15.6476 34.6809 15.6476C31.7825 15.6476 29.3955 13.2554 29.3955 10.3507C29.3955 7.44588 31.7825 5.05371 34.6809 5.05371ZM34.6809 13.2554C36.2154 13.2554 37.4089 12.0594 37.4089 10.5215C37.4089 8.98371 36.2154 7.78762 34.6809 7.78762C33.1465 7.78762 31.953 8.98371 31.953 10.5215C31.953 12.0594 33.1465 13.2554 34.6809 13.2554Z" fill="black"/>
</svg>
