<svg width="203" height="127" viewBox="0 0 203 127" fill="none" xmlns="http://www.w3.org/2000/svg">
<path d="M100.973 69.2534C100.973 69.2534 100.542 69.2534 99.6802 69.2534C98.8184 69.2534 97.5736 69.1571 95.9457 68.9645C94.3179 68.7237 92.3071 68.3384 90.0089 67.5678C87.7108 66.7973 85.1733 65.6415 82.5879 63.9077C81.2952 63.0408 79.9547 62.0777 78.662 60.9218C77.3693 59.766 76.0766 58.5139 74.8797 57.0209C72.4858 54.1313 70.2356 50.6157 68.7035 46.474C67.1235 42.3804 66.2139 37.6608 66.3096 32.7003C66.4054 27.6436 67.8896 22.4423 70.6665 17.6746C73.4912 12.9068 77.6087 8.71688 82.6837 5.63467C87.7587 2.5043 93.7913 0.529755 100.063 0.0963191C100.877 0.0481595 101.595 0.0481595 102.457 0C103.223 0 103.941 0 104.803 0.0481595C106.479 0.0963191 108.011 0.337117 109.639 0.626074C111.267 0.915031 112.846 1.34847 114.426 1.87822C116.006 2.40798 117.538 3.08221 119.023 3.85276C125.007 6.93498 130.13 12.1844 133.147 18.5414C134.679 21.72 135.732 25.1393 136.259 28.7031C136.737 32.2669 136.881 35.7825 136.259 39.4908C135.636 43.1028 134.391 46.6666 132.524 49.8451C130.609 53.0237 128.167 55.9132 125.342 58.2731C119.645 63.0408 112.368 65.8823 104.947 66.412C97.5736 66.9899 89.7217 65.208 83.4976 60.7773C80.3856 58.6102 77.6566 55.8169 75.55 52.6384C73.4433 49.4599 71.9591 45.896 71.0974 42.1878C70.6665 40.3577 70.4271 38.4795 70.2834 36.6013C70.2356 36.1197 70.2356 35.6862 70.2356 35.2046V34.4822V34.2896V34.0488V33.7117C70.2356 33.2782 70.2356 32.893 70.2834 32.3632C70.3313 31.8816 70.3792 31.3519 70.4271 30.8703C70.9058 27.0657 72.2464 23.4055 74.1615 20.1789C78.0875 13.6773 84.3115 9.054 91.158 6.69418C94.5573 5.49019 98.1481 4.86411 101.739 4.81595H102.457H103.079C103.51 4.81595 103.893 4.81596 104.372 4.86411C105.33 4.91227 106.192 5.05675 107.053 5.15307C108.825 5.44203 110.548 5.87546 112.224 6.50154C115.575 7.70553 118.64 9.58375 121.225 11.9917C123.81 14.3997 125.821 17.2893 127.258 20.3715C128.694 23.4537 129.556 26.7767 129.891 30.0516C130.082 31.689 130.13 33.3264 130.082 34.9638V35.5417L130.034 36.1678C129.987 36.6013 129.939 37.0347 129.891 37.42C129.795 38.2387 129.604 39.0574 129.412 39.8279C128.598 43.0065 127.114 45.9442 125.199 48.4485C123.284 50.9528 120.938 53.0237 118.448 54.6611C113.373 57.8878 107.58 59.3807 102.026 59.2362C96.5203 59.0918 91.2537 57.358 87.232 54.3721C83.1625 51.4344 80.2898 47.3408 78.8056 43.151C78.0396 41.0319 77.6087 38.9129 77.4172 36.8902C77.2735 34.8194 77.3214 32.7967 77.7044 30.9184C78.5184 27.162 80.2898 24.0316 82.2049 21.5755C84.1679 19.1193 86.3224 17.2893 88.3332 15.989C90.392 14.6887 92.3071 13.9181 93.887 13.4365C95.467 13.0031 96.7597 12.8586 97.5736 12.8104C98.0045 12.7623 98.3396 12.8104 98.5311 12.7623C98.7705 12.7623 98.8663 12.7623 98.8663 12.7623C98.8663 12.7623 98.7705 12.7623 98.5311 12.7623C98.3396 12.7623 98.0045 12.7623 97.5736 12.8586C96.7118 12.9549 95.467 13.1476 93.9349 13.6773C92.4028 14.2071 90.5356 15.0739 88.6205 16.4224C86.7054 17.7709 84.6945 19.6491 82.8752 22.1052C81.1037 24.5614 79.5238 27.5954 78.9014 31.1592C78.3268 34.6749 78.8056 38.7203 80.3377 42.573C81.8698 46.4258 84.6467 50.0378 88.4769 52.5902C92.3071 55.1427 97.0469 56.6356 102.074 56.6356C107.053 56.6356 112.272 55.1427 116.725 52.1568C121.129 49.1709 124.768 44.5957 125.965 39.1056C126.109 38.4313 126.252 37.7571 126.348 37.0347C126.396 36.6976 126.444 36.3605 126.444 36.0233L126.492 35.5417V34.9638C126.492 33.519 126.444 32.0743 126.252 30.6295C125.869 27.7399 125.055 24.8503 123.763 22.2016C121.177 16.904 116.581 12.5696 110.836 10.5951C105.138 8.62056 98.5311 8.86136 92.6422 11.0285C86.7054 13.1476 81.391 17.2893 78.1353 22.7313C76.5075 25.4282 75.4063 28.4623 75.0712 31.5927C75.0233 31.9779 75.0233 32.3632 74.9754 32.7003C74.9276 33.0375 74.9275 33.5672 74.9275 33.9525V34.2896C74.9275 34.3859 74.9275 34.3378 74.9275 34.3859V34.5304V35.1565C74.9275 35.5417 74.9276 35.9752 74.9754 36.3605C75.0712 37.9979 75.3106 39.5871 75.6936 41.1764C76.4596 44.3549 77.7044 47.3408 79.4759 50.0378C81.2474 52.7347 83.5455 55.0464 86.1787 56.8764C88.812 58.7065 91.7804 60.1031 94.9403 60.8737C96.5203 61.2589 98.1002 61.5479 99.7281 61.6924L100.925 61.7887L102.218 61.8369C102.936 61.8369 103.846 61.8369 104.612 61.7405C111.123 61.3071 117.443 58.851 122.374 54.7574C127.305 50.6638 130.801 44.9329 131.854 38.7684C131.997 37.9979 132.093 37.2273 132.141 36.4568C132.237 35.7825 132.237 34.7712 132.237 34.097C132.237 32.5077 132.141 30.9184 131.902 29.3773C131.471 26.247 130.609 23.2129 129.268 20.4196C126.683 14.8331 122.278 10.258 117.06 7.41657C115.767 6.69418 114.426 6.11626 113.038 5.58651C111.65 5.10491 110.261 4.67148 108.825 4.38252C107.388 4.09356 105.904 3.85276 104.516 3.8046C103.846 3.70829 103.032 3.75644 102.266 3.70829C101.643 3.70829 100.829 3.70829 100.159 3.75644C88.6684 4.2862 78.2311 10.5469 72.9167 19.1675C70.2356 23.4537 68.7992 28.2697 68.512 32.8448C68.2247 37.5163 68.9429 41.9951 70.2834 45.9442C71.624 49.9415 73.587 53.3608 75.8372 56.2504C76.9384 57.6951 78.1353 58.9954 79.3323 60.1513C80.5292 61.3071 81.774 62.3185 83.0188 63.1853C87.9502 66.7491 92.6901 68.1458 95.85 68.7718C97.4778 69.0608 98.7226 69.2053 99.5844 69.2534C100.542 69.2534 100.973 69.2534 100.973 69.2534Z" fill="white"/>
<path d="M21.7637 126.942V120.037H22.5094V126.251H26.0086V126.884H21.7637V126.942Z" fill="white"/>
<path d="M33.2369 126.942L32.6633 125.388H29.6804L29.1068 126.942H28.3037L30.8277 120.037H31.5161L34.04 126.942H33.2369ZM31.2292 121.13L29.9672 124.755H32.5486L31.2292 121.13Z" fill="white"/>
<path d="M38.6287 126.942H38.055L35.8179 120.037H36.5636L38.3419 125.618L40.1201 120.037H40.8658L38.6287 126.942Z" fill="white"/>
<path d="M47.5768 126.942L47.0032 125.388H44.0203L43.4466 126.942H42.6436L45.1675 120.037H45.7985L48.3225 126.942H47.5768ZM45.5117 121.13L44.2497 124.755H46.8311L45.5117 121.13Z" fill="white"/>
<path d="M55.7229 126.942L52.109 121.418V126.942H51.3633V120.037H52.0516L55.6655 125.561V120.037H56.4112V126.942H55.7229Z" fill="white"/>
<path d="M64.4429 126.309C64.0414 126.712 63.4104 126.942 62.722 126.942H60.3701V120.037H62.722C63.4104 120.037 64.0414 120.267 64.4429 120.67C65.1313 121.361 65.1313 122.454 65.1313 123.374C65.0739 124.353 65.1313 125.561 64.4429 126.309ZM63.9266 121.188C63.5825 120.843 63.1236 120.67 62.5499 120.67H61.0585V126.251H62.5499C63.0662 126.251 63.5251 126.136 63.9266 125.734C64.3855 125.216 64.3855 124.238 64.3855 123.374C64.3855 122.569 64.3855 121.706 63.9266 121.188Z" fill="white"/>
<path d="M68.7432 126.942V120.037H72.988V120.67H69.4889V123.087H72.4718V123.72H69.4889V126.194H72.988V126.827H68.7432V126.942Z" fill="white"/>
<path d="M80.3897 126.942L78.8409 123.892H77.1774V126.942H76.4316V120.037H79.0703C80.275 120.037 81.0781 120.785 81.0781 121.936C81.0781 122.914 80.4471 123.605 79.5866 123.777L81.1928 126.884H80.3897V126.942ZM79.013 120.728H77.1774V123.259H79.013C79.8161 123.259 80.3897 122.857 80.3897 121.993C80.3897 121.13 79.8161 120.728 79.013 120.728Z" fill="white"/>
<path d="M85.0939 119.405H84.4629L85.3233 117.909H86.1264L85.0939 119.405ZM84.6923 126.942V120.038H85.4381V126.942H84.6923Z" fill="white"/>
<path d="M93.3532 126.942L92.7795 125.388H89.7966L89.223 126.942H88.4199L90.9439 120.037H91.5749L94.0989 126.942H93.3532ZM91.2881 121.13L90.0261 124.755H92.6074L91.2881 121.13Z" fill="white"/>
<path d="M104.31 126.942V120.037H105.055V126.942H104.31Z" fill="white"/>
<path d="M113.316 126.942L109.702 121.418V126.942H108.956V120.037H109.644L113.258 125.561V120.037H114.004V126.942H113.316Z" fill="white"/>
<path d="M119.912 120.728V126.942H119.166V120.728H117.158V120.095H121.862V120.728H119.912Z" fill="white"/>
<path d="M125.133 126.942V120.037H129.378V120.67H125.879V123.087H128.861V123.72H125.879V126.194H129.378V126.827H125.133V126.942Z" fill="white"/>
<path d="M132.819 126.942V120.037H133.565V126.251H137.064V126.884H132.819V126.942Z" fill="white"/>
<path d="M140.274 126.942V120.037H141.02V126.942H140.274Z" fill="white"/>
<path d="M148.881 126.194C148.422 126.712 147.733 127 147.045 127C146.357 127 145.783 126.77 145.267 126.31C144.636 125.677 144.636 124.986 144.636 123.548C144.636 122.109 144.636 121.419 145.267 120.786C145.726 120.325 146.357 120.095 147.045 120.095C148.364 120.095 149.225 120.958 149.454 122.167H148.709C148.536 121.304 147.905 120.786 147.045 120.786C146.586 120.786 146.185 120.958 145.84 121.304C145.381 121.764 145.381 122.224 145.381 123.663C145.381 125.101 145.439 125.562 145.84 126.022C146.127 126.31 146.586 126.482 147.045 126.482C147.561 126.482 148.02 126.252 148.364 125.907C148.651 125.561 148.766 125.216 148.766 124.641V124.123H147.102V123.49H149.512V124.583C149.454 125.216 149.282 125.734 148.881 126.194Z" fill="white"/>
<path d="M153.127 126.942V120.037H157.372V120.67H153.873V123.087H156.856V123.72H153.873V126.194H157.372V126.827H153.127V126.942Z" fill="white"/>
<path d="M165.173 126.942L161.559 121.418V126.942H160.813V120.037H161.502L165.116 125.561V120.037H165.861V126.942H165.173Z" fill="white"/>
<path d="M171.827 120.728V126.942H171.081V120.728H169.073V120.095H173.777V120.728H171.827Z" fill="white"/>
<path d="M176.988 126.942V120.037H181.233V120.67H177.734V123.087H180.717V123.72H177.734V126.194H181.233V126.827H176.988V126.942Z" fill="white"/>
<path d="M0 109.096V104.521C0 104.376 0.0478774 104.28 0.143632 104.28C0.239387 104.28 0.335142 104.328 0.383019 104.425C0.670284 105.147 1.00543 105.725 1.38845 106.303C1.77146 106.833 2.15448 107.314 2.58538 107.651C3.01628 108.036 3.49505 108.277 4.0217 108.47C4.54836 108.663 5.12289 108.759 5.79317 108.759C6.17619 108.759 6.51133 108.711 6.84647 108.614C7.18161 108.518 7.46888 108.325 7.70827 108.085C7.94765 107.844 8.13916 107.555 8.2828 107.218C8.42643 106.881 8.52218 106.447 8.52218 105.917C8.52218 105.436 8.42643 105.002 8.2828 104.665C8.09129 104.28 7.8519 103.991 7.56463 103.702C7.27737 103.413 6.94223 103.172 6.55921 102.98C6.17619 102.787 5.79317 102.594 5.41015 102.402C4.97925 102.209 4.54836 102.017 4.11746 101.824C3.68656 101.631 3.30354 101.39 2.92052 101.15C2.5375 100.909 2.20236 100.62 1.86722 100.283C1.53208 99.9457 1.29269 99.5604 1.0533 99.127C0.861794 98.7417 0.718161 98.3564 0.622407 97.9711C0.526652 97.5859 0.478774 97.1524 0.478774 96.7672C0.478774 96.1411 0.574529 95.5632 0.813916 94.9371C1.00543 94.311 1.38845 93.7813 1.86722 93.2515C2.34599 92.7699 2.9684 92.3365 3.78232 92.0475C4.59623 91.7586 5.5059 91.5659 6.65496 91.5659C7.37312 91.5659 7.99553 91.6141 8.52218 91.7586C9.04883 91.903 9.47973 91.9994 9.86275 92.1438C10.1979 92.2883 10.4852 92.4328 10.6767 92.5291C10.8682 92.6736 10.9639 92.7217 11.0118 92.7699C11.1076 92.8662 11.1554 92.9144 11.1554 93.0589V95.3705C11.1554 95.4187 11.1554 95.4668 11.1076 95.515C11.0597 95.5632 11.0118 95.5632 11.0118 95.5632C10.9639 95.5632 10.9161 95.5632 10.8682 95.515C10.8203 95.515 10.7724 95.4668 10.7724 95.3705C10.6288 94.9853 10.4373 94.6 10.1979 94.2147C9.95851 93.8294 9.71912 93.4923 9.38398 93.2033C9.04883 92.9144 8.61794 92.6736 8.13916 92.481C7.66039 92.2883 7.08586 92.192 6.41558 92.192C5.55378 92.192 4.83562 92.3846 4.35685 92.8181C3.87807 93.2515 3.63868 93.7813 3.63868 94.5037C3.63868 94.9371 3.68656 95.2742 3.83019 95.5632C3.97383 95.8521 4.21321 96.1411 4.54836 96.43C4.8835 96.719 5.31439 96.9598 5.84105 97.2487C6.3677 97.5377 7.08586 97.8267 7.89978 98.1638C8.71369 98.5009 9.38398 98.838 10.0064 99.2233C10.6288 99.6086 11.1076 100.042 11.5385 100.475C11.9694 100.957 12.2566 101.487 12.4481 102.065C12.6396 102.643 12.7833 103.317 12.7833 104.087C12.7833 104.858 12.6396 105.532 12.4003 106.206C12.113 106.881 11.73 107.459 11.1554 107.94C10.5809 108.422 9.91063 108.807 9.04883 109.096C8.18704 109.385 7.22949 109.529 6.08043 109.529C5.36227 109.529 4.64411 109.433 3.92595 109.24C3.20779 109.048 2.5375 108.855 1.86722 108.614C1.77146 108.566 1.67571 108.566 1.57996 108.518C1.4842 108.47 1.34057 108.47 1.24481 108.47C1.0533 108.47 0.909671 108.518 0.813916 108.663C0.718161 108.807 0.622407 108.952 0.526652 109.144C0.478774 109.24 0.383019 109.337 0.287265 109.289C0.0478774 109.337 0 109.24 0 109.096Z" fill="white"/>
<path d="M30.0181 92.0963V95.6601C30.0181 95.8046 29.9702 95.8528 29.8745 95.9009C29.7787 95.9009 29.683 95.8528 29.6351 95.7083C29.5872 95.612 29.5393 95.5157 29.4436 95.323C29.3478 95.1304 29.2521 94.9377 29.1084 94.6969C28.9648 94.4562 28.7733 94.2154 28.5339 93.9746C28.2945 93.7338 28.0551 93.493 27.7679 93.3003C27.4806 93.1077 27.1455 92.915 26.7625 92.7706C26.3794 92.6261 25.9964 92.5779 25.5176 92.5779C25.3261 92.5779 25.1346 92.6261 24.991 92.6743C24.8474 92.7224 24.7516 92.8187 24.6558 92.915C24.5601 93.0114 24.5122 93.1558 24.4643 93.3003C24.4165 93.4448 24.4165 93.5893 24.4165 93.7338V106.737C24.4165 107.122 24.5122 107.459 24.6558 107.7C24.8474 107.941 25.0389 108.133 25.2304 108.278C25.4698 108.422 25.6613 108.519 25.9007 108.567C26.14 108.615 26.2837 108.663 26.3794 108.663C26.4752 108.663 26.5231 108.711 26.5709 108.76C26.6188 108.808 26.6188 108.856 26.6188 108.904C26.6188 108.952 26.5709 109 26.5709 109.048C26.5709 109.097 26.4752 109.097 26.3794 109.097H18.2403C18.1445 109.097 18.0966 109.097 18.0488 109.048C18.0009 109 18.0009 108.952 18.0009 108.904C18.0009 108.856 18.0009 108.808 18.0488 108.76C18.0966 108.711 18.1445 108.711 18.2403 108.663C18.336 108.663 18.5275 108.615 18.719 108.567C18.9584 108.519 19.1499 108.422 19.3893 108.278C19.6287 108.133 19.8202 107.941 19.9639 107.7C20.1554 107.459 20.2032 107.122 20.2032 106.737C20.2032 106.689 20.2032 106.448 20.2032 106.111C20.2032 105.725 20.2032 105.292 20.2032 104.762C20.2032 104.233 20.2032 103.606 20.2032 102.932C20.2032 102.258 20.2032 101.536 20.2032 100.813C20.2032 100.091 20.2032 99.3684 20.2032 98.6942C20.2032 98.02 20.2032 97.3457 20.2032 96.7678C20.2032 96.1899 20.2032 95.6601 20.2032 95.2749C20.2032 94.8414 20.2032 94.5525 20.2032 94.408C20.2032 94.2154 20.2032 93.9746 20.2032 93.7819C20.2032 93.5893 20.1554 93.3966 20.0596 93.204C20.0117 93.0595 19.8681 92.915 19.7245 92.8187C19.5808 92.7224 19.3415 92.6743 19.1021 92.6743C18.6233 92.6743 18.2403 92.7224 17.8573 92.8669C17.4742 93.0114 17.1391 93.1558 16.8518 93.3966C16.5646 93.5893 16.2773 93.8301 16.0858 94.0709C15.8464 94.3117 15.6549 94.5525 15.5113 94.7933C15.3676 95.0341 15.224 95.2267 15.1282 95.4193C15.0325 95.612 14.9846 95.7565 14.9367 95.8046C14.8889 95.9491 14.7931 95.9973 14.6973 95.9973C14.6016 95.9973 14.5537 95.9009 14.5537 95.7565V92.1927C14.5537 92.0482 14.6495 91.9519 14.841 91.9519H29.7309C29.9224 91.8555 30.0181 91.9519 30.0181 92.0963Z" fill="white"/>
<path d="M45.6261 93.4452C45.7697 93.1563 45.8176 92.9636 45.7697 92.8191C45.7219 92.6747 45.674 92.5784 45.5303 92.482C45.3867 92.3857 45.291 92.3376 45.0995 92.3376C44.9558 92.2894 44.8122 92.2894 44.7164 92.2894C44.6207 92.2894 44.5728 92.2412 44.5249 92.1931C44.477 92.1449 44.477 92.0968 44.477 92.0486C44.477 92.0004 44.5249 91.9523 44.5249 91.9041C44.5728 91.856 44.6207 91.856 44.7164 91.856H49.1212C49.2169 91.856 49.2648 91.856 49.3127 91.9041C49.3605 91.9523 49.3605 92.0004 49.3605 92.0486C49.3605 92.0968 49.3605 92.1449 49.3127 92.1931C49.2648 92.2412 49.2169 92.2412 49.1212 92.2894C48.9775 92.2894 48.8339 92.3375 48.6424 92.3857C48.4509 92.4339 48.2594 92.5302 48.0679 92.6265C47.8763 92.7228 47.637 92.8673 47.3976 93.0599C47.1582 93.2526 46.9188 93.4934 46.6794 93.7823C46.5837 93.9268 46.3921 94.1676 46.1528 94.4566C45.9134 94.7937 45.6261 95.1308 45.3388 95.5642C45.0516 95.9495 44.7164 96.383 44.4292 96.8164C44.094 97.2498 43.8068 97.6833 43.5195 98.0685C43.2322 98.4538 42.9928 98.7909 42.8013 99.0799C42.6098 99.3688 42.5141 99.5615 42.4662 99.6096C42.3704 99.8023 42.3226 99.9949 42.2747 100.188C42.2268 100.38 42.2268 100.621 42.2268 100.91V106.834C42.2268 107.219 42.3226 107.556 42.4662 107.797C42.6577 108.038 42.8492 108.23 43.0407 108.375C43.2801 108.519 43.4716 108.615 43.711 108.664C43.9504 108.712 44.094 108.76 44.1898 108.76C44.2855 108.76 44.3334 108.808 44.3813 108.856C44.4292 108.904 44.4292 108.953 44.4292 109.001C44.4292 109.049 44.3813 109.097 44.3813 109.145C44.3334 109.193 44.2855 109.193 44.1898 109.193H36.29C36.1943 109.193 36.1464 109.193 36.0985 109.145C36.0506 109.097 36.0506 109.049 36.0506 109.001C36.0506 108.953 36.0506 108.904 36.0985 108.856C36.1464 108.808 36.1943 108.808 36.29 108.76C36.3858 108.76 36.5294 108.712 36.7688 108.664C37.0082 108.615 37.1997 108.519 37.4391 108.375C37.6785 108.23 37.87 108.038 38.0136 107.797C38.2051 107.556 38.253 107.219 38.253 106.834V102.066C38.253 101.969 38.253 101.825 38.253 101.729C38.253 101.632 38.253 101.488 38.2051 101.392C38.2051 101.295 38.1572 101.151 38.1093 101.054C38.0615 100.958 38.0136 100.814 37.9178 100.669C37.87 100.573 37.7742 100.428 37.6306 100.236C37.4869 99.9949 37.2954 99.7541 37.1039 99.4652C36.9124 99.1762 36.673 98.7909 36.4336 98.4538C36.1943 98.0685 35.9549 97.6833 35.6676 97.298C35.4282 96.9127 35.1409 96.5274 34.9016 96.1422C34.6622 95.7569 34.4228 95.4198 34.1834 95.0826C33.9919 94.7455 33.8004 94.5047 33.6567 94.2639C33.5131 94.0231 33.4174 93.8787 33.3216 93.7342C33.178 93.5415 33.0343 93.3489 32.8428 93.2044C32.6513 93.0118 32.4598 92.8673 32.2683 92.771C32.0768 92.6265 31.8853 92.5302 31.6938 92.482C31.5023 92.3857 31.3108 92.3376 31.1671 92.3376C31.0714 92.3376 31.0235 92.2894 30.9756 92.2412C30.9277 92.1931 30.9277 92.1449 30.9277 92.0968C30.9277 92.0486 30.9756 92.0004 30.9756 91.9523C31.0235 91.9041 31.0714 91.9041 31.1671 91.9041H39.1627C39.2584 91.9041 39.3063 91.9041 39.3542 91.9523C39.402 92.0004 39.402 92.0486 39.402 92.0968C39.402 92.1449 39.402 92.1931 39.3542 92.2412C39.3063 92.2894 39.2584 92.3376 39.1627 92.3376C39.0669 92.3376 38.9233 92.3857 38.7796 92.4339C38.636 92.482 38.4924 92.5302 38.3487 92.6265C38.2051 92.7228 38.1572 92.8191 38.1093 92.9636C38.0615 93.1081 38.1093 93.3007 38.2051 93.5897C38.3009 93.7823 38.3966 94.0231 38.5881 94.3121C38.7796 94.6492 38.9711 94.9863 39.2105 95.3716C39.4499 95.7569 39.6893 96.1422 39.9287 96.5274C40.1681 96.9127 40.4075 97.298 40.6469 97.6351C40.8862 97.9722 41.0299 98.2612 41.2214 98.502C41.365 98.7428 41.4608 98.8872 41.5086 98.9354C41.6523 99.0799 41.748 99.0799 41.8917 98.9836C41.9395 98.9354 42.0353 98.7909 42.2268 98.5501C42.4183 98.3093 42.6098 98.0204 42.8492 97.6351C43.0886 97.298 43.3759 96.8645 43.6631 96.4793C43.9504 96.094 44.2377 95.6606 44.477 95.2753C44.7164 94.89 44.9558 94.5529 45.1473 94.2639C45.4825 93.7823 45.5782 93.5897 45.6261 93.4452Z" fill="white"/>
<path d="M63.677 105.148C63.7249 105.003 63.8207 104.955 63.9164 104.955C64.0122 104.955 64.0601 105.052 64.0601 105.196V108.952C64.0601 109.097 63.9643 109.193 63.7728 109.193H50.7501C50.6544 109.193 50.6065 109.193 50.5586 109.145C50.5107 109.097 50.5107 109.049 50.5107 109.001C50.5107 108.952 50.5107 108.904 50.5586 108.856C50.6065 108.808 50.6544 108.808 50.7501 108.76C50.8459 108.76 50.9895 108.712 51.2289 108.664C51.4683 108.615 51.6598 108.519 51.8992 108.375C52.1386 108.23 52.3301 108.037 52.4737 107.797C52.6652 107.556 52.7131 107.219 52.7131 106.833V94.312C52.7131 93.9267 52.6173 93.5896 52.4737 93.3488C52.2822 93.108 52.0907 92.9153 51.8992 92.7709C51.7077 92.6264 51.4683 92.5301 51.2289 92.4819C50.9895 92.4337 50.8459 92.3856 50.7501 92.3856C50.6544 92.3856 50.6065 92.3374 50.5586 92.2893C50.5107 92.2411 50.5107 92.1929 50.5107 92.1448C50.5107 92.0966 50.5586 92.0485 50.5586 92.0003C50.6065 91.9522 50.6544 91.9521 50.7501 91.9521H58.8893C58.985 91.9521 59.0329 91.9522 59.0808 92.0003C59.1287 92.0485 59.1287 92.0966 59.1287 92.1448C59.1287 92.1929 59.1287 92.2411 59.0808 92.2893C59.0329 92.3374 58.985 92.3856 58.8893 92.3856C58.7935 92.3856 58.602 92.4337 58.4105 92.4819C58.1711 92.5301 57.9796 92.6264 57.7402 92.7709C57.5008 92.9153 57.3093 93.108 57.1657 93.3488C57.0221 93.5896 56.9263 93.9267 56.9263 94.312V107.556C56.9263 107.748 56.9742 107.941 57.0221 108.037C57.0699 108.182 57.1657 108.278 57.3572 108.326C57.5008 108.375 57.7402 108.423 58.0275 108.471C58.3148 108.471 58.6978 108.519 59.1287 108.519C59.7032 108.519 60.182 108.471 60.6129 108.326C61.0438 108.182 61.4268 107.989 61.7619 107.797C62.0971 107.604 62.3843 107.363 62.5759 107.074C62.8152 106.833 63.0067 106.544 63.1504 106.304C63.294 106.063 63.4377 105.87 63.4855 105.678C63.5813 105.341 63.677 105.196 63.677 105.148Z" fill="white"/>
<path d="M80.1012 105.485C80.149 105.341 80.2448 105.292 80.3405 105.292C80.4363 105.292 80.4842 105.389 80.4842 105.533V108.952C80.4842 109.097 80.3884 109.193 80.1969 109.193H66.6476C66.5518 109.193 66.504 109.193 66.4561 109.145C66.4082 109.097 66.4082 109.049 66.4082 109.001C66.4082 108.952 66.4082 108.904 66.4561 108.856C66.504 108.808 66.5518 108.808 66.6476 108.76C66.7433 108.76 66.887 108.712 67.1264 108.664C67.3658 108.615 67.5573 108.519 67.7967 108.375C68.036 108.23 68.2275 108.037 68.3712 107.797C68.5627 107.556 68.6106 107.219 68.6106 106.833V94.312C68.6106 93.9267 68.5148 93.5896 68.3712 93.3488C68.1797 93.108 67.9882 92.9153 67.7967 92.7709C67.5573 92.6264 67.3658 92.5301 67.1264 92.4819C66.887 92.4337 66.7433 92.3856 66.6476 92.3856C66.5518 92.3856 66.504 92.3374 66.4561 92.2893C66.4082 92.2411 66.4082 92.1929 66.4082 92.1448C66.4082 92.0966 66.4561 92.0485 66.4561 92.0003C66.504 91.9522 66.5518 91.9521 66.6476 91.9521H79.0957C79.2872 91.9521 79.383 92.0485 79.383 92.1929V94.8417C79.383 94.9862 79.3351 95.0344 79.2394 95.0344C79.1436 95.0344 79.0478 94.9862 79 94.8899C78.9521 94.7936 78.8563 94.6009 78.7127 94.3601C78.5691 94.1193 78.3297 93.8785 78.0903 93.6377C77.803 93.3969 77.4679 93.1561 77.0849 92.9635C76.654 92.7709 76.1752 92.6745 75.6007 92.6745C75.2176 92.6745 74.8346 92.7227 74.4995 92.7709C74.1644 92.819 73.8771 92.9635 73.6377 93.108C73.3983 93.2525 73.2068 93.4451 73.111 93.6859C72.9674 93.9267 72.9195 94.2156 72.9195 94.5528V99.9466V99.6577C72.9195 99.7058 72.9195 99.754 72.9674 99.8022C73.0153 99.8503 73.0632 99.8503 73.111 99.8503H74.7389C75.1219 99.8503 75.457 99.754 75.6964 99.6095C75.9358 99.465 76.1273 99.2724 76.271 99.0798C76.4146 98.8871 76.5103 98.6945 76.5582 98.4537C76.6061 98.261 76.654 98.1166 76.654 98.0203C76.654 97.9721 76.7019 97.9239 76.7497 97.8758C76.7976 97.8276 76.8455 97.8276 76.8934 97.8276C76.9412 97.8276 76.9891 97.8758 77.037 97.8758C77.0849 97.9239 77.0849 97.9721 77.0849 98.0203V102.403C77.0849 102.451 77.0849 102.547 77.037 102.547C76.9891 102.595 76.9412 102.595 76.8934 102.595C76.8455 102.595 76.7976 102.595 76.7497 102.547C76.7019 102.499 76.654 102.451 76.654 102.403C76.654 102.306 76.6061 102.162 76.5582 101.969C76.5103 101.777 76.4146 101.584 76.271 101.343C76.1273 101.151 75.9358 100.958 75.6964 100.814C75.457 100.669 75.1219 100.573 74.7389 100.573H73.111C73.0632 100.573 73.0153 100.573 72.9674 100.621C72.9195 100.669 72.9195 100.717 72.9195 100.765V100.621V106.544C72.9195 107.171 73.2068 107.604 73.7335 107.941C74.2601 108.278 75.0261 108.423 75.9837 108.423C76.4625 108.423 76.8455 108.375 77.2285 108.23C77.6115 108.086 77.9467 107.941 78.2339 107.748C78.5212 107.556 78.8085 107.363 79.0478 107.122C79.2872 106.882 79.4787 106.641 79.6224 106.448C79.766 106.256 79.9096 106.063 80.0054 105.87C80.0054 105.678 80.0533 105.533 80.1012 105.485Z" fill="white"/>
<path d="M104.947 108.47C105.042 108.567 105.138 108.615 105.138 108.711C105.138 108.808 105.138 108.856 105.042 108.904C104.994 108.952 104.947 109 104.851 109.097C104.755 109.193 104.659 109.241 104.468 109.289C104.324 109.337 104.133 109.386 103.893 109.434C103.654 109.482 103.367 109.482 103.079 109.482C102.649 109.482 102.313 109.434 101.978 109.289C101.643 109.193 101.356 109 101.116 108.856C100.877 108.663 100.638 108.47 100.398 108.278C100.207 108.085 100.015 107.844 99.8237 107.7C99.7759 107.652 99.6801 107.555 99.5843 107.411C99.4886 107.315 99.345 107.122 99.2492 106.978C99.2013 106.929 99.1534 106.881 99.1056 106.881C99.0577 106.881 99.0098 106.929 98.9619 106.978C98.7704 107.315 98.5789 107.652 98.3395 107.941C98.1001 108.23 97.8129 108.519 97.5256 108.759C97.1905 109 96.8553 109.145 96.4723 109.289C96.0893 109.434 95.6584 109.482 95.1796 109.482C94.7008 109.482 94.2221 109.386 93.7912 109.241C93.3603 109.097 92.9773 108.856 92.69 108.615C92.3549 108.326 92.1155 107.989 91.9718 107.555C91.7803 107.122 91.6846 106.64 91.6846 106.111C91.6846 105.533 91.7803 105.003 92.0197 104.521C92.2591 104.04 92.5464 103.606 92.8815 103.173C93.2166 102.788 93.6475 102.402 94.0784 102.065C94.5093 101.728 94.9402 101.439 95.3233 101.247C95.4669 101.198 95.4669 101.054 95.419 100.909C95.1796 100.38 94.9402 99.8981 94.7966 99.4165C94.653 98.9349 94.5572 98.5496 94.5572 98.1643C94.5572 97.6827 94.653 97.2493 94.8924 96.9122C95.0839 96.5751 95.3711 96.2861 95.7063 96.0453C96.0414 95.8045 96.4244 95.66 96.9032 95.5156C97.3341 95.4192 97.8129 95.3711 98.2917 95.3711C98.6268 95.3711 99.0098 95.4192 99.345 95.5156C99.6801 95.6119 99.9674 95.7564 100.255 95.949C100.494 96.1416 100.733 96.3824 100.877 96.6714C101.021 96.9604 101.116 97.2975 101.116 97.6827C101.116 98.2607 100.925 98.7904 100.59 99.2239C100.255 99.6573 99.8237 99.9463 99.2492 100.187C99.2013 100.235 99.1534 100.235 99.1056 100.283C99.0577 100.332 99.1056 100.38 99.1535 100.476C99.4407 100.958 99.728 101.487 100.063 101.969C100.398 102.499 100.733 102.98 101.116 103.51C101.212 103.655 101.308 103.655 101.404 103.558C101.787 103.125 102.122 102.739 102.505 102.499C102.888 102.21 103.271 102.113 103.702 102.113C104.181 102.113 104.564 102.258 104.851 102.547C105.138 102.836 105.282 103.221 105.282 103.703C105.282 103.847 105.234 104.04 105.186 104.232C105.138 104.425 105.042 104.57 104.899 104.714C104.755 104.859 104.611 104.955 104.42 105.051C104.228 105.147 104.037 105.196 103.798 105.196C103.223 105.196 102.792 104.907 102.601 104.377C102.553 104.281 102.505 104.136 102.457 103.992C102.409 103.847 102.313 103.799 102.122 103.799C102.074 103.799 101.978 103.799 101.882 103.847C101.787 103.895 101.691 103.943 101.595 104.04C101.499 104.136 101.499 104.184 101.547 104.329C101.882 104.81 102.265 105.292 102.601 105.774C102.936 106.207 103.271 106.64 103.558 107.026C103.845 107.411 104.133 107.7 104.324 107.941C104.659 108.182 104.851 108.374 104.947 108.47ZM97.3341 106.833C97.5735 106.833 97.765 106.833 97.9565 106.785C98.148 106.737 98.3395 106.689 98.531 106.592C98.6268 106.544 98.6747 106.496 98.6747 106.4C98.6747 106.351 98.6747 106.255 98.6268 106.207C98.3874 105.918 98.1959 105.581 97.9565 105.244C97.7171 104.907 97.4777 104.521 97.2384 104.136C96.999 103.751 96.7596 103.366 96.5202 102.98C96.2808 102.595 96.0414 102.21 95.8499 101.776C95.802 101.728 95.7541 101.68 95.7063 101.68C95.6584 101.68 95.6105 101.728 95.5626 101.776C95.2754 102.017 95.0839 102.354 94.8924 102.739C94.7487 103.125 94.653 103.558 94.653 104.04C94.653 104.473 94.7009 104.859 94.8445 105.196C94.9881 105.533 95.1796 105.822 95.419 106.063C95.6584 106.303 95.9457 106.496 96.2808 106.64C96.5681 106.785 96.9511 106.833 97.3341 106.833ZM98.9141 96.3343C98.7704 96.3343 98.6747 96.3343 98.531 96.3824C98.3874 96.4306 98.2917 96.4788 98.148 96.5269C98.0523 96.6232 97.9565 96.7196 97.8608 96.864C97.765 97.0085 97.765 97.153 97.765 97.3938C97.765 97.6346 97.8608 97.9235 98.0044 98.3088C98.148 98.6941 98.3395 99.1275 98.6268 99.6091C98.6747 99.6573 98.7226 99.7054 98.7704 99.7536C98.8183 99.7536 98.8662 99.7536 98.9619 99.7055C99.2492 99.561 99.4886 99.4165 99.6322 99.2239C99.7759 99.0794 99.9195 98.8867 100.015 98.7423C100.111 98.5978 100.159 98.4051 100.207 98.2607C100.255 98.1162 100.255 97.9717 100.255 97.8272C100.255 97.6346 100.207 97.4901 100.159 97.2975C100.111 97.1048 100.015 96.9604 99.9195 96.864C99.8237 96.7196 99.6801 96.6232 99.4886 96.5269C99.2971 96.3824 99.1056 96.3343 98.9141 96.3343Z" fill="white"/>
<path d="M116.485 100.621C116.485 99.3686 116.725 98.2127 117.204 97.1051C117.682 95.9974 118.353 95.0342 119.166 94.2155C119.98 93.3968 120.986 92.7225 122.135 92.2409C123.284 91.7594 124.481 91.5186 125.821 91.5186C126.54 91.5186 127.21 91.5667 127.784 91.663C128.359 91.7593 128.838 91.9038 129.269 92.0483C129.7 92.1928 129.987 92.3373 130.226 92.4336C130.466 92.5781 130.609 92.6262 130.609 92.6744C130.705 92.7707 130.753 92.8189 130.753 92.9633V95.9974C130.753 96.0455 130.753 96.0937 130.705 96.1419C130.657 96.19 130.609 96.19 130.609 96.19C130.561 96.19 130.513 96.19 130.466 96.1419C130.418 96.0937 130.37 96.0937 130.37 96.0455C130.226 95.6603 130.035 95.2268 129.795 94.7934C129.556 94.36 129.269 93.9265 128.933 93.5413C128.598 93.156 128.167 92.867 127.737 92.5781C127.258 92.3373 126.683 92.1928 126.061 92.1928C125.247 92.1928 124.529 92.3854 123.954 92.8189C123.38 93.2523 122.901 93.8302 122.518 94.6008C122.135 95.3713 121.895 96.2382 121.704 97.2495C121.512 98.2609 121.465 99.3204 121.465 100.476C121.465 101.632 121.608 102.643 121.848 103.51C122.135 104.377 122.518 105.148 123.045 105.774C123.571 106.4 124.241 106.833 125.008 107.17C125.821 107.508 126.731 107.652 127.784 107.652C128.359 107.652 128.933 107.604 129.508 107.459C130.083 107.315 130.705 107.122 131.279 106.833C131.327 106.785 131.375 106.785 131.471 106.785C131.519 106.785 131.567 106.833 131.615 106.833C131.662 106.881 131.662 106.93 131.662 106.978C131.662 107.026 131.615 107.074 131.567 107.17C130.849 107.893 129.939 108.471 128.981 108.856C128.024 109.241 126.875 109.482 125.582 109.482C124.146 109.482 122.901 109.241 121.8 108.808C120.699 108.326 119.741 107.7 118.975 106.881C118.209 106.063 117.634 105.148 117.204 104.04C116.725 103.029 116.485 101.825 116.485 100.621Z" fill="white"/>
<path d="M147.127 105.148C147.175 105.003 147.271 104.955 147.367 104.955C147.462 104.955 147.51 105.052 147.51 105.196V108.952C147.51 109.097 147.415 109.193 147.223 109.193H134.2C134.105 109.193 134.057 109.193 134.009 109.145C133.961 109.097 133.961 109.049 133.961 109.001C133.961 108.952 133.961 108.904 134.009 108.856C134.057 108.808 134.105 108.808 134.2 108.76C134.296 108.76 134.44 108.712 134.679 108.664C134.918 108.615 135.11 108.519 135.349 108.375C135.589 108.23 135.78 108.037 135.924 107.797C136.115 107.556 136.163 107.219 136.163 106.833V94.312C136.163 93.9267 136.068 93.5896 135.924 93.3488C135.732 93.108 135.541 92.9153 135.349 92.7709C135.11 92.6264 134.918 92.5301 134.679 92.4819C134.44 92.4337 134.296 92.3856 134.2 92.3856C134.105 92.3856 134.057 92.3374 134.009 92.2893C133.961 92.2411 133.961 92.1929 133.961 92.1448C133.961 92.0966 134.009 92.0485 134.009 92.0003C134.057 91.9522 134.105 91.9521 134.2 91.9521H142.339C142.435 91.9521 142.483 91.9522 142.531 92.0003C142.579 92.0485 142.579 92.0966 142.579 92.1448C142.579 92.1929 142.579 92.2411 142.531 92.2893C142.483 92.3374 142.435 92.3856 142.339 92.3856C142.244 92.3856 142.052 92.4337 141.861 92.4819C141.621 92.5301 141.43 92.6264 141.19 92.7709C140.951 92.9153 140.76 93.108 140.616 93.3488C140.424 93.5896 140.377 93.9267 140.377 94.312V107.556C140.377 107.748 140.424 107.941 140.472 108.037C140.52 108.182 140.616 108.278 140.807 108.326C140.951 108.375 141.19 108.423 141.478 108.471C141.765 108.471 142.148 108.519 142.579 108.519C143.153 108.519 143.632 108.471 144.063 108.326C144.494 108.182 144.877 107.989 145.212 107.797C145.547 107.604 145.835 107.363 146.026 107.074C146.265 106.833 146.457 106.544 146.601 106.304C146.744 106.063 146.888 105.87 146.936 105.678C147.031 105.341 147.079 105.196 147.127 105.148Z" fill="white"/>
<path d="M163.502 105.485C163.549 105.341 163.645 105.292 163.741 105.292C163.837 105.292 163.885 105.389 163.885 105.533V108.952C163.885 109.097 163.789 109.193 163.597 109.193H150.048C149.952 109.193 149.904 109.193 149.856 109.145C149.809 109.097 149.809 109.049 149.809 109.001C149.809 108.952 149.809 108.904 149.856 108.856C149.904 108.808 149.952 108.808 150.048 108.76C150.144 108.76 150.287 108.712 150.527 108.664C150.766 108.615 150.958 108.519 151.197 108.375C151.436 108.23 151.628 108.037 151.772 107.797C151.963 107.556 152.011 107.219 152.011 106.833V94.312C152.011 93.9267 151.915 93.5896 151.772 93.3488C151.58 93.108 151.389 92.9153 151.197 92.7709C151.006 92.6264 150.766 92.5301 150.527 92.4819C150.287 92.4337 150.144 92.3856 150.048 92.3856C149.952 92.3856 149.904 92.3374 149.856 92.2893C149.809 92.2411 149.809 92.1929 149.809 92.1448C149.809 92.0966 149.856 92.0485 149.856 92.0003C149.904 91.9522 149.952 91.9521 150.048 91.9521H162.496C162.688 91.9521 162.783 92.0485 162.783 92.1929V94.8417C162.783 94.9862 162.736 95.0344 162.64 95.0344C162.544 95.0344 162.448 94.9862 162.4 94.8899C162.352 94.7936 162.257 94.6009 162.113 94.3601C161.969 94.1193 161.73 93.8785 161.491 93.6377C161.203 93.3969 160.868 93.1561 160.485 92.9635C160.054 92.7709 159.576 92.6745 159.001 92.6745C158.618 92.6745 158.235 92.7227 157.9 92.7709C157.565 92.819 157.277 92.9635 157.038 93.108C156.799 93.2525 156.607 93.4451 156.511 93.6859C156.368 93.9267 156.32 94.2156 156.32 94.5528V99.9466V99.6577C156.32 99.7058 156.32 99.754 156.368 99.8022C156.416 99.8503 156.464 99.8503 156.511 99.8503H158.139C158.522 99.8503 158.857 99.754 159.097 99.6095C159.336 99.465 159.528 99.2724 159.671 99.0798C159.815 98.8871 159.911 98.6945 159.959 98.4537C160.006 98.261 160.054 98.1166 160.054 98.0203C160.054 97.9721 160.102 97.9239 160.15 97.8758C160.198 97.8276 160.246 97.8276 160.294 97.8276C160.342 97.8276 160.39 97.8758 160.437 97.8758C160.485 97.9239 160.485 97.9721 160.485 98.0203V102.403C160.485 102.451 160.485 102.547 160.437 102.547C160.39 102.595 160.342 102.595 160.294 102.595C160.246 102.595 160.198 102.595 160.15 102.547C160.102 102.499 160.054 102.451 160.054 102.403C160.054 102.306 160.006 102.162 159.959 101.969C159.911 101.777 159.815 101.584 159.671 101.343C159.528 101.151 159.336 100.958 159.097 100.814C158.857 100.669 158.522 100.573 158.139 100.573H156.511C156.464 100.573 156.416 100.573 156.368 100.621C156.32 100.669 156.32 100.717 156.32 100.765V100.621V106.544C156.32 107.171 156.607 107.604 157.134 107.941C157.661 108.278 158.427 108.423 159.384 108.423C159.863 108.423 160.246 108.375 160.629 108.23C161.012 108.086 161.347 107.941 161.634 107.748C161.922 107.556 162.209 107.363 162.448 107.122C162.688 106.882 162.879 106.641 163.023 106.448C163.166 106.256 163.31 106.063 163.406 105.87C163.406 105.678 163.502 105.533 163.502 105.485Z" fill="white"/>
<path d="M202.953 91.9041C203.001 91.9523 203.001 92.0004 203.001 92.0486C203.001 92.0968 203.001 92.1449 202.953 92.1931C202.905 92.2412 202.857 92.2894 202.761 92.2894C202.666 92.2894 202.474 92.3375 202.283 92.3857C202.043 92.4339 201.852 92.5302 201.612 92.6747C201.373 92.8191 201.181 93.0118 201.038 93.2526C200.894 93.4934 200.798 93.8305 200.798 94.2158V109.001C200.798 109.145 200.75 109.193 200.655 109.242C200.559 109.29 200.463 109.242 200.32 109.145C200.272 109.097 200.176 108.953 199.937 108.712C199.697 108.423 199.41 108.086 199.027 107.652C198.644 107.219 198.213 106.689 197.734 106.111C197.255 105.533 196.729 104.907 196.154 104.233C195.628 103.559 195.053 102.884 194.479 102.21C193.904 101.536 193.329 100.862 192.803 100.188C192.276 99.5133 191.749 98.9354 191.271 98.3575C190.792 97.7796 190.361 97.2498 189.978 96.8164C189.595 96.383 189.308 96.0458 189.116 95.7569C188.877 95.5161 188.781 95.3716 188.781 95.3716C188.733 95.3234 188.685 95.2753 188.637 95.3234C188.59 95.3234 188.59 95.3716 188.59 95.4679V106.737C188.59 107.123 188.685 107.46 188.829 107.7C189.02 107.941 189.212 108.134 189.403 108.278C189.643 108.423 189.834 108.519 190.074 108.567C190.313 108.615 190.457 108.664 190.553 108.664C190.648 108.664 190.696 108.712 190.744 108.76C190.792 108.808 190.792 108.856 190.792 108.904C190.792 108.953 190.744 109.001 190.744 109.049C190.696 109.097 190.648 109.097 190.553 109.097H185.717C185.621 109.097 185.573 109.097 185.525 109.049C185.478 109.001 185.478 108.953 185.478 108.904C185.478 108.856 185.478 108.808 185.525 108.76C185.573 108.712 185.621 108.712 185.717 108.664C185.813 108.664 186.004 108.615 186.196 108.567C186.435 108.519 186.627 108.423 186.866 108.278C187.105 108.134 187.297 107.941 187.441 107.7C187.632 107.46 187.68 107.123 187.68 106.737V94.2158C187.68 93.8305 187.584 93.4934 187.441 93.2526C187.249 93.0118 187.057 92.8191 186.866 92.6747C186.627 92.5302 186.435 92.4339 186.196 92.3857C185.956 92.3375 185.813 92.2894 185.717 92.2894C185.621 92.2894 185.573 92.2412 185.525 92.1931C185.478 92.1449 185.478 92.0968 185.478 92.0486C185.478 92.0004 185.525 91.9523 185.525 91.9041C185.573 91.856 185.621 91.856 185.717 91.856H190.792C191.079 91.856 191.271 91.9523 191.414 92.1449C191.558 92.3375 191.797 92.6265 192.132 93.0118C192.468 93.3971 192.803 93.8305 193.234 94.3121C193.665 94.7937 194.095 95.3234 194.574 95.9014C195.053 96.4793 195.532 97.0572 196.011 97.5869C196.489 98.1649 196.92 98.6946 197.351 99.2244C197.782 99.7541 198.165 100.188 198.5 100.621C198.835 101.006 199.123 101.343 199.314 101.584C199.506 101.825 199.649 101.969 199.649 101.969C199.697 102.018 199.793 102.066 199.793 102.066C199.841 102.066 199.841 102.018 199.841 101.921V94.2639C199.841 93.8787 199.745 93.5415 199.601 93.3007C199.41 93.0599 199.218 92.8673 199.027 92.7228C198.835 92.5784 198.596 92.482 198.357 92.4339C198.117 92.3857 197.974 92.3376 197.878 92.3376C197.782 92.3376 197.734 92.2894 197.686 92.2412C197.638 92.1931 197.638 92.1449 197.638 92.0968C197.638 92.0486 197.686 92.0004 197.686 91.9523C197.734 91.9041 197.782 91.9041 197.878 91.9041H202.713C202.857 91.856 202.905 91.856 202.953 91.9041Z" fill="white"/>
<path d="M183.945 108.856C183.897 108.808 183.849 108.76 183.801 108.76C183.562 108.711 183.322 108.663 183.083 108.519C182.843 108.423 182.652 108.278 182.413 108.085C182.221 107.893 182.03 107.652 181.838 107.411C181.646 107.122 181.503 106.833 181.407 106.448C181.359 106.255 181.216 105.918 181.072 105.388C180.928 104.859 180.689 104.233 180.45 103.51C180.21 102.788 179.923 101.969 179.636 101.102C179.348 100.235 179.061 99.3685 178.774 98.4535C178.487 97.5866 178.199 96.7198 177.912 95.9011C177.625 95.0823 177.385 94.3118 177.194 93.6857C176.955 93.0596 176.667 92.1446 176.667 92.0965C176.619 92.0001 176.571 91.9038 176.524 91.9038C176.476 91.9038 176.476 91.9038 176.428 91.9038H173.268C173.172 91.9038 173.076 91.952 173.029 92.0001C172.981 92.0483 172.933 92.1446 172.885 92.2409C172.885 92.2891 172.693 92.7225 172.55 93.156C172.406 93.5412 172.215 94.071 172.023 94.7452C171.784 95.3713 171.544 96.1418 171.257 96.9606C170.97 97.7793 170.683 98.6461 170.347 99.513C170.06 100.38 169.725 101.247 169.438 102.114C169.15 102.981 168.863 103.751 168.624 104.473C168.384 105.196 168.193 105.774 168.001 106.255C167.81 106.737 167.714 107.026 167.666 107.17C167.571 107.411 167.427 107.652 167.283 107.845C167.14 108.037 166.948 108.182 166.804 108.326C166.613 108.471 166.421 108.567 166.23 108.663C166.038 108.76 165.799 108.808 165.56 108.904C165.512 108.904 165.464 108.952 165.416 109C165.368 109.049 165.368 109.097 165.368 109.145C165.368 109.193 165.416 109.241 165.416 109.241C165.416 109.241 165.512 109.289 165.56 109.289H170.3C170.347 109.289 170.395 109.289 170.443 109.241C170.491 109.193 170.491 109.145 170.539 109.097C170.539 109.049 170.539 109 170.491 108.952C170.443 108.904 170.395 108.856 170.347 108.856C170.204 108.808 170.06 108.76 169.869 108.711C169.677 108.663 169.486 108.567 169.342 108.471C169.15 108.374 169.055 108.182 168.959 107.989C168.863 107.796 168.863 107.556 168.911 107.219C168.911 107.17 168.959 107.026 169.007 106.833C169.055 106.641 169.15 106.4 169.246 106.111C169.342 105.822 169.438 105.533 169.534 105.196C169.629 104.859 169.725 104.57 169.821 104.233C169.917 103.944 170.012 103.655 170.06 103.414C170.108 103.173 170.204 102.981 170.204 102.884C170.252 102.836 170.3 102.788 170.347 102.788H175.853C175.901 102.788 175.949 102.836 175.997 102.884C175.997 102.932 176.045 103.029 176.093 103.173C176.141 103.366 176.236 103.558 176.284 103.799C176.38 104.04 176.428 104.329 176.524 104.618C176.619 104.907 176.715 105.196 176.811 105.437C176.907 105.726 176.954 105.966 177.05 106.159C177.146 106.4 177.194 106.544 177.242 106.641C177.385 107.074 177.385 107.411 177.29 107.652C177.194 107.893 177.002 108.134 176.811 108.278C176.619 108.423 176.38 108.567 176.188 108.615C175.949 108.663 175.805 108.711 175.758 108.76C175.662 108.808 175.614 108.808 175.566 108.856C175.518 108.904 175.518 108.952 175.518 109C175.518 109.049 175.566 109.097 175.614 109.145C175.662 109.193 175.71 109.193 175.758 109.193H183.753C183.849 109.193 183.897 109.193 183.945 109.145C183.992 109.097 183.992 109.049 184.04 109C183.992 108.904 183.945 108.856 183.945 108.856ZM175.47 101.873H170.635C170.539 101.873 170.491 101.825 170.539 101.728C170.635 101.439 170.73 101.054 170.922 100.573C171.066 100.091 171.209 99.5612 171.401 99.0314C171.592 98.5017 171.736 97.9238 171.927 97.394C172.119 96.8161 172.263 96.3345 172.406 95.8529C172.55 95.4195 172.646 95.0342 172.741 94.7452C172.837 94.4563 172.885 94.3118 172.885 94.2636C172.885 94.2155 172.933 94.1673 172.981 94.1673C173.029 94.1673 173.076 94.1673 173.076 94.2636C173.076 94.2636 173.124 94.3599 173.172 94.6007C173.22 94.7934 173.316 95.0823 173.459 95.4195C173.555 95.7566 173.699 96.1419 173.842 96.6234C173.986 97.0569 174.13 97.4903 174.273 97.9719C174.417 98.4535 174.561 98.8869 174.704 99.3204C174.848 99.7538 174.992 100.187 175.087 100.524C175.183 100.861 175.279 101.15 175.375 101.391C175.422 101.632 175.47 101.728 175.518 101.777C175.614 101.825 175.566 101.873 175.47 101.873Z" fill="white"/>
</svg>
