<?xml version="1.0" encoding="utf-8"?>
<!-- Generator: Adobe Illustrator 22.1.0, SVG Export Plug-In . SVG Version: 6.00 Build 0)  -->
<svg version="1.1" id="Capa_1" xmlns="http://www.w3.org/2000/svg" xmlns:xlink="http://www.w3.org/1999/xlink" x="0px" y="0px"
	 viewBox="0 0 252 96" style="enable-background:new 0 0 252 96;" xml:space="preserve">
<style type="text/css">
	.st0{fill:#FFFFFF;}
</style>
<g>
	<g>
		<g>
			<path class="st0" d="M26.7,91H0.1c-0.2,0-0.4-0.2-0.4-0.4c0-0.2,0.2-0.4,0.4-0.4h26.6c0.2,0,0.4,0.2,0.4,0.4
				C27.1,90.8,26.9,91,26.7,91z"/>
		</g>
		<g>
			<path class="st0" d="M251.9,91h-26.6c-0.2,0-0.4-0.2-0.4-0.4c0-0.2,0.2-0.4,0.4-0.4h26.6c0.2,0,0.4,0.2,0.4,0.4
				C252.4,90.8,252.2,91,251.9,91z"/>
		</g>
	</g>
	<g>
		<path class="st0" d="M33.4,95.1v-8.9c0-0.2,0.2-0.4,0.4-0.4H40c0.2,0,0.3,0.2,0.3,0.3c0,0.2-0.2,0.3-0.3,0.3h-5.9v3.8h5.2
			c0.2,0,0.3,0.2,0.3,0.3c0,0.2-0.2,0.3-0.3,0.3h-5.2v3.9h5.9c0.2,0,0.3,0.2,0.3,0.3c0,0.2-0.2,0.3-0.3,0.3h-6.3
			C33.6,95.4,33.4,95.3,33.4,95.1z"/>
		<path class="st0" d="M47.7,90.6L47.7,90.6c0-2.7,1.9-5,4.9-5c2.9,0,4.8,2.3,4.8,4.9v0c0,1.3-0.5,2.5-1.3,3.4l1.1,0.9
			c0.1,0.1,0.2,0.2,0.2,0.3c0,0.2-0.2,0.4-0.4,0.4c-0.1,0-0.2-0.1-0.3-0.1l-1.1-1c-0.8,0.7-1.9,1.1-3.1,1.1
			C49.6,95.6,47.7,93.3,47.7,90.6z M53.3,92.3c0-0.2,0.2-0.4,0.4-0.4c0.1,0,0.2,0.1,0.3,0.1l1.6,1.4c0.7-0.8,1-1.8,1-2.9v0
			c0-2.4-1.7-4.3-4.1-4.3c-2.4,0-4.1,1.9-4.1,4.3v0c0,2.4,1.7,4.3,4.1,4.3c1,0,1.9-0.3,2.6-0.9l-1.6-1.4
			C53.4,92.6,53.3,92.5,53.3,92.3z"/>
		<path class="st0" d="M65.2,91.4v-5.3c0-0.2,0.2-0.4,0.4-0.4c0.2,0,0.4,0.2,0.4,0.4v5.2c0,2.3,1.2,3.6,3.3,3.6c2,0,3.2-1.2,3.2-3.5
			v-5.3c0-0.2,0.2-0.4,0.4-0.4c0.2,0,0.3,0.2,0.3,0.4v5.2c0,2.8-1.6,4.2-3.9,4.2C66.8,95.6,65.2,94.1,65.2,91.4z"/>
		<path class="st0" d="M81.3,86.1c0-0.2,0.2-0.4,0.4-0.4c0.2,0,0.4,0.2,0.4,0.4v9c0,0.2-0.2,0.4-0.4,0.4c-0.2,0-0.4-0.2-0.4-0.4
			V86.1z"/>
		<path class="st0" d="M90.5,86.2c0-0.2,0.2-0.4,0.4-0.4H94c2.1,0,3.6,1.1,3.6,2.9v0c0,2-1.7,3.1-3.8,3.1h-2.6v3.3
			c0,0.2-0.2,0.4-0.4,0.4c-0.2,0-0.4-0.2-0.4-0.4V86.2z M93.8,91.2c1.8,0,3-0.9,3-2.4v0c0-1.5-1.2-2.3-2.9-2.3h-2.7v4.7H93.8z"/>
		<path class="st0" d="M103.6,95l4.1-8.9c0.1-0.2,0.2-0.3,0.5-0.3h0c0.3,0,0.4,0.1,0.5,0.3l4.1,8.9c0,0.1,0.1,0.2,0.1,0.2
			c0,0.2-0.2,0.3-0.3,0.3c-0.2,0-0.3-0.1-0.4-0.3l-1.1-2.5h-5.7l-1.1,2.5c-0.1,0.2-0.2,0.3-0.3,0.3c-0.2,0-0.3-0.1-0.3-0.3
			C103.5,95.1,103.5,95,103.6,95z M110.7,92.1l-2.5-5.6l-2.5,5.6H110.7z"/>
		<path class="st0" d="M120.5,86.1c0-0.2,0.2-0.4,0.4-0.4h0.1c0.2,0,0.3,0.1,0.4,0.2l3.7,5.5l3.8-5.5c0.1-0.1,0.2-0.2,0.4-0.2h0.1
			c0.2,0,0.4,0.2,0.4,0.4v9c0,0.2-0.2,0.4-0.4,0.4c-0.2,0-0.4-0.2-0.4-0.4v-8l-3.5,5.1c-0.1,0.1-0.2,0.2-0.3,0.2
			c-0.1,0-0.2-0.1-0.3-0.2l-3.5-5.1v8.1c0,0.2-0.2,0.3-0.3,0.3c-0.2,0-0.4-0.1-0.4-0.3V86.1z"/>
		<path class="st0" d="M138.1,86.1c0-0.2,0.2-0.4,0.4-0.4c0.2,0,0.4,0.2,0.4,0.4v9c0,0.2-0.2,0.4-0.4,0.4c-0.2,0-0.4-0.2-0.4-0.4
			V86.1z"/>
		<path class="st0" d="M147.2,95.1v-8.9c0-0.2,0.2-0.4,0.4-0.4h6.2c0.2,0,0.3,0.2,0.3,0.3c0,0.2-0.2,0.3-0.3,0.3h-5.8v3.8h5.2
			c0.2,0,0.3,0.2,0.3,0.3c0,0.2-0.2,0.3-0.3,0.3h-5.2v3.9h5.9c0.2,0,0.3,0.2,0.3,0.3c0,0.2-0.2,0.3-0.3,0.3h-6.3
			C147.4,95.4,147.2,95.3,147.2,95.1z"/>
		<path class="st0" d="M161.9,86.1c0-0.2,0.2-0.4,0.4-0.4h0.1c0.2,0,0.3,0.1,0.4,0.2l6.5,8.2v-8.1c0-0.2,0.2-0.3,0.3-0.3
			c0.2,0,0.3,0.1,0.3,0.3v9.1c0,0.2-0.1,0.3-0.3,0.3h-0.1c-0.1,0-0.2-0.1-0.4-0.2l-6.6-8.4v8.3c0,0.2-0.2,0.3-0.3,0.3
			c-0.2,0-0.3-0.1-0.3-0.3V86.1z"/>
		<path class="st0" d="M180.9,86.5h-3.1c-0.2,0-0.3-0.2-0.3-0.3c0-0.2,0.1-0.3,0.3-0.3h6.9c0.2,0,0.3,0.2,0.3,0.3
			c0,0.2-0.2,0.3-0.3,0.3h-3.1v8.6c0,0.2-0.2,0.4-0.4,0.4c-0.2,0-0.4-0.2-0.4-0.4V86.5z"/>
		<path class="st0" d="M191.5,90.6L191.5,90.6c0-2.7,1.9-5,4.8-5c2.9,0,4.8,2.3,4.8,4.9v0c0,2.6-1.9,5-4.8,5
			C193.4,95.6,191.5,93.3,191.5,90.6z M200.4,90.6L200.4,90.6c0-2.4-1.7-4.4-4.1-4.4c-2.4,0-4.1,1.9-4.1,4.3v0
			c0,2.4,1.7,4.3,4.1,4.3C198.7,94.9,200.4,93,200.4,90.6z"/>
		<path class="st0" d="M208.6,94.2c-0.1-0.1-0.1-0.1-0.1-0.3c0-0.2,0.2-0.4,0.4-0.4c0.1,0,0.2,0,0.2,0.1c1,0.9,1.9,1.3,3.2,1.3
			c1.4,0,2.4-0.8,2.4-1.9v0c0-1-0.5-1.6-2.7-2c-2.3-0.5-3.2-1.3-3.2-2.7v0c0-1.4,1.3-2.5,3.1-2.5c1.3,0,2.2,0.3,3.1,1
			c0.1,0.1,0.2,0.2,0.2,0.3c0,0.2-0.2,0.4-0.4,0.4c-0.1,0-0.2,0-0.2-0.1c-0.8-0.6-1.7-0.9-2.7-0.9c-1.4,0-2.3,0.8-2.3,1.8v0
			c0,1,0.5,1.6,2.8,2.1c2.2,0.5,3.2,1.3,3.2,2.6v0c0,1.5-1.3,2.6-3.2,2.6C210.8,95.6,209.7,95.1,208.6,94.2z"/>
	</g>
	<path class="st0" d="M222.2,0.3h-23.3l-29.6,70.8h25.1l3.6-9.4h24.6l3.7,9.4h25.5L222.2,0.3z M203.9,45l6.4-17.1l6.4,17.1H203.9z"
		/>
	<path class="st0" d="M78.9,0.3L49.3,71.1h25.1l3.6-9.4h24.6l3.7,9.4h11.8V38.4l-16-38.2H78.9z M83.9,45l6.4-17.1L96.8,45H83.9z"/>
	<path class="st0" d="M37.1,25.7c-7.4-1.4-9.3-2.6-9.3-4.5V21c0-1.7,1.6-2.9,5.1-2.9c6.5,0,14.5,2.1,21.1,6.9L65.5,9.1
		c-8.1-6.4-18.4-8.8-31.9-8.8C14.2,0.3,3.9,9.8,3.9,23.2v0.2c0,14.9,13.9,19.4,29.6,22.6c7.5,1.5,9.7,2.6,9.7,4.6v0.2
		c0,1.9-1.8,3-6,3c-8.2,0-17-2.4-24.6-8.2l-12.6,15C9,68.4,22.4,71.1,36.6,71.1c3.7,0,7.1-0.3,10.2-1l0.5-1.3L61.6,35
		C56.3,30.3,47.8,27.6,37.1,25.7z"/>
	<path class="st0" d="M171.9,34.3c7.5-2.6,12.6-7.7,12.6-16.1V18c0-4.8-1.8-8.4-4.3-11c-4.1-4.1-10.2-6.3-20-6.3h-39.4v70.3h39
		c2.5,0,4.7-0.2,6.9-0.5l0.2-0.5l13.4-32C177.9,36.5,175.1,35.3,171.9,34.3z M136.9,13.3h15.2h0.7c7.4,0.4,13.4,6,14.6,13.2
		c0,0.2,0.1,0.4,0.1,0.6c0,0.9-0.7,1.6-1.6,1.6c0,0-0.2,0-0.3,0c-0.1,0-0.3,0-0.4,0c-0.4-0.1-0.8-0.4-1-0.9c0,0,0,0,0,0
		c-1.4-4.6-7.8-7.5-17.1-7.5c-0.8,0-1.5,0.7-1.5,1.5c0,0.8,0.7,1.5,1.5,1.5c4.4,0,9,0.8,11.8,2.6c0.1,0.1,0.2,0.2,0.4,0.3
		c0.3,0.3,0.5,0.7,0.5,1.1c0,0.7-0.5,1.4-1.2,1.5c-0.1,0-0.2,0-0.3,0c-0.1,0-5.4,0-5.4,0c-0.2,0-0.5,0-0.7,0
		c-8.4,0-15.2-6.8-15.5-15.2C136.6,13.4,136.8,13.3,136.9,13.3z M167.3,58.1H152h-0.7c-7.4-0.4-13.4-6-14.6-13.3
		c0-0.2-0.1-0.4-0.1-0.6c0-0.9,0.7-1.6,1.6-1.6c0,0,0.2,0,0.4,0c0.1,0,0.2,0,0.4,0c0.4,0.1,0.8,0.4,1,0.9c0,0,0,0,0,0
		c1.4,4.6,7.8,7.5,17.1,7.5c0.8,0,1.5-0.7,1.5-1.5c0-0.8-0.7-1.5-1.5-1.5c-4.4,0-9-0.8-11.8-2.6c-0.1-0.1-0.2-0.2-0.4-0.2
		c-0.3-0.3-0.5-0.7-0.5-1.1c0-0.7,0.5-1.4,1.2-1.5c0.1,0,0.2,0,0.3,0c0.1,0,5.5,0,5.5,0c0.2,0,0.5,0,0.7,0c8.4,0,15.3,6.8,15.6,15.3
		C167.6,58,167.5,58.1,167.3,58.1z"/>
</g>
</svg>
