<svg width="358" height="201" viewBox="0 0 358 201" fill="none" xmlns="http://www.w3.org/2000/svg">
<path d="M178.071 120.904C178.071 120.904 177.311 120.904 175.791 120.904C174.272 120.904 172.076 120.736 169.206 120.4C166.335 119.979 162.789 119.307 158.736 117.961C154.683 116.616 150.208 114.598 145.648 111.571C143.369 110.058 141.005 108.376 138.725 106.359C136.445 104.341 134.165 102.155 132.055 99.5482C127.833 94.5036 123.864 88.3659 121.163 81.1352C118.376 73.9886 116.772 65.7489 116.941 57.0889C117.11 48.2607 119.727 39.1803 124.624 30.8566C129.606 22.5329 136.867 15.2181 145.817 9.83712C154.767 4.37205 165.406 0.924857 176.467 0.168156C177.902 0.0840779 179.169 0.0840779 180.689 0C182.04 0 183.306 0 184.826 0.0840779C187.781 0.168156 190.483 0.588545 193.354 1.09301C196.224 1.59748 199.011 2.35418 201.797 3.27904C204.583 4.2039 207.285 5.38099 209.903 6.72623C220.457 12.1072 229.491 21.2717 234.811 32.37C237.513 37.9191 239.37 43.8887 240.299 50.1104C241.143 56.3322 241.397 62.4699 240.299 68.9439C239.201 75.2497 237.006 81.4715 233.713 87.0206C230.336 92.5698 226.03 97.6145 221.048 101.734C211 110.058 198.166 115.019 185.079 115.943C172.076 116.952 158.229 113.841 147.253 106.106C141.764 102.323 136.952 97.4463 133.237 91.8972C129.522 86.348 126.904 80.1262 125.384 73.6523C124.624 70.4573 124.202 67.1783 123.949 63.8992C123.864 63.0584 123.864 62.3017 123.864 61.461V60.1998V59.8635V59.4431V58.8545C123.864 58.0978 123.864 57.4252 123.949 56.5004C124.033 55.6596 124.118 54.7347 124.202 53.8939C125.047 47.2518 127.411 40.8619 130.788 35.2286C137.712 23.8781 148.688 15.8066 160.762 11.6868C166.757 9.58488 173.09 8.49187 179.422 8.40779H180.689H181.786C182.546 8.40779 183.222 8.40779 184.066 8.49187C185.755 8.57595 187.274 8.82818 188.794 8.99634C191.918 9.5008 194.958 10.2575 197.913 11.3505C203.824 13.4525 209.227 16.7315 213.787 20.9354C218.346 25.1393 221.892 30.184 224.425 35.565C226.958 40.9459 228.478 46.7473 229.069 52.4646C229.407 55.3233 229.491 58.1819 229.407 61.0406V62.0495L229.323 63.1425C229.238 63.8992 229.154 64.6559 229.069 65.3285C228.9 66.7579 228.563 68.1872 228.225 69.5324C226.79 75.0816 224.172 80.2103 220.795 84.5824C217.417 88.9544 213.28 92.5698 208.89 95.4284C199.94 101.062 189.723 103.668 179.929 103.416C170.219 103.164 160.931 100.137 153.839 94.924C146.662 89.7952 141.596 82.6486 138.978 75.3338C137.627 71.6344 136.867 67.935 136.53 64.4037C136.276 60.7883 136.361 57.2571 137.036 53.978C138.472 47.4199 141.596 41.9549 144.973 37.6669C148.435 33.3789 152.234 30.184 155.781 27.9139C159.411 25.6438 162.789 24.2985 165.575 23.4577C168.361 22.701 170.641 22.4488 172.076 22.3647C172.836 22.2806 173.427 22.3647 173.765 22.2806C174.187 22.2806 174.356 22.2806 174.356 22.2806C174.356 22.2806 174.187 22.2806 173.765 22.2806C173.427 22.2806 172.836 22.2806 172.076 22.4488C170.556 22.617 168.361 22.9533 165.659 23.8781C162.957 24.803 159.664 26.3164 156.287 28.6706C152.91 31.0247 149.364 34.3038 146.155 38.5918C143.031 42.8797 140.245 48.1766 139.147 54.3984C138.134 60.5361 138.978 67.5986 141.68 74.3249C144.382 81.0511 149.279 87.3569 156.034 91.8131C162.789 96.2692 171.148 98.8756 180.013 98.8756C188.794 98.8756 197.998 96.2692 205.85 91.0564C213.618 85.8436 220.035 77.8561 222.146 68.2713C222.399 67.0942 222.652 65.9171 222.821 64.6559C222.906 64.0674 222.99 63.4788 222.99 62.8903L223.074 62.0495V61.0406C223.074 58.5182 222.99 55.9959 222.652 53.4736C221.977 48.4289 220.541 43.3842 218.262 38.7599C213.702 29.5113 205.597 21.9443 195.465 18.4971C185.417 15.0499 173.765 15.4703 163.38 19.2538C152.91 22.9533 143.538 30.184 137.796 39.6848C134.925 44.3931 132.983 49.69 132.392 55.1551C132.308 55.8277 132.308 56.5004 132.223 57.0889C132.139 57.6774 132.139 58.6023 132.139 59.2749V59.8635C132.139 60.0316 132.139 59.9476 132.139 60.0316V60.2839V61.3769C132.139 62.0495 132.139 62.8062 132.223 63.4788C132.392 66.3375 132.814 69.112 133.49 71.8866C134.841 77.4358 137.036 82.6486 140.16 87.357C143.284 92.0653 147.337 96.1011 151.981 99.296C156.625 102.491 161.86 104.929 167.432 106.274C170.219 106.947 173.005 107.452 175.876 107.704L177.987 107.872L180.266 107.956C181.533 107.956 183.137 107.956 184.488 107.788C195.971 107.031 207.116 102.743 215.813 95.5966C224.51 88.45 230.674 78.4447 232.531 67.6827C232.784 66.3375 232.953 64.9922 233.038 63.647C233.207 62.4699 233.207 60.7043 233.207 59.5272C233.207 56.7526 233.038 53.978 232.616 51.2875C231.856 45.8225 230.336 40.5256 227.972 35.649C223.412 25.896 215.644 17.9086 206.441 12.948C204.161 11.6868 201.797 10.6779 199.349 9.75304C196.9 8.91226 194.451 8.15556 191.918 7.65109C189.385 7.14662 186.768 6.72623 184.319 6.64216C183.137 6.474 181.702 6.55808 180.351 6.474C179.253 6.474 177.818 6.474 176.636 6.55808C156.372 7.48293 137.965 18.4131 128.593 33.463C123.864 40.9459 121.331 49.3537 120.825 57.3411C120.318 65.4967 121.585 73.3159 123.949 80.2103C126.313 87.1888 129.775 93.1583 133.743 98.203C135.685 100.725 137.796 102.995 139.907 105.013C142.018 107.031 144.213 108.797 146.408 110.31C155.105 116.532 163.464 118.97 169.037 120.063C171.907 120.568 174.103 120.82 175.623 120.904C177.311 120.904 178.071 120.904 178.071 120.904Z" fill="black"/>
<path d="M38.3823 200.899V188.845H39.6974V199.694H45.8684V200.799H38.3823V200.899Z" fill="black"/>
<path d="M58.6145 200.899L57.6029 198.187H52.3425L51.3308 200.899H49.9146L54.3657 188.845H55.5797L60.0308 200.899H58.6145ZM55.0738 190.753L52.8483 197.082H57.4006L55.0738 190.753Z" fill="black"/>
<path d="M68.1245 200.899H67.1128L63.1675 188.845H64.4826L67.6186 198.589L70.7547 188.845H72.0698L68.1245 200.899Z" fill="black"/>
<path d="M83.9041 200.899L82.8925 198.187H77.632L76.6204 200.899H75.2041L79.6553 188.845H80.7681L85.2192 200.899H83.9041ZM80.2622 190.753L78.0367 197.082H82.589L80.2622 190.753Z" fill="black"/>
<path d="M98.2699 200.899L91.8967 191.256V200.899H90.5815V188.845H91.7955L98.1688 198.488V188.845H99.4839V200.899H98.2699Z" fill="black"/>
<path d="M113.65 199.794C112.942 200.497 111.829 200.899 110.615 200.899H106.467V188.845H110.615C111.829 188.845 112.942 189.247 113.65 189.95C114.864 191.155 114.864 193.064 114.864 194.671C114.763 196.379 114.864 198.488 113.65 199.794ZM112.739 190.854C112.132 190.251 111.323 189.95 110.311 189.95H107.681V199.694H110.311C111.222 199.694 112.031 199.493 112.739 198.79C113.549 197.886 113.549 196.178 113.549 194.671C113.549 193.265 113.549 191.758 112.739 190.854Z" fill="black"/>
<path d="M121.233 200.899V188.845H128.719V189.95H122.549V194.169H127.809V195.274H122.549V199.593H128.719V200.698H121.233V200.899Z" fill="black"/>
<path d="M141.771 200.899L139.04 195.575H136.106V200.899H134.791V188.845H139.444C141.569 188.845 142.985 190.151 142.985 192.16C142.985 193.867 141.872 195.073 140.355 195.374L143.188 200.799H141.771V200.899ZM139.343 190.05H136.106V194.47H139.343C140.76 194.47 141.771 193.767 141.771 192.26C141.771 190.753 140.76 190.05 139.343 190.05Z" fill="black"/>
<path d="M150.066 187.74H148.954L150.471 185.128H151.887L150.066 187.74ZM149.358 200.899V188.845H150.673V200.899H149.358Z" fill="black"/>
<path d="M164.633 200.899L163.621 198.187H158.361L157.349 200.899H155.933L160.384 188.845H161.497L165.948 200.899H164.633ZM160.991 190.753L158.766 197.082H163.318L160.991 190.753Z" fill="black"/>
<path d="M183.956 200.899V188.845H185.271V200.899H183.956Z" fill="black"/>
<path d="M199.839 200.899L193.466 191.256V200.899H192.15V188.845H193.364L199.738 198.488V188.845H201.053V200.899H199.839Z" fill="black"/>
<path d="M211.472 190.05V200.899H210.156V190.05H206.616V188.945H214.911V190.05H211.472Z" fill="black"/>
<path d="M220.677 200.899V188.845H228.163V189.95H221.992V194.169H227.252V195.274H221.992V199.593H228.163V200.698H220.677V200.899Z" fill="black"/>
<path d="M234.232 200.899V188.845H235.548V199.694H241.718V200.799H234.232V200.899Z" fill="black"/>
<path d="M247.382 200.899V188.845H248.697V200.899H247.382Z" fill="black"/>
<path d="M262.56 199.593C261.75 200.498 260.537 201 259.323 201C258.109 201 257.097 200.598 256.186 199.794C255.074 198.689 255.074 197.484 255.074 194.973C255.074 192.461 255.074 191.256 256.186 190.151C256.996 189.347 258.109 188.945 259.323 188.945C261.649 188.945 263.167 190.452 263.571 192.562H262.256C261.953 191.055 260.84 190.151 259.323 190.151C258.513 190.151 257.805 190.452 257.198 191.055C256.389 191.858 256.389 192.662 256.389 195.173C256.389 197.685 256.49 198.488 257.198 199.292C257.704 199.794 258.513 200.096 259.323 200.096C260.233 200.096 261.042 199.694 261.649 199.091C262.155 198.488 262.357 197.886 262.357 196.881V195.977H259.424V194.872H263.673V196.781C263.571 197.886 263.268 198.79 262.56 199.593Z" fill="black"/>
<path d="M270.047 200.899V188.845H277.533V189.95H271.362V194.169H276.623V195.274H271.362V199.593H277.533V200.698H270.047V200.899Z" fill="black"/>
<path d="M291.291 200.899L284.918 191.256V200.899H283.603V188.845H284.817L291.19 198.488V188.845H292.505V200.899H291.291Z" fill="black"/>
<path d="M303.026 190.05V200.899H301.711V190.05H298.17V188.945H306.465V190.05H303.026Z" fill="black"/>
<path d="M312.128 200.899V188.845H319.614V189.95H313.443V194.169H318.704V195.274H313.443V199.593H319.614V200.698H312.128V200.899Z" fill="black"/>
<path d="M0 169.744V161.756C0 161.504 0.0844341 161.336 0.253302 161.336C0.42217 161.336 0.591039 161.42 0.675473 161.588C1.18208 162.849 1.77312 163.858 2.44859 164.867C3.12406 165.792 3.79953 166.633 4.55944 167.221C5.31935 167.894 6.16369 168.314 7.09246 168.651C8.02124 168.987 9.03445 169.155 10.2165 169.155C10.892 169.155 11.483 169.071 12.0741 168.903C12.6651 168.735 13.1717 168.399 13.5939 167.978C14.0161 167.558 14.3538 167.053 14.6071 166.465C14.8604 165.876 15.0293 165.119 15.0293 164.195C15.0293 163.354 14.8604 162.597 14.6071 162.009C14.2694 161.336 13.8472 160.832 13.3406 160.327C12.834 159.823 12.2429 159.402 11.5675 159.066C10.892 158.73 10.2165 158.393 9.54105 158.057C8.78115 157.721 8.02124 157.384 7.26133 157.048C6.50143 156.712 5.82595 156.291 5.15048 155.871C4.47501 155.451 3.88397 154.946 3.29293 154.358C2.70189 153.769 2.27972 153.096 1.85755 152.34C1.51981 151.667 1.26651 150.994 1.09764 150.322C0.928775 149.649 0.844341 148.892 0.844341 148.22C0.844341 147.127 1.01321 146.118 1.43538 145.025C1.77312 143.932 2.44859 143.007 3.29293 142.082C4.13727 141.241 5.23491 140.485 6.67029 139.98C8.10567 139.476 9.70992 139.139 11.7363 139.139C13.0028 139.139 14.1005 139.223 15.0293 139.476C15.958 139.728 16.718 139.896 17.3934 140.148C17.9845 140.401 18.4911 140.653 18.8288 140.821C19.1665 141.073 19.3354 141.157 19.4198 141.241C19.5887 141.41 19.6731 141.494 19.6731 141.746V145.782C19.6731 145.866 19.6731 145.95 19.5887 146.034C19.5043 146.118 19.4198 146.118 19.4198 146.118C19.3354 146.118 19.251 146.118 19.1665 146.034C19.0821 146.034 18.9977 145.95 18.9977 145.782C18.7444 145.109 18.4066 144.436 17.9845 143.764C17.5623 143.091 17.1401 142.503 16.5491 141.998C15.958 141.494 15.1981 141.073 14.3538 140.737C13.5095 140.401 12.4962 140.232 11.3142 140.232C9.79435 140.232 8.52784 140.569 7.6835 141.325C6.83916 142.082 6.41699 143.007 6.41699 144.268C6.41699 145.025 6.50143 145.613 6.75473 146.118C7.00803 146.622 7.4302 147.127 8.02124 147.631C8.61228 148.136 9.37218 148.556 10.301 149.061C11.2297 149.565 12.4962 150.07 13.9316 150.658C15.367 151.247 16.5491 151.835 17.6467 152.508C18.7444 153.18 19.5887 153.937 20.3486 154.694C21.1085 155.535 21.6151 156.459 21.9529 157.468C22.2906 158.477 22.5439 159.654 22.5439 161C22.5439 162.345 22.2906 163.522 21.8684 164.699C21.3618 165.876 20.6864 166.885 19.6731 167.726C18.6599 168.567 17.4779 169.239 15.958 169.744C14.4382 170.248 12.7495 170.5 10.7231 170.5C9.45662 170.5 8.19011 170.332 6.9236 169.996C5.65708 169.66 4.47501 169.323 3.29293 168.903C3.12406 168.819 2.95519 168.819 2.78632 168.735C2.61746 168.651 2.36415 168.651 2.19529 168.651C1.85755 168.651 1.60425 168.735 1.43538 168.987C1.26651 169.239 1.09764 169.492 0.928775 169.828C0.844341 169.996 0.675473 170.164 0.506605 170.08C0.0844341 170.164 0 169.996 0 169.744Z" fill="black"/>
<path d="M52.9387 140.065V146.287C52.9387 146.539 52.8543 146.623 52.6854 146.707C52.5165 146.707 52.3477 146.623 52.2632 146.371C52.1788 146.202 52.0944 146.034 51.9255 145.698C51.7566 145.362 51.5878 145.025 51.3345 144.605C51.0812 144.185 50.7434 143.764 50.3213 143.344C49.8991 142.923 49.4769 142.503 48.9703 142.167C48.4637 141.83 47.8727 141.494 47.1972 141.242C46.5217 140.99 45.8463 140.906 45.0019 140.906C44.6642 140.906 44.3264 140.99 44.0731 141.074C43.8198 141.158 43.651 141.326 43.4821 141.494C43.3132 141.662 43.2288 141.915 43.1444 142.167C43.0599 142.419 43.0599 142.671 43.0599 142.923V165.624C43.0599 166.297 43.2288 166.886 43.4821 167.306C43.8198 167.726 44.1576 168.063 44.4953 168.315C44.9175 168.567 45.2552 168.735 45.6774 168.819C46.0996 168.904 46.3529 168.988 46.5217 168.988C46.6906 168.988 46.775 169.072 46.8595 169.156C46.9439 169.24 46.9439 169.324 46.9439 169.408C46.9439 169.492 46.8595 169.576 46.8595 169.66C46.8595 169.744 46.6906 169.744 46.5217 169.744H32.1679C31.9991 169.744 31.9146 169.744 31.8302 169.66C31.7458 169.576 31.7458 169.492 31.7458 169.408C31.7458 169.324 31.7458 169.24 31.8302 169.156C31.9146 169.072 31.9991 169.072 32.1679 168.988C32.3368 168.988 32.6745 168.904 33.0123 168.819C33.4344 168.735 33.7722 168.567 34.1943 168.315C34.6165 168.063 34.9543 167.726 35.2076 167.306C35.5453 166.886 35.6297 166.297 35.6297 165.624C35.6297 165.54 35.6297 165.12 35.6297 164.531C35.6297 163.859 35.6297 163.102 35.6297 162.177C35.6297 161.252 35.6297 160.159 35.6297 158.982C35.6297 157.805 35.6297 156.544 35.6297 155.283C35.6297 154.022 35.6297 152.761 35.6297 151.583C35.6297 150.406 35.6297 149.229 35.6297 148.22C35.6297 147.211 35.6297 146.287 35.6297 145.614C35.6297 144.857 35.6297 144.353 35.6297 144.101C35.6297 143.764 35.6297 143.344 35.6297 143.008C35.6297 142.671 35.5453 142.335 35.3764 141.999C35.292 141.746 35.0387 141.494 34.7854 141.326C34.5321 141.158 34.1099 141.074 33.6877 141.074C32.8434 141.074 32.1679 141.158 31.4925 141.41C30.817 141.662 30.2259 141.915 29.7193 142.335C29.2127 142.671 28.7061 143.092 28.3684 143.512C27.9462 143.932 27.6085 144.353 27.3552 144.773C27.1019 145.194 26.8486 145.53 26.6797 145.866C26.5108 146.202 26.4264 146.455 26.342 146.539C26.2575 146.791 26.0887 146.875 25.9198 146.875C25.7509 146.875 25.6665 146.707 25.6665 146.455V140.233C25.6665 139.981 25.8354 139.813 26.1731 139.813H52.4321C52.7698 139.644 52.9387 139.813 52.9387 140.065Z" fill="black"/>
<path d="M80.4637 142.419C80.717 141.914 80.8015 141.578 80.717 141.326C80.6326 141.074 80.5482 140.905 80.2949 140.737C80.0416 140.569 79.8727 140.485 79.535 140.485C79.2817 140.401 79.0284 140.401 78.8595 140.401C78.6906 140.401 78.6062 140.317 78.5218 140.233C78.4373 140.149 78.4373 140.065 78.4373 139.981C78.4373 139.897 78.5218 139.812 78.5218 139.728C78.6062 139.644 78.6906 139.644 78.8595 139.644H86.6274C86.7963 139.644 86.8807 139.644 86.9652 139.728C87.0496 139.812 87.0496 139.897 87.0496 139.981C87.0496 140.065 87.0496 140.149 86.9652 140.233C86.8807 140.317 86.7963 140.317 86.6274 140.401C86.3741 140.401 86.1208 140.485 85.7831 140.569C85.4454 140.653 85.1076 140.821 84.7699 140.99C84.4321 141.158 84.01 141.41 83.5878 141.746C83.1656 142.083 82.7435 142.503 82.3213 143.007C82.1524 143.26 81.8147 143.68 81.3925 144.184C80.9703 144.773 80.4637 145.362 79.9571 146.118C79.4505 146.791 78.8595 147.548 78.3529 148.304C77.7619 149.061 77.2552 149.818 76.7486 150.49C76.242 151.163 75.8199 151.752 75.4821 152.256C75.1444 152.76 74.9755 153.097 74.8911 153.181C74.7222 153.517 74.6378 153.853 74.5534 154.19C74.4689 154.526 74.4689 154.946 74.4689 155.451V165.793C74.4689 166.465 74.6378 167.054 74.8911 167.474C75.2288 167.894 75.5666 168.231 75.9043 168.483C76.3265 168.735 76.6642 168.903 77.0864 168.987C77.5086 169.072 77.7619 169.156 77.9307 169.156C78.0996 169.156 78.184 169.24 78.2685 169.324C78.3529 169.408 78.3529 169.492 78.3529 169.576C78.3529 169.66 78.2685 169.744 78.2685 169.828C78.184 169.912 78.0996 169.912 77.9307 169.912H63.9991C63.8302 169.912 63.7458 169.912 63.6614 169.828C63.5769 169.744 63.5769 169.66 63.5769 169.576C63.5769 169.492 63.5769 169.408 63.6614 169.324C63.7458 169.24 63.8302 169.24 63.9991 169.156C64.168 169.156 64.4213 169.072 64.8434 168.987C65.2656 168.903 65.6033 168.735 66.0255 168.483C66.4477 168.231 66.7854 167.894 67.0387 167.474C67.3765 167.054 67.4609 166.465 67.4609 165.793V157.469C67.4609 157.301 67.4609 157.048 67.4609 156.88C67.4609 156.712 67.4609 156.46 67.3765 156.292C67.3765 156.124 67.292 155.871 67.2076 155.703C67.1232 155.535 67.0387 155.283 66.8699 155.031C66.7854 154.862 66.6166 154.61 66.3633 154.274C66.1099 153.853 65.7722 153.433 65.4345 152.929C65.0967 152.424 64.6746 151.752 64.2524 151.163C63.8302 150.49 63.4081 149.818 62.9015 149.145C62.4793 148.472 61.9727 147.8 61.5505 147.127C61.1283 146.455 60.7062 145.866 60.284 145.278C59.9463 144.689 59.6085 144.269 59.3552 143.848C59.1019 143.428 58.9331 143.176 58.7642 142.923C58.5109 142.587 58.2576 142.251 57.9198 141.998C57.5821 141.662 57.2444 141.41 56.9066 141.242C56.5689 140.99 56.2312 140.821 55.8934 140.737C55.5557 140.569 55.218 140.485 54.9647 140.485C54.7958 140.485 54.7113 140.401 54.6269 140.317C54.5425 140.233 54.5425 140.149 54.5425 140.065C54.5425 139.981 54.6269 139.897 54.6269 139.812C54.7113 139.728 54.7958 139.728 54.9647 139.728H69.0651C69.234 139.728 69.3184 139.728 69.4029 139.812C69.4873 139.897 69.4873 139.981 69.4873 140.065C69.4873 140.149 69.4873 140.233 69.4029 140.317C69.3184 140.401 69.234 140.485 69.0651 140.485C68.8963 140.485 68.643 140.569 68.3897 140.653C68.1364 140.737 67.8831 140.821 67.6298 140.99C67.3765 141.158 67.292 141.326 67.2076 141.578C67.1232 141.83 67.2076 142.167 67.3765 142.671C67.5453 143.007 67.7142 143.428 68.0519 143.932C68.3897 144.521 68.7274 145.109 69.1496 145.782C69.5717 146.455 69.9939 147.127 70.4161 147.8C70.8383 148.472 71.2604 149.145 71.6826 149.734C72.1048 150.322 72.3581 150.827 72.6958 151.247C72.9491 151.667 73.118 151.92 73.2024 152.004C73.4557 152.256 73.6246 152.256 73.8779 152.088C73.9623 152.004 74.1312 151.751 74.4689 151.331C74.8067 150.911 75.1444 150.406 75.5666 149.734C75.9887 149.145 76.4953 148.388 77.0019 147.716C77.5085 147.043 78.0152 146.286 78.4373 145.614C78.8595 144.941 79.2817 144.353 79.6194 143.848C80.2104 143.007 80.3793 142.671 80.4637 142.419Z" fill="black"/>
<path d="M112.297 162.85C112.381 162.598 112.55 162.514 112.719 162.514C112.888 162.514 112.972 162.682 112.972 162.934V169.492C112.972 169.744 112.803 169.913 112.465 169.913H89.4993C89.3305 169.913 89.246 169.913 89.1616 169.829C89.0771 169.744 89.0771 169.66 89.0771 169.576C89.0771 169.492 89.0771 169.408 89.1616 169.324C89.246 169.24 89.3305 169.24 89.4993 169.156C89.6682 169.156 89.9215 169.072 90.3437 168.988C90.7658 168.904 91.1036 168.736 91.5257 168.483C91.9479 168.231 92.2856 167.895 92.5389 167.474C92.8767 167.054 92.9611 166.465 92.9611 165.793V143.933C92.9611 143.26 92.7922 142.671 92.5389 142.251C92.2012 141.831 91.8635 141.494 91.5257 141.242C91.188 140.99 90.7658 140.822 90.3437 140.738C89.9215 140.654 89.6682 140.569 89.4993 140.569C89.3305 140.569 89.246 140.485 89.1616 140.401C89.0771 140.317 89.0771 140.233 89.0771 140.149C89.0771 140.065 89.1616 139.981 89.1616 139.897C89.246 139.813 89.3305 139.813 89.4993 139.813H103.853C104.022 139.813 104.106 139.813 104.191 139.897C104.275 139.981 104.275 140.065 104.275 140.149C104.275 140.233 104.275 140.317 104.191 140.401C104.106 140.485 104.022 140.569 103.853 140.569C103.684 140.569 103.347 140.654 103.009 140.738C102.587 140.822 102.249 140.99 101.827 141.242C101.405 141.494 101.067 141.831 100.813 142.251C100.56 142.671 100.391 143.26 100.391 143.933V167.054C100.391 167.39 100.476 167.727 100.56 167.895C100.645 168.147 100.813 168.315 101.151 168.399C101.405 168.483 101.827 168.567 102.333 168.651C102.84 168.651 103.515 168.736 104.275 168.736C105.288 168.736 106.133 168.651 106.893 168.399C107.653 168.147 108.328 167.811 108.919 167.474C109.51 167.138 110.017 166.718 110.355 166.213C110.777 165.793 111.114 165.288 111.368 164.868C111.621 164.448 111.874 164.111 111.959 163.775C112.128 163.186 112.297 162.934 112.297 162.85Z" fill="black"/>
<path d="M141.26 163.439C141.345 163.186 141.514 163.102 141.683 163.102C141.851 163.102 141.936 163.27 141.936 163.523V169.492C141.936 169.744 141.767 169.913 141.429 169.913H117.534C117.366 169.913 117.281 169.913 117.197 169.829C117.112 169.744 117.112 169.66 117.112 169.576C117.112 169.492 117.112 169.408 117.197 169.324C117.281 169.24 117.366 169.24 117.534 169.156C117.703 169.156 117.957 169.072 118.379 168.988C118.801 168.904 119.139 168.736 119.561 168.483C119.983 168.231 120.321 167.895 120.574 167.474C120.912 167.054 120.996 166.465 120.996 165.793V143.933C120.996 143.26 120.827 142.671 120.574 142.251C120.236 141.831 119.899 141.494 119.561 141.242C119.139 140.99 118.801 140.822 118.379 140.738C117.957 140.654 117.703 140.569 117.534 140.569C117.366 140.569 117.281 140.485 117.197 140.401C117.112 140.317 117.112 140.233 117.112 140.149C117.112 140.065 117.197 139.981 117.197 139.897C117.281 139.813 117.366 139.813 117.534 139.813H139.487C139.825 139.813 139.994 139.981 139.994 140.233V144.857C139.994 145.11 139.91 145.194 139.741 145.194C139.572 145.194 139.403 145.11 139.318 144.942C139.234 144.773 139.065 144.437 138.812 144.017C138.559 143.596 138.136 143.176 137.714 142.755C137.208 142.335 136.617 141.915 135.941 141.578C135.181 141.242 134.337 141.074 133.324 141.074C132.648 141.074 131.973 141.158 131.382 141.242C130.791 141.326 130.284 141.578 129.862 141.831C129.44 142.083 129.102 142.419 128.933 142.84C128.68 143.26 128.595 143.764 128.595 144.353V153.77V153.265C128.595 153.349 128.595 153.433 128.68 153.517C128.764 153.602 128.849 153.602 128.933 153.602H131.804C132.479 153.602 133.07 153.433 133.493 153.181C133.915 152.929 134.252 152.593 134.506 152.256C134.759 151.92 134.928 151.584 135.012 151.163C135.097 150.827 135.181 150.575 135.181 150.407C135.181 150.322 135.266 150.238 135.35 150.154C135.435 150.07 135.519 150.07 135.603 150.07C135.688 150.07 135.772 150.154 135.857 150.154C135.941 150.238 135.941 150.322 135.941 150.407V158.058C135.941 158.142 135.941 158.31 135.857 158.31C135.772 158.394 135.688 158.394 135.603 158.394C135.519 158.394 135.435 158.394 135.35 158.31C135.266 158.226 135.181 158.142 135.181 158.058C135.181 157.889 135.097 157.637 135.012 157.301C134.928 156.965 134.759 156.628 134.506 156.208C134.252 155.872 133.915 155.535 133.493 155.283C133.07 155.031 132.479 154.863 131.804 154.863H128.933C128.849 154.863 128.764 154.863 128.68 154.947C128.595 155.031 128.595 155.115 128.595 155.199V154.947V165.288C128.595 166.381 129.102 167.138 130.031 167.727C130.959 168.315 132.31 168.567 133.999 168.567C134.843 168.567 135.519 168.483 136.194 168.231C136.87 167.979 137.461 167.727 137.968 167.39C138.474 167.054 138.981 166.718 139.403 166.297C139.825 165.877 140.163 165.457 140.416 165.12C140.669 164.784 140.923 164.448 141.092 164.111C141.092 163.775 141.176 163.523 141.26 163.439Z" fill="black"/>
<path d="M185.079 168.651C185.248 168.82 185.417 168.904 185.417 169.072C185.417 169.24 185.417 169.324 185.248 169.408C185.164 169.492 185.079 169.576 184.91 169.744C184.741 169.913 184.573 169.997 184.235 170.081C183.982 170.165 183.644 170.249 183.222 170.333C182.799 170.417 182.293 170.417 181.786 170.417C181.026 170.417 180.435 170.333 179.844 170.081C179.253 169.913 178.747 169.576 178.324 169.324C177.902 168.988 177.48 168.651 177.058 168.315C176.72 167.979 176.382 167.558 176.045 167.306C175.96 167.222 175.791 167.054 175.623 166.802C175.454 166.634 175.2 166.297 175.032 166.045C174.947 165.961 174.863 165.877 174.778 165.877C174.694 165.877 174.609 165.961 174.525 166.045C174.187 166.634 173.849 167.222 173.427 167.727C173.005 168.231 172.498 168.735 171.992 169.156C171.401 169.576 170.81 169.829 170.134 170.081C169.459 170.333 168.699 170.417 167.855 170.417C167.01 170.417 166.166 170.249 165.406 169.997C164.646 169.744 163.971 169.324 163.464 168.904C162.873 168.399 162.451 167.811 162.198 167.054C161.86 166.297 161.691 165.456 161.691 164.532C161.691 163.523 161.86 162.598 162.282 161.757C162.704 160.916 163.211 160.16 163.802 159.403C164.393 158.73 165.153 158.058 165.913 157.469C166.673 156.881 167.432 156.376 168.108 156.04C168.361 155.956 168.361 155.703 168.277 155.451C167.855 154.526 167.432 153.686 167.179 152.845C166.926 152.004 166.757 151.331 166.757 150.659C166.757 149.818 166.926 149.061 167.348 148.473C167.686 147.884 168.192 147.38 168.783 146.959C169.374 146.539 170.05 146.287 170.894 146.034C171.654 145.866 172.498 145.782 173.343 145.782C173.934 145.782 174.609 145.866 175.2 146.034C175.791 146.203 176.298 146.455 176.805 146.791C177.227 147.127 177.649 147.548 177.902 148.052C178.156 148.557 178.324 149.145 178.324 149.818C178.324 150.827 177.987 151.752 177.396 152.508C176.805 153.265 176.045 153.77 175.032 154.19C174.947 154.274 174.863 154.274 174.778 154.358C174.694 154.442 174.778 154.526 174.863 154.694C175.369 155.535 175.876 156.46 176.467 157.301C177.058 158.226 177.649 159.067 178.324 159.991C178.493 160.244 178.662 160.244 178.831 160.075C179.507 159.319 180.098 158.646 180.773 158.226C181.449 157.721 182.124 157.553 182.884 157.553C183.728 157.553 184.404 157.805 184.91 158.31C185.417 158.814 185.67 159.487 185.67 160.328C185.67 160.58 185.586 160.916 185.501 161.253C185.417 161.589 185.248 161.841 184.995 162.093C184.741 162.346 184.488 162.514 184.15 162.682C183.813 162.85 183.475 162.934 183.053 162.934C182.04 162.934 181.28 162.43 180.942 161.505C180.857 161.337 180.773 161.084 180.689 160.832C180.604 160.58 180.435 160.496 180.098 160.496C180.013 160.496 179.844 160.496 179.675 160.58C179.507 160.664 179.338 160.748 179.169 160.916C179 161.084 179 161.168 179.084 161.421C179.675 162.261 180.351 163.102 180.942 163.943C181.533 164.7 182.124 165.456 182.631 166.129C183.137 166.802 183.644 167.306 183.982 167.727C184.573 168.147 184.91 168.483 185.079 168.651ZM171.654 165.793C172.076 165.793 172.414 165.793 172.752 165.709C173.09 165.625 173.427 165.541 173.765 165.372C173.934 165.288 174.018 165.204 174.018 165.036C174.018 164.952 174.018 164.784 173.934 164.7C173.512 164.195 173.174 163.607 172.752 163.018C172.33 162.43 171.907 161.757 171.485 161.084C171.063 160.412 170.641 159.739 170.219 159.067C169.797 158.394 169.374 157.721 169.037 156.965C168.952 156.88 168.868 156.796 168.783 156.796C168.699 156.796 168.615 156.88 168.53 156.965C168.023 157.385 167.686 157.974 167.348 158.646C167.095 159.319 166.926 160.075 166.926 160.916C166.926 161.673 167.01 162.346 167.264 162.934C167.517 163.523 167.855 164.027 168.277 164.448C168.699 164.868 169.206 165.204 169.797 165.456C170.303 165.709 170.979 165.793 171.654 165.793ZM174.44 147.464C174.187 147.464 174.018 147.464 173.765 147.548C173.512 147.632 173.343 147.716 173.09 147.8C172.921 147.968 172.752 148.136 172.583 148.389C172.414 148.641 172.414 148.893 172.414 149.313C172.414 149.734 172.583 150.238 172.836 150.911C173.09 151.584 173.427 152.34 173.934 153.181C174.018 153.265 174.103 153.349 174.187 153.433C174.272 153.433 174.356 153.433 174.525 153.349C175.032 153.097 175.454 152.845 175.707 152.508C175.96 152.256 176.214 151.92 176.382 151.668C176.551 151.415 176.636 151.079 176.72 150.827C176.805 150.575 176.805 150.322 176.805 150.07C176.805 149.734 176.72 149.482 176.636 149.145C176.551 148.809 176.382 148.557 176.214 148.389C176.045 148.136 175.791 147.968 175.454 147.8C175.116 147.548 174.778 147.464 174.44 147.464Z" fill="black"/>
<path d="M205.427 154.947C205.427 152.761 205.849 150.743 206.694 148.809C207.538 146.875 208.72 145.194 210.156 143.764C211.591 142.335 213.364 141.158 215.39 140.317C217.417 139.476 219.528 139.056 221.892 139.056C223.158 139.056 224.34 139.14 225.354 139.308C226.367 139.476 227.211 139.729 227.971 139.981C228.731 140.233 229.238 140.485 229.66 140.653C230.082 140.906 230.335 140.99 230.335 141.074C230.504 141.242 230.589 141.326 230.589 141.578V146.875C230.589 146.959 230.589 147.043 230.504 147.127C230.42 147.211 230.335 147.211 230.335 147.211C230.251 147.211 230.166 147.211 230.082 147.127C229.998 147.043 229.913 147.043 229.913 146.959C229.66 146.287 229.322 145.53 228.9 144.773C228.478 144.016 227.971 143.26 227.38 142.587C226.789 141.915 226.029 141.41 225.269 140.906C224.425 140.485 223.412 140.233 222.314 140.233C220.879 140.233 219.612 140.569 218.599 141.326C217.586 142.083 216.741 143.092 216.066 144.437C215.39 145.782 214.968 147.296 214.631 149.061C214.293 150.827 214.208 152.677 214.208 154.694C214.208 156.712 214.462 158.478 214.884 159.991C215.39 161.505 216.066 162.85 216.995 163.943C217.923 165.036 219.106 165.793 220.457 166.381C221.892 166.97 223.496 167.222 225.354 167.222C226.367 167.222 227.38 167.138 228.393 166.886C229.407 166.633 230.504 166.297 231.517 165.793C231.602 165.709 231.686 165.709 231.855 165.709C231.94 165.709 232.024 165.793 232.108 165.793C232.193 165.877 232.193 165.961 232.193 166.045C232.193 166.129 232.108 166.213 232.024 166.381C230.757 167.642 229.153 168.651 227.465 169.324C225.776 169.997 223.749 170.417 221.47 170.417C218.937 170.417 216.741 169.997 214.799 169.24C212.857 168.399 211.169 167.306 209.818 165.877C208.467 164.447 207.454 162.85 206.694 160.916C205.849 159.151 205.427 157.049 205.427 154.947Z" fill="black"/>
<path d="M259.465 162.85C259.549 162.598 259.718 162.514 259.887 162.514C260.056 162.514 260.14 162.682 260.14 162.934V169.492C260.14 169.744 259.972 169.913 259.634 169.913H236.668C236.499 169.913 236.414 169.913 236.33 169.829C236.246 169.744 236.246 169.66 236.246 169.576C236.246 169.492 236.246 169.408 236.33 169.324C236.414 169.24 236.499 169.24 236.668 169.156C236.837 169.156 237.09 169.072 237.512 168.988C237.934 168.904 238.272 168.736 238.694 168.483C239.116 168.231 239.454 167.895 239.707 167.474C240.045 167.054 240.13 166.465 240.13 165.793V143.933C240.13 143.26 239.961 142.671 239.707 142.251C239.37 141.831 239.032 141.494 238.694 141.242C238.272 140.99 237.934 140.822 237.512 140.738C237.09 140.654 236.837 140.569 236.668 140.569C236.499 140.569 236.414 140.485 236.33 140.401C236.246 140.317 236.246 140.233 236.246 140.149C236.246 140.065 236.33 139.981 236.33 139.897C236.414 139.813 236.499 139.813 236.668 139.813H251.022C251.19 139.813 251.275 139.813 251.359 139.897C251.444 139.981 251.444 140.065 251.444 140.149C251.444 140.233 251.444 140.317 251.359 140.401C251.275 140.485 251.19 140.569 251.022 140.569C250.853 140.569 250.515 140.654 250.177 140.738C249.755 140.822 249.417 140.99 248.995 141.242C248.573 141.494 248.235 141.831 247.982 142.251C247.644 142.671 247.56 143.26 247.56 143.933V167.054C247.56 167.39 247.644 167.727 247.729 167.895C247.813 168.147 247.982 168.315 248.32 168.399C248.573 168.483 248.995 168.567 249.502 168.651C250.008 168.651 250.684 168.736 251.444 168.736C252.457 168.736 253.301 168.651 254.061 168.399C254.821 168.147 255.497 167.811 256.088 167.474C256.679 167.138 257.185 166.718 257.523 166.213C257.945 165.793 258.283 165.288 258.536 164.868C258.79 164.448 259.043 164.111 259.127 163.775C259.296 163.186 259.381 162.934 259.465 162.85Z" fill="black"/>
<path d="M288.342 163.439C288.426 163.186 288.595 163.102 288.764 163.102C288.933 163.102 289.017 163.27 289.017 163.523V169.492C289.017 169.744 288.849 169.913 288.511 169.913H264.616C264.447 169.913 264.363 169.913 264.278 169.829C264.194 169.744 264.194 169.66 264.194 169.576C264.194 169.492 264.194 169.408 264.278 169.324C264.363 169.24 264.447 169.24 264.616 169.156C264.785 169.156 265.038 169.072 265.46 168.988C265.883 168.904 266.22 168.736 266.642 168.483C267.065 168.231 267.402 167.895 267.656 167.474C267.993 167.054 268.078 166.465 268.078 165.793V143.933C268.078 143.26 267.909 142.671 267.656 142.251C267.318 141.831 266.98 141.494 266.642 141.242C266.305 140.99 265.883 140.822 265.46 140.738C265.038 140.654 264.785 140.569 264.616 140.569C264.447 140.569 264.363 140.485 264.278 140.401C264.194 140.317 264.194 140.233 264.194 140.149C264.194 140.065 264.278 139.981 264.278 139.897C264.363 139.813 264.447 139.813 264.616 139.813H286.569C286.907 139.813 287.075 139.981 287.075 140.233V144.857C287.075 145.11 286.991 145.194 286.822 145.194C286.653 145.194 286.484 145.11 286.4 144.942C286.316 144.773 286.147 144.437 285.893 144.017C285.64 143.596 285.218 143.176 284.796 142.755C284.289 142.335 283.698 141.915 283.023 141.578C282.263 141.242 281.418 141.074 280.405 141.074C279.73 141.074 279.054 141.158 278.463 141.242C277.872 141.326 277.366 141.578 276.943 141.831C276.521 142.083 276.183 142.419 276.015 142.84C275.761 143.26 275.677 143.764 275.677 144.353V153.77V153.265C275.677 153.349 275.677 153.433 275.761 153.517C275.846 153.602 275.93 153.602 276.015 153.602H278.885C279.561 153.602 280.152 153.433 280.574 153.181C280.996 152.929 281.334 152.593 281.587 152.256C281.841 151.92 282.009 151.584 282.094 151.163C282.178 150.827 282.263 150.575 282.263 150.407C282.263 150.322 282.347 150.238 282.432 150.154C282.516 150.07 282.6 150.07 282.685 150.07C282.769 150.07 282.854 150.154 282.938 150.154C283.023 150.238 283.023 150.322 283.023 150.407V158.058C283.023 158.142 283.023 158.31 282.938 158.31C282.854 158.394 282.769 158.394 282.685 158.394C282.6 158.394 282.516 158.394 282.432 158.31C282.347 158.226 282.263 158.142 282.263 158.058C282.263 157.889 282.178 157.637 282.094 157.301C282.009 156.965 281.841 156.628 281.587 156.208C281.334 155.872 280.996 155.535 280.574 155.283C280.152 155.031 279.561 154.863 278.885 154.863H276.015C275.93 154.863 275.846 154.863 275.761 154.947C275.677 155.031 275.677 155.115 275.677 155.199V154.947V165.288C275.677 166.381 276.184 167.138 277.112 167.727C278.041 168.315 279.392 168.567 281.081 168.567C281.925 168.567 282.6 168.483 283.276 168.231C283.951 167.979 284.542 167.727 285.049 167.39C285.556 167.054 286.062 166.718 286.484 166.297C286.907 165.877 287.244 165.457 287.498 165.12C287.751 164.784 288.004 164.448 288.173 164.111C288.173 163.775 288.342 163.523 288.342 163.439Z" fill="black"/>
<path d="M357.916 139.728C358.001 139.812 358.001 139.897 358.001 139.981C358.001 140.065 358.001 140.149 357.916 140.233C357.832 140.317 357.747 140.401 357.578 140.401C357.409 140.401 357.072 140.485 356.734 140.569C356.312 140.653 355.974 140.821 355.552 141.074C355.13 141.326 354.792 141.662 354.539 142.083C354.285 142.503 354.117 143.091 354.117 143.764V169.576C354.117 169.828 354.032 169.912 353.863 169.996C353.694 170.08 353.526 169.996 353.272 169.828C353.188 169.744 353.019 169.492 352.597 169.072C352.175 168.567 351.668 167.979 350.993 167.222C350.317 166.465 349.557 165.54 348.713 164.531C347.868 163.522 346.94 162.429 345.926 161.252C344.998 160.075 343.984 158.898 342.971 157.721C341.958 156.544 340.945 155.367 340.016 154.19C339.087 153.013 338.159 152.004 337.314 150.995C336.47 149.986 335.71 149.061 335.034 148.304C334.359 147.548 333.852 146.959 333.515 146.455C333.092 146.034 332.924 145.782 332.924 145.782C332.839 145.698 332.755 145.614 332.67 145.698C332.586 145.698 332.586 145.782 332.586 145.95V165.624C332.586 166.297 332.755 166.886 333.008 167.306C333.346 167.726 333.684 168.063 334.021 168.315C334.443 168.567 334.781 168.735 335.203 168.819C335.626 168.903 335.879 168.987 336.048 168.987C336.217 168.987 336.301 169.072 336.385 169.156C336.47 169.24 336.47 169.324 336.47 169.408C336.47 169.492 336.385 169.576 336.385 169.66C336.301 169.744 336.217 169.744 336.048 169.744H327.52C327.351 169.744 327.267 169.744 327.182 169.66C327.098 169.576 327.098 169.492 327.098 169.408C327.098 169.324 327.098 169.24 327.182 169.156C327.267 169.072 327.351 169.072 327.52 168.987C327.689 168.987 328.026 168.903 328.364 168.819C328.786 168.735 329.124 168.567 329.546 168.315C329.968 168.063 330.306 167.726 330.559 167.306C330.897 166.886 330.982 166.297 330.982 165.624V143.764C330.982 143.091 330.813 142.503 330.559 142.083C330.222 141.662 329.884 141.326 329.546 141.074C329.124 140.821 328.786 140.653 328.364 140.569C327.942 140.485 327.689 140.401 327.52 140.401C327.351 140.401 327.267 140.317 327.182 140.233C327.098 140.149 327.098 140.065 327.098 139.981C327.098 139.897 327.182 139.812 327.182 139.728C327.267 139.644 327.351 139.644 327.52 139.644H336.47C336.976 139.644 337.314 139.812 337.567 140.149C337.821 140.485 338.243 140.99 338.834 141.662C339.425 142.335 340.016 143.091 340.776 143.932C341.536 144.773 342.296 145.698 343.14 146.707C343.984 147.716 344.829 148.725 345.673 149.65C346.517 150.658 347.277 151.583 348.037 152.508C348.797 153.433 349.473 154.19 350.064 154.946C350.655 155.619 351.161 156.208 351.499 156.628C351.837 157.048 352.09 157.301 352.09 157.301C352.175 157.385 352.343 157.469 352.343 157.469C352.428 157.469 352.428 157.385 352.428 157.217V143.848C352.428 143.176 352.259 142.587 352.006 142.167C351.668 141.746 351.33 141.41 350.993 141.158C350.655 140.905 350.233 140.737 349.81 140.653C349.388 140.569 349.135 140.485 348.966 140.485C348.797 140.485 348.713 140.401 348.628 140.317C348.544 140.233 348.544 140.149 348.544 140.065C348.544 139.981 348.628 139.897 348.628 139.812C348.713 139.728 348.797 139.728 348.966 139.728H357.494C357.747 139.644 357.832 139.644 357.916 139.728Z" fill="black"/>
<path d="M324.395 169.324C324.311 169.24 324.226 169.156 324.142 169.156C323.72 169.071 323.298 168.987 322.875 168.735C322.453 168.567 322.115 168.315 321.693 167.978C321.356 167.642 321.018 167.222 320.68 166.801C320.342 166.297 320.089 165.792 319.92 165.12C319.836 164.783 319.582 164.195 319.329 163.27C319.076 162.345 318.654 161.252 318.232 159.991C317.809 158.73 317.303 157.301 316.796 155.787C316.29 154.274 315.783 152.76 315.276 151.163C314.77 149.649 314.263 148.136 313.757 146.707C313.25 145.277 312.828 143.932 312.49 142.839C312.068 141.746 311.561 140.149 311.561 140.065C311.477 139.896 311.392 139.728 311.308 139.728C311.223 139.728 311.223 139.728 311.139 139.728H305.566C305.398 139.728 305.229 139.812 305.144 139.896C305.06 139.981 304.975 140.149 304.891 140.317C304.891 140.401 304.553 141.158 304.3 141.914C304.047 142.587 303.709 143.512 303.371 144.689C302.949 145.782 302.527 147.127 302.02 148.556C301.514 149.986 301.007 151.499 300.416 153.013C299.909 154.526 299.318 156.039 298.812 157.553C298.305 159.066 297.798 160.411 297.376 161.673C296.954 162.934 296.616 163.943 296.279 164.783C295.941 165.624 295.772 166.129 295.688 166.381C295.519 166.801 295.265 167.222 295.012 167.558C294.759 167.894 294.421 168.147 294.168 168.399C293.83 168.651 293.492 168.819 293.155 168.987C292.817 169.156 292.395 169.24 291.972 169.408C291.888 169.408 291.804 169.492 291.719 169.576C291.635 169.66 291.635 169.744 291.635 169.828C291.635 169.912 291.719 169.996 291.719 169.996C291.719 169.996 291.888 170.08 291.972 170.08H300.331C300.416 170.08 300.5 170.08 300.585 169.996C300.669 169.912 300.669 169.828 300.754 169.744C300.754 169.66 300.754 169.576 300.669 169.492C300.585 169.408 300.5 169.324 300.416 169.324C300.163 169.24 299.909 169.156 299.572 169.071C299.234 168.987 298.896 168.819 298.643 168.651C298.305 168.483 298.136 168.147 297.967 167.81C297.798 167.474 297.798 167.054 297.883 166.465C297.883 166.381 297.967 166.129 298.052 165.792C298.136 165.456 298.305 165.036 298.474 164.531C298.643 164.027 298.812 163.522 298.981 162.934C299.149 162.345 299.318 161.841 299.487 161.252C299.656 160.748 299.825 160.243 299.909 159.823C299.994 159.403 300.163 159.066 300.163 158.898C300.247 158.814 300.331 158.73 300.416 158.73H310.126C310.21 158.73 310.295 158.814 310.379 158.898C310.379 158.982 310.464 159.15 310.548 159.403C310.632 159.739 310.801 160.075 310.886 160.496C311.055 160.916 311.139 161.42 311.308 161.925C311.477 162.429 311.646 162.934 311.815 163.354C311.983 163.859 312.068 164.279 312.237 164.615C312.406 165.036 312.49 165.288 312.574 165.456C312.828 166.213 312.828 166.801 312.659 167.222C312.49 167.642 312.152 168.063 311.815 168.315C311.477 168.567 311.055 168.819 310.717 168.903C310.295 168.987 310.041 169.071 309.957 169.156C309.788 169.24 309.704 169.24 309.619 169.324C309.535 169.408 309.535 169.492 309.535 169.576C309.535 169.66 309.619 169.744 309.704 169.828C309.788 169.912 309.873 169.912 309.957 169.912H324.057C324.226 169.912 324.311 169.912 324.395 169.828C324.48 169.744 324.48 169.66 324.564 169.576C324.48 169.408 324.395 169.324 324.395 169.324ZM309.45 157.132H300.923C300.754 157.132 300.669 157.048 300.754 156.88C300.923 156.376 301.091 155.703 301.429 154.862C301.682 154.022 301.936 153.097 302.273 152.172C302.611 151.247 302.865 150.238 303.202 149.313C303.54 148.304 303.793 147.463 304.047 146.623C304.3 145.866 304.469 145.193 304.638 144.689C304.806 144.184 304.891 143.932 304.891 143.848C304.891 143.764 304.975 143.68 305.06 143.68C305.144 143.68 305.229 143.68 305.229 143.848C305.229 143.848 305.313 144.016 305.398 144.437C305.482 144.773 305.651 145.277 305.904 145.866C306.073 146.455 306.326 147.127 306.58 147.968C306.833 148.725 307.086 149.481 307.34 150.322C307.593 151.163 307.846 151.92 308.099 152.676C308.353 153.433 308.606 154.19 308.775 154.778C308.944 155.367 309.113 155.871 309.281 156.292C309.366 156.712 309.45 156.88 309.535 156.964C309.704 157.048 309.619 157.132 309.45 157.132Z" fill="black"/>
</svg>
