<?xml version="1.0" encoding="utf-8"?>
<!-- Generator: Adobe Illustrator 22.1.0, SVG Export Plug-In . SVG Version: 6.00 Build 0)  -->
<svg version="1.1" id="Capa_1" xmlns="http://www.w3.org/2000/svg" xmlns:xlink="http://www.w3.org/1999/xlink" x="0px" y="0px"
	 viewBox="0 0 125 48" style="enable-background:new 0 0 125 48;" xml:space="preserve">
<style type="text/css">
	.st0{fill:#C1271A;}
	.st1{fill:#841515;}
	.st2{fill:#3C3638;}
</style>
<g>
	<g>
		<path class="st0" d="M110,0.8H98.5L83.9,35.7h12.4l1.8-4.6h12.1l1.8,4.6h12.6L110,0.8z M101,22.8l3.2-8.4l3.2,8.4H101z"/>
		<path class="st0" d="M39.5,0.8L24.9,35.7h12.4l1.8-4.6h12.1l1.8,4.6h5.8V19.6L51,0.8H39.5z M42,22.8l3.2-8.4l3.2,8.4H42z"/>
		<path class="st0" d="M85.3,17.6c3.7-1.3,6.2-3.8,6.2-7.9V9.6c0-2.4-0.9-4.2-2.1-5.4c-2-2-5-3.1-9.8-3.1H60.1v34.6h19.2
			c1.2,0,2.3-0.1,3.4-0.2l0.1-0.3l6.6-15.7C88.2,18.6,86.8,18,85.3,17.6z M68.1,7.2h7.5h0.3c3.6,0.2,6.6,2.9,7.2,6.5
			c0,0.1,0,0.2,0,0.3c0,0.4-0.3,0.8-0.8,0.8c0,0-0.1,0-0.2,0c-0.1,0-0.1,0-0.2,0c-0.2,0-0.4-0.2-0.5-0.5c0,0,0,0,0,0
			c-0.7-2.3-3.8-3.7-8.4-3.7c-0.4,0-0.7,0.3-0.7,0.7c0,0.4,0.3,0.7,0.7,0.7c2.2,0,4.4,0.4,5.8,1.3c0.1,0,0.1,0.1,0.2,0.1
			c0.1,0.1,0.2,0.3,0.2,0.5c0,0.4-0.3,0.7-0.6,0.7c0,0-0.1,0-0.1,0c0,0-2.7,0-2.7,0c-0.1,0-0.2,0-0.4,0c-4.1,0-7.5-3.3-7.7-7.5
			C67.9,7.3,68,7.2,68.1,7.2z M83,29.3h-7.5h-0.3c-3.6-0.2-6.6-2.9-7.2-6.5c0-0.1,0-0.2,0-0.3c0-0.4,0.3-0.8,0.8-0.8
			c0,0,0.1,0,0.2,0c0.1,0,0.1,0,0.2,0c0.2,0,0.4,0.2,0.5,0.5c0,0,0,0,0,0c0.7,2.3,3.9,3.7,8.4,3.7c0.4,0,0.7-0.3,0.7-0.7
			c0-0.4-0.3-0.7-0.7-0.7c-2.2,0-4.4-0.4-5.8-1.3c-0.1,0-0.1-0.1-0.2-0.1c-0.1-0.1-0.2-0.3-0.2-0.5c0-0.4,0.3-0.7,0.6-0.7
			c0,0,0.1,0,0.1,0c0,0,2.7,0,2.7,0c0.1,0,0.2,0,0.4,0c4.1,0,7.5,3.3,7.7,7.5C83.1,29.2,83.1,29.3,83,29.3z"/>
		<path class="st1" d="M81.5,14.4C81.5,14.4,81.5,14.4,81.5,14.4C81.5,14.4,81.5,14.4,81.5,14.4c0.1,0.2,0.3,0.4,0.5,0.5
			C81.8,14.8,81.6,14.6,81.5,14.4z"/>
		<path class="st0" d="M18.9,13.3c-3.7-0.7-4.6-1.3-4.6-2.2V11c0-0.8,0.8-1.4,2.5-1.4c3.2,0,7.1,1,10.4,3.4l5.6-7.8
			c-4-3.2-9-4.4-15.7-4.4C7.6,0.8,2.6,5.5,2.6,12.1v0.1c0,7.3,6.8,9.5,14.6,11.1c3.7,0.7,4.8,1.3,4.8,2.3v0.1c0,0.9-0.9,1.5-3,1.5
			c-4.1,0-8.4-1.2-12.1-4.1l-6.2,7.4c4.4,3.9,11,5.2,18,5.2c1.8,0,3.5-0.2,5-0.5l0.3-0.6l7-16.6C28.4,15.6,24.2,14.3,18.9,13.3z"/>
	</g>
	<g>
		<g>
			<path class="st2" d="M13.8,45.4H0.7c-0.1,0-0.2-0.1-0.2-0.2c0-0.1,0.1-0.2,0.2-0.2h13.1c0.1,0,0.2,0.1,0.2,0.2
				C14,45.4,13.9,45.4,13.8,45.4z"/>
		</g>
		<g>
			<path class="st2" d="M124.7,45.4h-13.1c-0.1,0-0.2-0.1-0.2-0.2c0-0.1,0.1-0.2,0.2-0.2h13.1c0.1,0,0.2,0.1,0.2,0.2
				C124.9,45.4,124.8,45.4,124.7,45.4z"/>
		</g>
	</g>
	<g>
		<path class="st2" d="M17.1,47.5v-4.4c0-0.1,0.1-0.2,0.2-0.2h3.1c0.1,0,0.2,0.1,0.2,0.2c0,0.1-0.1,0.2-0.2,0.2h-2.9v1.9h2.6
			c0.1,0,0.2,0.1,0.2,0.2c0,0.1-0.1,0.2-0.2,0.2h-2.6v1.9h2.9c0.1,0,0.2,0.1,0.2,0.2c0,0.1-0.1,0.2-0.2,0.2h-3.1
			C17.2,47.6,17.1,47.5,17.1,47.5z"/>
		<path class="st2" d="M24.2,45.3L24.2,45.3c0-1.3,1-2.5,2.4-2.5c1.4,0,2.4,1.1,2.4,2.4v0c0,0.6-0.2,1.2-0.6,1.7l0.5,0.5
			c0.1,0,0.1,0.1,0.1,0.2c0,0.1-0.1,0.2-0.2,0.2c-0.1,0-0.1,0-0.1-0.1L28,47.2c-0.4,0.3-0.9,0.5-1.5,0.5
			C25.1,47.7,24.2,46.6,24.2,45.3z M26.9,46.1c0-0.1,0.1-0.2,0.2-0.2c0.1,0,0.1,0,0.1,0.1l0.8,0.7c0.3-0.4,0.5-0.9,0.5-1.4v0
			c0-1.2-0.9-2.1-2-2.1c-1.2,0-2,0.9-2,2.1v0c0,1.2,0.9,2.1,2,2.1c0.5,0,0.9-0.2,1.3-0.4L27,46.3C27,46.2,26.9,46.2,26.9,46.1z"/>
		<path class="st2" d="M32.7,45.7V43c0-0.1,0.1-0.2,0.2-0.2c0.1,0,0.2,0.1,0.2,0.2v2.6c0,1.1,0.6,1.8,1.6,1.8c1,0,1.6-0.6,1.6-1.7
			V43c0-0.1,0.1-0.2,0.2-0.2c0.1,0,0.2,0.1,0.2,0.2v2.6c0,1.4-0.8,2.1-1.9,2.1C33.5,47.7,32.7,47,32.7,45.7z"/>
		<path class="st2" d="M40.7,43c0-0.1,0.1-0.2,0.2-0.2C41,42.9,41,43,41,43v4.4c0,0.1-0.1,0.2-0.2,0.2c-0.1,0-0.2-0.1-0.2-0.2V43z"
			/>
		<path class="st2" d="M45.2,43.1c0-0.1,0.1-0.2,0.2-0.2h1.5c1,0,1.8,0.5,1.8,1.4v0c0,1-0.9,1.5-1.8,1.5h-1.3v1.6
			c0,0.1-0.1,0.2-0.2,0.2c-0.1,0-0.2-0.1-0.2-0.2V43.1z M46.9,45.5c0.9,0,1.5-0.5,1.5-1.2v0c0-0.8-0.6-1.1-1.4-1.1h-1.3v2.3H46.9z"
			/>
		<path class="st2" d="M51.7,47.4l2-4.4c0-0.1,0.1-0.2,0.2-0.2h0c0.1,0,0.2,0.1,0.2,0.2l2,4.4c0,0,0,0.1,0,0.1
			c0,0.1-0.1,0.2-0.2,0.2c-0.1,0-0.1-0.1-0.2-0.1l-0.6-1.2h-2.8L52,47.5c0,0.1-0.1,0.1-0.2,0.1c-0.1,0-0.2-0.1-0.2-0.1
			C51.6,47.5,51.6,47.4,51.7,47.4z M55.2,46l-1.2-2.7L52.7,46H55.2z"/>
		<path class="st2" d="M60,43.1c0-0.1,0.1-0.2,0.2-0.2h0c0.1,0,0.1,0,0.2,0.1l1.8,2.7l1.8-2.7c0-0.1,0.1-0.1,0.2-0.1h0
			c0.1,0,0.2,0.1,0.2,0.2v4.4c0,0.1-0.1,0.2-0.2,0.2c-0.1,0-0.2-0.1-0.2-0.2v-4L62.4,46c0,0.1-0.1,0.1-0.1,0.1c-0.1,0-0.1,0-0.1-0.1
			l-1.7-2.5v4c0,0.1-0.1,0.2-0.2,0.2c-0.1,0-0.2-0.1-0.2-0.2V43.1z"/>
		<path class="st2" d="M68.6,43c0-0.1,0.1-0.2,0.2-0.2c0.1,0,0.2,0.1,0.2,0.2v4.4c0,0.1-0.1,0.2-0.2,0.2c-0.1,0-0.2-0.1-0.2-0.2V43z
			"/>
		<path class="st2" d="M73.1,47.5v-4.4c0-0.1,0.1-0.2,0.2-0.2h3.1c0.1,0,0.2,0.1,0.2,0.2c0,0.1-0.1,0.2-0.2,0.2h-2.9v1.9H76
			c0.1,0,0.2,0.1,0.2,0.2c0,0.1-0.1,0.2-0.2,0.2h-2.6v1.9h2.9c0.1,0,0.2,0.1,0.2,0.2c0,0.1-0.1,0.2-0.2,0.2h-3.1
			C73.2,47.6,73.1,47.5,73.1,47.5z"/>
		<path class="st2" d="M80.3,43.1c0-0.1,0.1-0.2,0.2-0.2h0.1c0.1,0,0.1,0,0.2,0.1l3.2,4v-4c0-0.1,0.1-0.2,0.2-0.2
			c0.1,0,0.2,0.1,0.2,0.2v4.5c0,0.1-0.1,0.1-0.1,0.1h0c-0.1,0-0.1,0-0.2-0.1l-3.3-4.1v4.1c0,0.1-0.1,0.2-0.2,0.2
			c-0.1,0-0.2-0.1-0.2-0.2V43.1z"/>
		<path class="st2" d="M89.7,43.2h-1.5c-0.1,0-0.2-0.1-0.2-0.2c0-0.1,0.1-0.2,0.2-0.2h3.4c0.1,0,0.2,0.1,0.2,0.2
			c0,0.1-0.1,0.2-0.2,0.2H90v4.3c0,0.1-0.1,0.2-0.2,0.2c-0.1,0-0.2-0.1-0.2-0.2V43.2z"/>
		<path class="st2" d="M94.9,45.3L94.9,45.3c0-1.3,1-2.5,2.4-2.5c1.4,0,2.4,1.1,2.4,2.4v0c0,1.3-1,2.4-2.4,2.4
			C95.8,47.7,94.9,46.6,94.9,45.3z M99.3,45.3L99.3,45.3c0-1.2-0.9-2.1-2-2.1c-1.2,0-2,0.9-2,2.1v0c0,1.2,0.9,2.1,2,2.1
			C98.4,47.4,99.3,46.4,99.3,45.3z"/>
		<path class="st2" d="M103.3,47c0,0-0.1-0.1-0.1-0.1c0-0.1,0.1-0.2,0.2-0.2c0,0,0.1,0,0.1,0c0.5,0.4,0.9,0.6,1.6,0.6
			c0.7,0,1.2-0.4,1.2-0.9v0c0-0.5-0.3-0.8-1.3-1c-1.1-0.2-1.6-0.6-1.6-1.3v0c0-0.7,0.6-1.2,1.5-1.2c0.6,0,1.1,0.2,1.5,0.5
			c0,0,0.1,0.1,0.1,0.1c0,0.1-0.1,0.2-0.2,0.2c0,0-0.1,0-0.1,0c-0.4-0.3-0.8-0.4-1.3-0.4c-0.7,0-1.2,0.4-1.2,0.9v0
			c0,0.5,0.3,0.8,1.4,1c1.1,0.2,1.6,0.6,1.6,1.3v0c0,0.8-0.7,1.3-1.6,1.3C104.4,47.7,103.8,47.5,103.3,47z"/>
	</g>
</g>
</svg>
