<svg width="429" height="212" viewBox="0 0 429 212" fill="none" xmlns="http://www.w3.org/2000/svg">
<path d="M213.436 145.505C213.436 145.505 212.526 145.505 210.704 145.505C208.883 145.505 206.253 145.303 202.812 144.898C199.372 144.392 195.123 143.582 190.266 141.963C185.41 140.345 180.047 137.916 174.583 134.273C171.852 132.452 169.019 130.428 166.287 128C163.555 125.571 160.823 122.941 158.294 119.804C153.235 113.733 148.479 106.346 145.241 97.6442C141.903 89.0434 139.98 79.1272 140.183 68.7051C140.385 58.0806 143.521 47.1525 149.39 37.1351C155.359 27.1178 164.061 18.3146 174.786 11.8387C185.511 5.26165 198.259 1.11304 211.514 0.202371C213.234 0.101186 214.752 0.101186 216.573 0C218.192 0 219.709 0 221.531 0.101186C225.072 0.202371 228.31 0.7083 231.75 1.31541C235.19 1.92253 238.529 2.8332 241.868 3.94624C245.207 5.05928 248.444 6.47588 251.581 8.09485C264.228 14.5707 275.054 25.6 281.429 38.9565C284.666 45.6347 286.892 52.8189 288.005 60.3066C289.017 67.7944 289.321 75.1809 288.005 82.9722C286.69 90.5612 284.059 98.0489 280.113 104.727C276.066 111.405 270.906 117.477 264.936 122.435C252.896 132.452 237.517 138.422 221.834 139.535C206.253 140.749 189.659 137.005 176.506 127.696C169.929 123.143 164.162 117.274 159.71 110.596C155.258 103.918 152.122 96.4299 150.3 88.6386C149.39 84.7936 148.884 80.8473 148.58 76.9011C148.479 75.8892 148.479 74.9786 148.479 73.9667V72.4489V72.0442V71.5383V70.83C148.479 69.9193 148.479 69.1098 148.58 67.9968C148.682 66.9849 148.783 65.8719 148.884 64.86C149.896 56.8663 152.729 49.1762 156.776 42.3968C165.073 28.7367 178.226 19.0229 192.695 14.0648C199.878 11.5352 207.467 10.2198 215.055 10.1186H216.573H217.888C218.799 10.1186 219.608 10.1186 220.62 10.2198C222.644 10.3209 224.465 10.6245 226.286 10.8269C230.03 11.434 233.672 12.3447 237.213 13.6601C244.296 16.1897 250.771 20.1359 256.235 25.1952C261.699 30.2545 265.948 36.3256 268.984 42.8015C272.019 49.2774 273.84 56.2592 274.549 63.1399C274.953 66.5802 275.054 70.0205 274.953 73.4608V74.675L274.852 75.9904C274.751 76.9011 274.65 77.8118 274.549 78.6213C274.346 80.3414 273.941 82.0616 273.537 83.6805C271.817 90.3588 268.68 96.5311 264.633 101.793C260.586 107.054 255.628 111.405 250.367 114.846C239.642 121.625 227.399 124.762 215.662 124.458C204.027 124.155 192.897 120.512 184.398 114.239C175.798 108.066 169.727 99.4655 166.59 90.6623C164.971 86.2102 164.061 81.758 163.656 77.5082C163.353 73.1572 163.454 68.9074 164.263 64.9612C165.983 57.0687 169.727 50.4916 173.774 45.3312C177.922 40.1707 182.475 36.3257 186.725 33.5936C191.076 30.8616 195.123 29.2427 198.462 28.2308C201.801 27.3201 204.532 27.0166 206.253 26.9154C207.163 26.8142 207.871 26.9154 208.276 26.8142C208.782 26.8142 208.984 26.8142 208.984 26.8142C208.984 26.8142 208.782 26.8142 208.276 26.8142C207.871 26.8142 207.163 26.8142 206.253 27.0166C204.431 27.2189 201.801 27.6237 198.563 28.7367C195.325 29.8498 191.379 31.6711 187.332 34.5043C183.285 37.3375 179.035 41.2837 175.191 46.4442C171.447 51.6047 168.108 57.9794 166.793 65.4671C165.578 72.8537 166.59 81.3533 169.828 89.4481C173.066 97.543 178.934 105.132 187.028 110.495C195.123 115.858 205.14 118.994 215.763 118.994C226.286 118.994 237.315 115.858 246.724 109.584C256.033 103.311 263.722 93.6979 266.252 82.1627C266.555 80.7462 266.859 79.3296 267.061 77.8118C267.162 77.1035 267.264 76.3952 267.264 75.6869L267.365 74.675V73.4608C267.365 70.4252 267.264 67.3896 266.859 64.3541C266.049 58.2829 264.329 52.2118 261.598 46.6466C256.134 35.5162 246.421 26.4095 234.279 22.2608C222.239 18.1122 208.276 18.6182 195.831 23.1715C183.285 27.6237 172.054 36.3257 165.174 47.7596C161.734 53.426 159.407 59.8007 158.698 66.3778C158.597 67.1873 158.597 67.9968 158.496 68.7051C158.395 69.4134 158.395 70.5264 158.395 71.3359V72.0442C158.395 72.2466 158.395 72.1454 158.395 72.2466V72.5501V73.8655C158.395 74.675 158.395 75.5857 158.496 76.3952C158.698 79.8355 159.204 83.1746 160.014 86.5137C161.633 93.192 164.263 99.4655 168.007 105.132C171.75 110.798 176.607 115.655 182.172 119.5C187.737 123.345 194.01 126.28 200.688 127.899C204.027 128.708 207.366 129.315 210.806 129.619L213.335 129.821L216.067 129.922C217.585 129.922 219.507 129.922 221.126 129.72C234.886 128.809 248.242 123.649 258.663 115.048C269.085 106.447 276.471 94.4062 278.697 81.4545C279 79.8355 279.203 78.2165 279.304 76.5975C279.506 75.1809 279.506 73.056 279.506 71.6394C279.506 68.3003 279.304 64.9612 278.798 61.7232C277.887 55.1462 276.066 48.7715 273.233 42.9027C267.77 31.1652 258.461 21.5525 247.432 15.5826C244.701 14.0648 241.868 12.8506 238.933 11.7375C235.999 10.7257 233.065 9.81501 230.03 9.2079C226.994 8.60078 223.858 8.09485 220.924 7.99367C219.507 7.7913 217.787 7.89248 216.168 7.7913C214.853 7.7913 213.133 7.7913 211.716 7.89248C187.433 9.00552 165.376 22.1597 154.145 40.2719C148.479 49.2774 145.444 59.396 144.837 69.0086C144.23 78.8236 145.747 88.2339 148.58 96.5311C151.413 104.93 155.562 112.114 160.317 118.185C162.644 121.22 165.174 123.952 167.703 126.381C170.233 128.809 172.863 130.934 175.494 132.756C185.916 140.243 195.932 143.178 202.61 144.493C206.05 145.1 208.681 145.404 210.502 145.505C212.526 145.505 213.436 145.505 213.436 145.505Z" fill="#FCFCFC"/>
<path d="M0 211.088V201.476C0 201.172 0.101179 200.97 0.303538 200.97C0.505896 200.97 0.708255 201.071 0.809434 201.273C1.41651 202.791 2.12476 204.005 2.9342 205.22C3.74363 206.333 4.55307 207.345 5.46368 208.053C6.37429 208.862 7.38608 209.368 8.49905 209.773C9.61203 210.178 10.8262 210.38 12.2427 210.38C13.0521 210.38 13.7604 210.279 14.4686 210.077C15.1769 209.874 15.784 209.469 16.2899 208.964C16.7958 208.458 17.2005 207.85 17.504 207.142C17.8075 206.434 18.0099 205.523 18.0099 204.41C18.0099 203.398 17.8075 202.488 17.504 201.779C17.0993 200.97 16.5934 200.363 15.9863 199.756C15.3792 199.149 14.671 198.643 13.8616 198.238C13.0521 197.833 12.2427 197.428 11.4333 197.024C10.5226 196.619 9.61203 196.214 8.70141 195.809C7.7908 195.405 6.98137 194.899 6.17193 194.393C5.3625 193.887 4.65424 193.28 3.94599 192.571C3.23774 191.863 2.73184 191.054 2.22594 190.143C1.82123 189.333 1.51769 188.524 1.31533 187.715C1.11297 186.905 1.01179 185.994 1.01179 185.185C1.01179 183.869 1.21415 182.655 1.72005 181.34C2.12476 180.024 2.9342 178.911 3.94599 177.798C4.95778 176.786 6.27311 175.876 7.99316 175.269C9.71321 174.662 11.6356 174.257 14.0639 174.257C15.5816 174.257 16.8969 174.358 18.0099 174.662C19.1229 174.965 20.0335 175.168 20.8429 175.471C21.5512 175.775 22.1583 176.078 22.563 176.281C22.9677 176.584 23.17 176.685 23.2712 176.786C23.4736 176.989 23.5748 177.09 23.5748 177.394V182.251C23.5748 182.352 23.5748 182.453 23.4736 182.554C23.3724 182.655 23.2712 182.655 23.2712 182.655C23.17 182.655 23.0689 182.655 22.9677 182.554C22.8665 182.554 22.7653 182.453 22.7653 182.251C22.4618 181.441 22.0571 180.632 21.5512 179.822C21.0453 179.013 20.5394 178.304 19.8311 177.697C19.1229 177.09 18.2123 176.584 17.2005 176.179C16.1887 175.775 14.9745 175.572 13.558 175.572C11.7368 175.572 10.2191 175.977 9.20731 176.888C8.19552 177.798 7.68962 178.911 7.68962 180.429C7.68962 181.34 7.7908 182.048 8.09434 182.655C8.39788 183.262 8.90377 183.869 9.61203 184.477C10.3203 185.084 11.2309 185.59 12.3439 186.197C13.4568 186.804 14.9745 187.411 16.6946 188.119C18.4146 188.828 19.8311 189.536 21.1465 190.345C22.4618 191.155 23.4736 192.066 24.3842 192.976C25.2948 193.988 25.9019 195.101 26.3066 196.315C26.7113 197.53 27.0149 198.946 27.0149 200.565C27.0149 202.184 26.7113 203.601 26.2054 205.017C25.5983 206.434 24.7889 207.648 23.5748 208.66C22.3606 209.672 20.9441 210.481 19.1229 211.088C17.3016 211.696 15.2781 211.999 12.8498 211.999C11.3321 211.999 9.81439 211.797 8.2967 211.392C6.77901 210.987 5.3625 210.582 3.94599 210.077C3.74363 209.975 3.54127 209.975 3.33891 209.874C3.13656 209.773 2.83302 209.773 2.63066 209.773C2.22594 209.773 1.92241 209.874 1.72005 210.178C1.51769 210.481 1.31533 210.785 1.11297 211.19C1.01179 211.392 0.809434 211.594 0.607075 211.493C0.101179 211.594 0 211.392 0 211.088Z" fill="#FCFCFC"/>
<path d="M63.4407 175.371V182.859C63.4407 183.162 63.3395 183.263 63.1371 183.365C62.9348 183.365 62.7324 183.263 62.6312 182.96C62.53 182.757 62.4289 182.555 62.2265 182.15C62.0242 181.746 61.8218 181.341 61.5183 180.835C61.2147 180.329 60.81 179.823 60.3041 179.317C59.7982 178.811 59.2923 178.305 58.6852 177.901C58.0782 177.496 57.3699 177.091 56.5605 176.787C55.751 176.484 54.9416 176.383 53.9298 176.383C53.5251 176.383 53.1204 176.484 52.8168 176.585C52.5133 176.686 52.3109 176.889 52.1086 177.091C51.9062 177.293 51.805 177.597 51.7039 177.901C51.6027 178.204 51.6027 178.508 51.6027 178.811V206.131C51.6027 206.941 51.805 207.649 52.1086 208.155C52.5133 208.661 52.918 209.066 53.3227 209.369C53.8286 209.673 54.2333 209.875 54.7392 209.976C55.2451 210.078 55.5487 210.179 55.751 210.179C55.9534 210.179 56.0546 210.28 56.1558 210.381C56.2569 210.482 56.2569 210.583 56.2569 210.685C56.2569 210.786 56.1558 210.887 56.1558 210.988C56.1558 211.089 55.9534 211.089 55.751 211.089H38.5506C38.3482 211.089 38.247 211.089 38.1459 210.988C38.0447 210.887 38.0447 210.786 38.0447 210.685C38.0447 210.583 38.0447 210.482 38.1459 210.381C38.247 210.28 38.3482 210.28 38.5506 210.179C38.7529 210.179 39.1576 210.078 39.5624 209.976C40.0683 209.875 40.473 209.673 40.9789 209.369C41.4848 209.066 41.8895 208.661 42.193 208.155C42.5977 207.649 42.6989 206.941 42.6989 206.131C42.6989 206.03 42.6989 205.524 42.6989 204.816C42.6989 204.006 42.6989 203.096 42.6989 201.983C42.6989 200.87 42.6989 199.554 42.6989 198.138C42.6989 196.721 42.6989 195.203 42.6989 193.685C42.6989 192.168 42.6989 190.65 42.6989 189.233C42.6989 187.817 42.6989 186.4 42.6989 185.186C42.6989 183.972 42.6989 182.859 42.6989 182.049C42.6989 181.138 42.6989 180.531 42.6989 180.228C42.6989 179.823 42.6989 179.317 42.6989 178.912C42.6989 178.508 42.5977 178.103 42.3954 177.698C42.2942 177.395 41.9907 177.091 41.6871 176.889C41.3836 176.686 40.8777 176.585 40.3718 176.585C39.36 176.585 38.5506 176.686 37.7411 176.99C36.9317 177.293 36.2234 177.597 35.6164 178.103C35.0093 178.508 34.4022 179.014 33.9975 179.519C33.4916 180.025 33.0869 180.531 32.7834 181.037C32.4798 181.543 32.1763 181.948 31.9739 182.353C31.7716 182.757 31.6704 183.061 31.5692 183.162C31.468 183.466 31.2657 183.567 31.0633 183.567C30.8609 183.567 30.7598 183.365 30.7598 183.061V175.573C30.7598 175.27 30.9621 175.067 31.3668 175.067H62.8336C63.2383 174.865 63.4407 175.067 63.4407 175.371Z" fill="#FCFCFC"/>
<path d="M96.4234 178.204C96.7269 177.597 96.8281 177.192 96.7269 176.889C96.6257 176.585 96.5245 176.383 96.221 176.18C95.9175 175.978 95.7151 175.877 95.3104 175.877C95.0068 175.776 94.7033 175.776 94.501 175.776C94.2986 175.776 94.1974 175.674 94.0962 175.573C93.9951 175.472 93.9951 175.371 93.9951 175.27C93.9951 175.169 94.0962 175.067 94.0962 174.966C94.1974 174.865 94.2986 174.865 94.501 174.865H103.809C104.012 174.865 104.113 174.865 104.214 174.966C104.315 175.067 104.315 175.169 104.315 175.27C104.315 175.371 104.315 175.472 104.214 175.573C104.113 175.674 104.012 175.674 103.809 175.776C103.506 175.776 103.202 175.877 102.798 175.978C102.393 176.079 101.988 176.282 101.583 176.484C101.179 176.686 100.673 176.99 100.167 177.395C99.6611 177.799 99.1552 178.305 98.6493 178.912C98.4469 179.216 98.0422 179.722 97.5363 180.329C97.0304 181.037 96.4234 181.746 95.8163 182.656C95.2092 183.466 94.501 184.376 93.8939 185.287C93.1856 186.198 92.5785 187.108 91.9715 187.918C91.3644 188.727 90.8585 189.436 90.4538 190.043C90.0491 190.65 89.8467 191.055 89.7455 191.156C89.5432 191.561 89.442 191.965 89.3408 192.37C89.2396 192.775 89.2396 193.281 89.2396 193.888V206.334C89.2396 207.143 89.442 207.852 89.7455 208.357C90.1502 208.863 90.555 209.268 90.9597 209.572C91.4656 209.875 91.8703 210.078 92.3762 210.179C92.8821 210.28 93.1856 210.381 93.388 210.381C93.5903 210.381 93.6915 210.482 93.7927 210.584C93.8939 210.685 93.8939 210.786 93.8939 210.887C93.8939 210.988 93.7927 211.089 93.7927 211.191C93.6915 211.292 93.5903 211.292 93.388 211.292H76.6934C76.491 211.292 76.3899 211.292 76.2887 211.191C76.1875 211.089 76.1875 210.988 76.1875 210.887C76.1875 210.786 76.1875 210.685 76.2887 210.584C76.3899 210.482 76.491 210.482 76.6934 210.381C76.8958 210.381 77.1993 210.28 77.7052 210.179C78.2111 210.078 78.6158 209.875 79.1217 209.572C79.6276 209.268 80.0323 208.863 80.3359 208.357C80.7406 207.852 80.8418 207.143 80.8418 206.334V196.316C80.8418 196.114 80.8418 195.81 80.8418 195.608C80.8418 195.406 80.8418 195.102 80.7406 194.9C80.7406 194.697 80.6394 194.394 80.5382 194.191C80.437 193.989 80.3359 193.686 80.1335 193.382C80.0323 193.18 79.83 192.876 79.5264 192.471C79.2229 191.965 78.8182 191.459 78.4135 190.852C78.0087 190.245 77.5028 189.436 76.9969 188.727C76.491 187.918 75.9852 187.108 75.3781 186.299C74.8722 185.489 74.2651 184.68 73.7592 183.871C73.2533 183.061 72.7474 182.353 72.2415 181.644C71.8368 180.936 71.4321 180.43 71.1285 179.924C70.825 179.418 70.6226 179.115 70.4203 178.811C70.1168 178.406 69.8132 178.002 69.4085 177.698C69.0038 177.293 68.5991 176.99 68.1943 176.788C67.7896 176.484 67.3849 176.282 66.9802 176.18C66.5755 175.978 66.1708 175.877 65.8672 175.877C65.6649 175.877 65.5637 175.776 65.4625 175.674C65.3613 175.573 65.3613 175.472 65.3613 175.371C65.3613 175.27 65.4625 175.169 65.4625 175.067C65.5637 174.966 65.6649 174.966 65.8672 174.966H82.7642C82.9665 174.966 83.0677 174.966 83.1689 175.067C83.2701 175.169 83.2701 175.27 83.2701 175.371C83.2701 175.472 83.2701 175.573 83.1689 175.674C83.0677 175.776 82.9665 175.877 82.7642 175.877C82.5618 175.877 82.2583 175.978 81.9547 176.079C81.6512 176.18 81.3476 176.282 81.0441 176.484C80.7406 176.686 80.6394 176.889 80.5382 177.192C80.437 177.496 80.5382 177.901 80.7406 178.508C80.9429 178.912 81.1453 179.418 81.55 180.025C81.9547 180.734 82.3594 181.442 82.8653 182.252C83.3712 183.061 83.8771 183.871 84.383 184.68C84.8889 185.489 85.3948 186.299 85.9007 187.007C86.4066 187.716 86.7101 188.323 87.1149 188.829C87.4184 189.335 87.6208 189.638 87.7219 189.739C88.0255 190.043 88.2278 190.043 88.5314 189.84C88.6326 189.739 88.8349 189.436 89.2396 188.93C89.6443 188.424 90.0491 187.817 90.555 187.007C91.0609 186.299 91.6679 185.388 92.275 184.579C92.8821 183.769 93.4892 182.859 93.9951 182.049C94.501 181.24 95.0069 180.531 95.4116 179.924C96.1198 178.912 96.3222 178.508 96.4234 178.204Z" fill="#FCFCFC"/>
<path d="M134.569 202.792C134.671 202.489 134.873 202.388 135.075 202.388C135.278 202.388 135.379 202.59 135.379 202.894V210.786C135.379 211.09 135.176 211.292 134.772 211.292H107.251C107.049 211.292 106.947 211.292 106.846 211.191C106.745 211.09 106.745 210.989 106.745 210.887C106.745 210.786 106.745 210.685 106.846 210.584C106.947 210.483 107.049 210.483 107.251 210.381C107.453 210.381 107.757 210.28 108.263 210.179C108.769 210.078 109.173 209.875 109.679 209.572C110.185 209.268 110.59 208.864 110.893 208.358C111.298 207.852 111.399 207.143 111.399 206.334V180.026C111.399 179.216 111.197 178.508 110.893 178.002C110.489 177.496 110.084 177.091 109.679 176.788C109.275 176.484 108.769 176.282 108.263 176.181C107.757 176.079 107.453 175.978 107.251 175.978C107.049 175.978 106.947 175.877 106.846 175.776C106.745 175.675 106.745 175.574 106.745 175.472C106.745 175.371 106.846 175.27 106.846 175.169C106.947 175.068 107.049 175.068 107.251 175.068H124.451C124.654 175.068 124.755 175.068 124.856 175.169C124.957 175.27 124.957 175.371 124.957 175.472C124.957 175.574 124.957 175.675 124.856 175.776C124.755 175.877 124.654 175.978 124.451 175.978C124.249 175.978 123.844 176.079 123.44 176.181C122.934 176.282 122.529 176.484 122.023 176.788C121.517 177.091 121.113 177.496 120.809 178.002C120.505 178.508 120.303 179.216 120.303 180.026V207.852C120.303 208.257 120.404 208.661 120.505 208.864C120.607 209.167 120.809 209.37 121.214 209.471C121.517 209.572 122.023 209.673 122.63 209.774C123.237 209.774 124.047 209.875 124.957 209.875C126.172 209.875 127.183 209.774 128.094 209.471C129.005 209.167 129.814 208.762 130.522 208.358C131.23 207.953 131.838 207.447 132.242 206.84C132.748 206.334 133.153 205.727 133.456 205.221C133.76 204.715 134.064 204.31 134.165 203.906C134.367 203.197 134.569 202.894 134.569 202.792Z" fill="#FCFCFC"/>
<path d="M169.273 203.501C169.374 203.197 169.577 203.096 169.779 203.096C169.981 203.096 170.083 203.298 170.083 203.602V210.786C170.083 211.09 169.88 211.292 169.476 211.292H140.842C140.639 211.292 140.538 211.292 140.437 211.191C140.336 211.09 140.336 210.989 140.336 210.887C140.336 210.786 140.336 210.685 140.437 210.584C140.538 210.483 140.639 210.483 140.842 210.381C141.044 210.381 141.348 210.28 141.854 210.179C142.36 210.078 142.764 209.875 143.27 209.572C143.776 209.268 144.181 208.864 144.484 208.358C144.889 207.852 144.99 207.143 144.99 206.334V180.026C144.99 179.216 144.788 178.508 144.484 178.002C144.08 177.496 143.675 177.091 143.27 176.788C142.764 176.484 142.36 176.282 141.854 176.181C141.348 176.079 141.044 175.978 140.842 175.978C140.639 175.978 140.538 175.877 140.437 175.776C140.336 175.675 140.336 175.574 140.336 175.472C140.336 175.371 140.437 175.27 140.437 175.169C140.538 175.068 140.639 175.068 140.842 175.068H167.148C167.553 175.068 167.756 175.27 167.756 175.574V181.139C167.756 181.442 167.654 181.544 167.452 181.544C167.25 181.544 167.047 181.442 166.946 181.24C166.845 181.038 166.643 180.633 166.339 180.127C166.035 179.621 165.53 179.115 165.024 178.609C164.417 178.103 163.708 177.597 162.899 177.193C161.988 176.788 160.976 176.585 159.762 176.585C158.953 176.585 158.143 176.687 157.435 176.788C156.727 176.889 156.12 177.193 155.614 177.496C155.108 177.8 154.703 178.204 154.501 178.71C154.197 179.216 154.096 179.823 154.096 180.532V191.864V191.257C154.096 191.359 154.096 191.46 154.197 191.561C154.299 191.662 154.4 191.662 154.501 191.662H157.941C158.751 191.662 159.459 191.46 159.965 191.156C160.471 190.853 160.875 190.448 161.179 190.043C161.482 189.638 161.685 189.234 161.786 188.728C161.887 188.323 161.988 188.019 161.988 187.817C161.988 187.716 162.089 187.615 162.191 187.513C162.292 187.412 162.393 187.412 162.494 187.412C162.595 187.412 162.697 187.513 162.798 187.513C162.899 187.615 162.899 187.716 162.899 187.817V197.025C162.899 197.126 162.899 197.328 162.798 197.328C162.697 197.43 162.595 197.43 162.494 197.43C162.393 197.43 162.292 197.43 162.191 197.328C162.089 197.227 161.988 197.126 161.988 197.025C161.988 196.823 161.887 196.519 161.786 196.114C161.685 195.71 161.482 195.305 161.179 194.799C160.875 194.394 160.471 193.989 159.965 193.686C159.459 193.382 158.751 193.18 157.941 193.18H154.501C154.4 193.18 154.299 193.18 154.197 193.281C154.096 193.382 154.096 193.483 154.096 193.585V193.281V205.727C154.096 207.042 154.703 207.953 155.816 208.661C156.929 209.37 158.548 209.673 160.572 209.673C161.584 209.673 162.393 209.572 163.202 209.268C164.012 208.965 164.72 208.661 165.327 208.257C165.934 207.852 166.541 207.447 167.047 206.941C167.553 206.435 167.958 205.929 168.261 205.525C168.565 205.12 168.868 204.715 169.071 204.31C169.071 203.906 169.172 203.602 169.273 203.501Z" fill="#FCFCFC"/>
<path d="M221.785 209.774C221.988 209.976 222.19 210.078 222.19 210.28C222.19 210.482 222.19 210.583 221.988 210.685C221.887 210.786 221.785 210.887 221.583 211.089C221.381 211.292 221.178 211.393 220.774 211.494C220.47 211.595 220.065 211.696 219.559 211.798C219.054 211.899 218.447 211.899 217.839 211.899C216.929 211.899 216.221 211.798 215.512 211.494C214.804 211.292 214.197 210.887 213.691 210.583C213.185 210.179 212.679 209.774 212.173 209.369C211.769 208.964 211.364 208.459 210.959 208.155C210.858 208.054 210.656 207.851 210.453 207.548C210.251 207.346 209.947 206.941 209.745 206.637C209.644 206.536 209.543 206.435 209.442 206.435C209.34 206.435 209.239 206.536 209.138 206.637C208.733 207.345 208.329 208.054 207.823 208.661C207.317 209.268 206.71 209.875 206.103 210.381C205.394 210.887 204.686 211.191 203.877 211.494C203.067 211.798 202.157 211.899 201.145 211.899C200.133 211.899 199.121 211.696 198.211 211.393C197.3 211.089 196.491 210.583 195.884 210.078C195.175 209.47 194.669 208.762 194.366 207.851C193.961 206.941 193.759 205.929 193.759 204.816C193.759 203.602 193.961 202.489 194.467 201.477C194.973 200.465 195.58 199.554 196.288 198.644C196.997 197.834 197.907 197.025 198.818 196.316C199.728 195.608 200.639 195.001 201.448 194.596C201.752 194.495 201.752 194.191 201.651 193.888C201.145 192.775 200.639 191.763 200.335 190.751C200.032 189.739 199.83 188.93 199.83 188.12C199.83 187.108 200.032 186.198 200.538 185.489C200.943 184.781 201.55 184.174 202.258 183.668C202.966 183.162 203.776 182.859 204.787 182.555C205.698 182.353 206.71 182.251 207.722 182.251C208.43 182.251 209.239 182.353 209.947 182.555C210.656 182.757 211.263 183.061 211.87 183.466C212.376 183.87 212.882 184.376 213.185 184.983C213.489 185.591 213.691 186.299 213.691 187.108C213.691 188.323 213.286 189.436 212.578 190.346C211.87 191.257 210.959 191.864 209.745 192.37C209.644 192.471 209.543 192.471 209.442 192.572C209.34 192.674 209.442 192.775 209.543 192.977C210.15 193.989 210.757 195.102 211.465 196.114C212.173 197.227 212.882 198.239 213.691 199.352C213.893 199.655 214.096 199.655 214.298 199.453C215.108 198.542 215.816 197.733 216.625 197.227C217.435 196.62 218.244 196.417 219.155 196.417C220.167 196.417 220.976 196.721 221.583 197.328C222.19 197.935 222.494 198.745 222.494 199.757C222.494 200.06 222.393 200.465 222.291 200.87C222.19 201.274 221.988 201.578 221.684 201.881C221.381 202.185 221.077 202.387 220.672 202.59C220.268 202.792 219.863 202.893 219.357 202.893C218.143 202.893 217.232 202.286 216.828 201.173C216.726 200.971 216.625 200.667 216.524 200.364C216.423 200.06 216.221 199.959 215.816 199.959C215.715 199.959 215.512 199.959 215.31 200.06C215.108 200.161 214.905 200.263 214.703 200.465C214.501 200.667 214.501 200.768 214.602 201.072C215.31 202.084 216.119 203.096 216.828 204.108C217.536 205.018 218.244 205.929 218.851 206.738C219.458 207.548 220.065 208.155 220.47 208.661C221.178 209.167 221.583 209.572 221.785 209.774ZM205.698 206.334C206.204 206.334 206.609 206.334 207.013 206.232C207.418 206.131 207.823 206.03 208.227 205.828C208.43 205.727 208.531 205.625 208.531 205.423C208.531 205.322 208.531 205.119 208.43 205.018C207.924 204.411 207.519 203.703 207.013 202.995C206.507 202.286 206.001 201.477 205.496 200.667C204.99 199.858 204.484 199.048 203.978 198.239C203.472 197.429 202.966 196.62 202.561 195.709C202.46 195.608 202.359 195.507 202.258 195.507C202.157 195.507 202.055 195.608 201.954 195.709C201.347 196.215 200.943 196.923 200.538 197.733C200.234 198.542 200.032 199.453 200.032 200.465C200.032 201.376 200.133 202.185 200.437 202.893C200.74 203.602 201.145 204.209 201.651 204.715C202.157 205.221 202.764 205.625 203.472 205.929C204.079 206.232 204.889 206.334 205.698 206.334ZM209.037 184.275C208.733 184.275 208.531 184.275 208.227 184.376C207.924 184.478 207.722 184.579 207.418 184.68C207.216 184.882 207.013 185.085 206.811 185.388C206.609 185.692 206.609 185.995 206.609 186.501C206.609 187.007 206.811 187.614 207.114 188.424C207.418 189.233 207.823 190.144 208.43 191.156C208.531 191.257 208.632 191.358 208.733 191.459C208.834 191.459 208.936 191.459 209.138 191.358C209.745 191.055 210.251 190.751 210.555 190.346C210.858 190.043 211.162 189.638 211.364 189.334C211.566 189.031 211.668 188.626 211.769 188.323C211.87 188.019 211.87 187.715 211.87 187.412C211.87 187.007 211.769 186.704 211.668 186.299C211.566 185.894 211.364 185.591 211.162 185.388C210.959 185.085 210.656 184.882 210.251 184.68C209.846 184.376 209.442 184.275 209.037 184.275Z" fill="#FCFCFC"/>
<path d="M246.17 193.281C246.17 190.65 246.676 188.222 247.688 185.894C248.699 183.567 250.116 181.543 251.836 179.823C253.556 178.103 255.681 176.686 258.109 175.675C260.537 174.663 263.067 174.157 265.9 174.157C267.418 174.157 268.834 174.258 270.048 174.46C271.262 174.663 272.274 174.966 273.185 175.27C274.095 175.573 274.702 175.877 275.208 176.079C275.714 176.383 276.018 176.484 276.018 176.585C276.22 176.788 276.321 176.889 276.321 177.192V183.567C276.321 183.668 276.321 183.769 276.22 183.871C276.119 183.972 276.018 183.972 276.018 183.972C275.917 183.972 275.815 183.972 275.714 183.871C275.613 183.769 275.512 183.769 275.512 183.668C275.208 182.859 274.804 181.948 274.298 181.037C273.792 180.127 273.185 179.216 272.477 178.407C271.768 177.597 270.858 176.99 269.947 176.383C268.935 175.877 267.721 175.573 266.406 175.573C264.686 175.573 263.168 175.978 261.954 176.889C260.74 177.799 259.728 179.014 258.918 180.633C258.109 182.252 257.603 184.073 257.198 186.198C256.794 188.323 256.693 190.549 256.693 192.977C256.693 195.406 256.996 197.531 257.502 199.352C258.109 201.173 258.919 202.792 260.031 204.108C261.144 205.423 262.561 206.334 264.18 207.042C265.9 207.75 267.822 208.054 270.048 208.054C271.262 208.054 272.477 207.953 273.691 207.649C274.905 207.346 276.22 206.941 277.434 206.334C277.535 206.233 277.637 206.233 277.839 206.233C277.94 206.233 278.041 206.334 278.143 206.334C278.244 206.435 278.244 206.536 278.244 206.637C278.244 206.739 278.143 206.84 278.041 207.042C276.524 208.56 274.601 209.774 272.578 210.584C270.554 211.393 268.126 211.899 265.394 211.899C262.359 211.899 259.728 211.393 257.401 210.482C255.074 209.471 253.05 208.155 251.431 206.435C249.812 204.715 248.598 202.792 247.688 200.465C246.676 198.34 246.17 195.81 246.17 193.281Z" fill="#FCFCFC"/>
<path d="M310.923 202.792C311.024 202.489 311.226 202.388 311.429 202.388C311.631 202.388 311.732 202.59 311.732 202.894V210.786C311.732 211.09 311.53 211.292 311.125 211.292H283.605C283.402 211.292 283.301 211.292 283.2 211.191C283.099 211.09 283.099 210.989 283.099 210.887C283.099 210.786 283.099 210.685 283.2 210.584C283.301 210.483 283.402 210.483 283.605 210.381C283.807 210.381 284.11 210.28 284.616 210.179C285.122 210.078 285.527 209.875 286.033 209.572C286.539 209.268 286.943 208.864 287.247 208.358C287.652 207.852 287.753 207.143 287.753 206.334V180.026C287.753 179.216 287.551 178.508 287.247 178.002C286.842 177.496 286.438 177.091 286.033 176.788C285.527 176.484 285.122 176.282 284.616 176.181C284.11 176.079 283.807 175.978 283.605 175.978C283.402 175.978 283.301 175.877 283.2 175.776C283.099 175.675 283.099 175.574 283.099 175.472C283.099 175.371 283.2 175.27 283.2 175.169C283.301 175.068 283.402 175.068 283.605 175.068H300.805C301.007 175.068 301.109 175.068 301.21 175.169C301.311 175.27 301.311 175.371 301.311 175.472C301.311 175.574 301.311 175.675 301.21 175.776C301.109 175.877 301.007 175.978 300.805 175.978C300.603 175.978 300.198 176.079 299.793 176.181C299.287 176.282 298.883 176.484 298.377 176.788C297.871 177.091 297.466 177.496 297.163 178.002C296.758 178.508 296.657 179.216 296.657 180.026V207.852C296.657 208.257 296.758 208.661 296.859 208.864C296.96 209.167 297.163 209.37 297.567 209.471C297.871 209.572 298.377 209.673 298.984 209.774C299.591 209.774 300.4 209.875 301.311 209.875C302.525 209.875 303.537 209.774 304.447 209.471C305.358 209.167 306.168 208.762 306.876 208.358C307.584 207.953 308.191 207.447 308.596 206.84C309.102 206.334 309.506 205.727 309.81 205.221C310.114 204.715 310.417 204.31 310.518 203.906C310.721 203.197 310.822 202.894 310.923 202.792Z" fill="#FCFCFC"/>
<path d="M345.53 203.501C345.631 203.197 345.834 203.096 346.036 203.096C346.238 203.096 346.339 203.298 346.339 203.602V210.786C346.339 211.09 346.137 211.292 345.732 211.292H317.099C316.896 211.292 316.795 211.292 316.694 211.191C316.593 211.09 316.593 210.989 316.593 210.887C316.593 210.786 316.593 210.685 316.694 210.584C316.795 210.483 316.896 210.483 317.099 210.381C317.301 210.381 317.605 210.28 318.11 210.179C318.616 210.078 319.021 209.875 319.527 209.572C320.033 209.268 320.438 208.864 320.741 208.358C321.146 207.852 321.247 207.143 321.247 206.334V180.026C321.247 179.216 321.045 178.508 320.741 178.002C320.336 177.496 319.932 177.091 319.527 176.788C319.122 176.484 318.616 176.282 318.11 176.181C317.605 176.079 317.301 175.978 317.099 175.978C316.896 175.978 316.795 175.877 316.694 175.776C316.593 175.675 316.593 175.574 316.593 175.472C316.593 175.371 316.694 175.27 316.694 175.169C316.795 175.068 316.896 175.068 317.099 175.068H343.405C343.81 175.068 344.012 175.27 344.012 175.574V181.139C344.012 181.442 343.911 181.544 343.709 181.544C343.506 181.544 343.304 181.442 343.203 181.24C343.102 181.038 342.899 180.633 342.596 180.127C342.292 179.621 341.786 179.115 341.281 178.609C340.673 178.103 339.965 177.597 339.156 177.193C338.245 176.788 337.233 176.585 336.019 176.585C335.21 176.585 334.4 176.687 333.692 176.788C332.984 176.889 332.377 177.193 331.871 177.496C331.365 177.8 330.96 178.204 330.758 178.71C330.454 179.216 330.353 179.823 330.353 180.532V191.864V191.257C330.353 191.359 330.353 191.46 330.454 191.561C330.556 191.662 330.657 191.662 330.758 191.662H334.198C335.007 191.662 335.716 191.46 336.222 191.156C336.727 190.853 337.132 190.448 337.436 190.043C337.739 189.638 337.942 189.234 338.043 188.728C338.144 188.323 338.245 188.019 338.245 187.817C338.245 187.716 338.346 187.615 338.447 187.513C338.549 187.412 338.65 187.412 338.751 187.412C338.852 187.412 338.953 187.513 339.055 187.513C339.156 187.615 339.156 187.716 339.156 187.817V197.025C339.156 197.126 339.156 197.328 339.055 197.328C338.953 197.43 338.852 197.43 338.751 197.43C338.65 197.43 338.549 197.43 338.447 197.328C338.346 197.227 338.245 197.126 338.245 197.025C338.245 196.823 338.144 196.519 338.043 196.114C337.942 195.71 337.739 195.305 337.436 194.799C337.132 194.394 336.727 193.989 336.222 193.686C335.716 193.382 335.007 193.18 334.198 193.18H330.758C330.657 193.18 330.556 193.18 330.454 193.281C330.353 193.382 330.353 193.483 330.353 193.585V193.281V205.727C330.353 207.042 330.96 207.953 332.073 208.661C333.186 209.37 334.805 209.673 336.829 209.673C337.84 209.673 338.65 209.572 339.459 209.268C340.269 208.965 340.977 208.661 341.584 208.257C342.191 207.852 342.798 207.447 343.304 206.941C343.81 206.435 344.215 205.929 344.518 205.525C344.822 205.12 345.125 204.715 345.328 204.31C345.328 203.906 345.53 203.602 345.53 203.501Z" fill="#FCFCFC"/>
<path d="M428.898 174.966C428.999 175.067 428.999 175.169 428.999 175.27C428.999 175.371 428.999 175.472 428.898 175.573C428.797 175.674 428.696 175.776 428.493 175.776C428.291 175.776 427.886 175.877 427.482 175.978C426.976 176.079 426.571 176.282 426.065 176.585C425.559 176.889 425.155 177.293 424.851 177.799C424.547 178.305 424.345 179.014 424.345 179.823V210.887C424.345 211.191 424.244 211.292 424.042 211.393C423.839 211.494 423.637 211.393 423.333 211.191C423.232 211.089 423.03 210.786 422.524 210.28C422.018 209.673 421.411 208.965 420.602 208.054C419.792 207.143 418.881 206.03 417.87 204.816C416.858 203.602 415.745 202.286 414.531 200.87C413.418 199.453 412.204 198.037 410.989 196.62C409.775 195.203 408.561 193.787 407.448 192.37C406.335 190.954 405.222 189.739 404.21 188.525C403.199 187.311 402.288 186.198 401.479 185.287C400.669 184.376 400.062 183.668 399.657 183.061C399.152 182.555 398.949 182.252 398.949 182.252C398.848 182.15 398.747 182.049 398.646 182.15C398.544 182.15 398.544 182.252 398.544 182.454V206.131C398.544 206.941 398.747 207.649 399.05 208.155C399.455 208.661 399.86 209.066 400.264 209.369C400.77 209.673 401.175 209.875 401.681 209.976C402.187 210.078 402.49 210.179 402.693 210.179C402.895 210.179 402.996 210.28 403.097 210.381C403.199 210.482 403.199 210.584 403.199 210.685C403.199 210.786 403.097 210.887 403.097 210.988C402.996 211.089 402.895 211.089 402.693 211.089H392.474C392.271 211.089 392.17 211.089 392.069 210.988C391.968 210.887 391.968 210.786 391.968 210.685C391.968 210.584 391.968 210.482 392.069 210.381C392.17 210.28 392.271 210.28 392.474 210.179C392.676 210.179 393.081 210.078 393.485 209.976C393.991 209.875 394.396 209.673 394.902 209.369C395.408 209.066 395.813 208.661 396.116 208.155C396.521 207.649 396.622 206.941 396.622 206.131V179.823C396.622 179.014 396.42 178.305 396.116 177.799C395.711 177.293 395.307 176.889 394.902 176.585C394.396 176.282 393.991 176.079 393.485 175.978C392.98 175.877 392.676 175.776 392.474 175.776C392.271 175.776 392.17 175.674 392.069 175.573C391.968 175.472 391.968 175.371 391.968 175.27C391.968 175.169 392.069 175.067 392.069 174.966C392.17 174.865 392.271 174.865 392.474 174.865H403.199C403.806 174.865 404.21 175.067 404.514 175.472C404.818 175.877 405.323 176.484 406.032 177.293C406.74 178.103 407.448 179.014 408.359 180.025C409.269 181.037 410.18 182.15 411.192 183.365C412.204 184.579 413.215 185.793 414.227 186.906C415.239 188.12 416.15 189.233 417.06 190.346C417.971 191.459 418.78 192.37 419.489 193.281C420.197 194.09 420.804 194.799 421.209 195.304C421.613 195.81 421.917 196.114 421.917 196.114C422.018 196.215 422.22 196.316 422.22 196.316C422.322 196.316 422.322 196.215 422.322 196.013V179.924C422.322 179.115 422.119 178.406 421.816 177.901C421.411 177.395 421.006 176.99 420.602 176.686C420.197 176.383 419.691 176.18 419.185 176.079C418.679 175.978 418.376 175.877 418.173 175.877C417.971 175.877 417.87 175.776 417.768 175.674C417.667 175.573 417.667 175.472 417.667 175.371C417.667 175.27 417.768 175.169 417.768 175.067C417.87 174.966 417.971 174.966 418.173 174.966H428.392C428.696 174.865 428.797 174.865 428.898 174.966Z" fill="#FCFCFC"/>
<path d="M388.732 210.583C388.631 210.482 388.53 210.381 388.429 210.381C387.923 210.28 387.417 210.179 386.911 209.875C386.405 209.673 386 209.369 385.494 208.964C385.09 208.56 384.685 208.054 384.28 207.548C383.876 206.941 383.572 206.334 383.37 205.524C383.268 205.119 382.965 204.411 382.661 203.298C382.358 202.185 381.852 200.87 381.346 199.352C380.84 197.834 380.233 196.114 379.626 194.293C379.019 192.471 378.412 190.65 377.805 188.727C377.198 186.906 376.591 185.085 375.984 183.364C375.377 181.644 374.871 180.025 374.466 178.71C373.96 177.395 373.353 175.472 373.353 175.371C373.252 175.168 373.151 174.966 373.049 174.966C372.948 174.966 372.948 174.966 372.847 174.966H366.169C365.967 174.966 365.764 175.067 365.663 175.168C365.562 175.27 365.461 175.472 365.36 175.674C365.36 175.776 364.955 176.686 364.651 177.597C364.348 178.406 363.943 179.519 363.539 180.936C363.033 182.251 362.527 183.87 361.92 185.591C361.313 187.311 360.705 189.132 359.997 190.953C359.39 192.775 358.682 194.596 358.075 196.417C357.468 198.239 356.861 199.858 356.355 201.376C355.849 202.893 355.444 204.108 355.039 205.119C354.635 206.131 354.432 206.738 354.331 207.042C354.129 207.548 353.825 208.054 353.522 208.459C353.218 208.863 352.814 209.167 352.51 209.47C352.105 209.774 351.701 209.976 351.296 210.179C350.891 210.381 350.385 210.482 349.879 210.685C349.778 210.685 349.677 210.786 349.576 210.887C349.475 210.988 349.475 211.089 349.475 211.191C349.475 211.292 349.576 211.393 349.576 211.393C349.576 211.393 349.778 211.494 349.879 211.494H359.896C359.997 211.494 360.098 211.494 360.2 211.393C360.301 211.292 360.301 211.191 360.402 211.089C360.402 210.988 360.402 210.887 360.301 210.786C360.2 210.685 360.098 210.583 359.997 210.583C359.694 210.482 359.39 210.381 358.985 210.28C358.581 210.179 358.176 209.976 357.873 209.774C357.468 209.572 357.265 209.167 357.063 208.762C356.861 208.357 356.861 207.851 356.962 207.143C356.962 207.042 357.063 206.738 357.164 206.334C357.265 205.929 357.468 205.423 357.67 204.816C357.872 204.209 358.075 203.602 358.277 202.893C358.48 202.185 358.682 201.578 358.884 200.87C359.087 200.262 359.289 199.655 359.39 199.149C359.491 198.644 359.694 198.239 359.694 198.036C359.795 197.935 359.896 197.834 359.997 197.834H371.633C371.734 197.834 371.835 197.935 371.936 198.036C371.936 198.138 372.038 198.34 372.139 198.644C372.24 199.048 372.442 199.453 372.543 199.959C372.746 200.465 372.847 201.072 373.049 201.679C373.252 202.286 373.454 202.893 373.656 203.399C373.859 204.006 373.96 204.512 374.162 204.917C374.365 205.423 374.466 205.727 374.567 205.929C374.871 206.84 374.871 207.548 374.668 208.054C374.466 208.56 374.061 209.066 373.656 209.369C373.252 209.673 372.746 209.976 372.341 210.078C371.835 210.179 371.532 210.28 371.431 210.381C371.228 210.482 371.127 210.482 371.026 210.583C370.925 210.685 370.925 210.786 370.925 210.887C370.925 210.988 371.026 211.089 371.127 211.191C371.228 211.292 371.329 211.292 371.431 211.292H388.327C388.53 211.292 388.631 211.292 388.732 211.191C388.833 211.089 388.833 210.988 388.935 210.887C388.833 210.685 388.732 210.583 388.732 210.583ZM370.823 195.912H360.604C360.402 195.912 360.301 195.81 360.402 195.608C360.604 195.001 360.807 194.191 361.211 193.179C361.515 192.168 361.818 191.055 362.223 189.942C362.628 188.829 362.931 187.614 363.336 186.501C363.741 185.287 364.044 184.275 364.348 183.263C364.652 182.353 364.854 181.543 365.056 180.936C365.259 180.329 365.36 180.025 365.36 179.924C365.36 179.823 365.461 179.722 365.562 179.722C365.663 179.722 365.764 179.722 365.764 179.924C365.764 179.924 365.866 180.127 365.967 180.632C366.068 181.037 366.27 181.644 366.574 182.353C366.776 183.061 367.08 183.87 367.383 184.882C367.687 185.793 367.99 186.704 368.294 187.715C368.597 188.727 368.901 189.638 369.205 190.549C369.508 191.459 369.812 192.37 370.014 193.078C370.216 193.787 370.419 194.394 370.621 194.9C370.722 195.406 370.823 195.608 370.925 195.709C371.127 195.81 371.026 195.912 370.823 195.912Z" fill="#FCFCFC"/>
</svg>
