<svg width="208" height="36" viewBox="0 0 208 36" fill="none" xmlns="http://www.w3.org/2000/svg">
<path d="M22.3003 35.9402V28.9346H23.0644V35.2396H26.6497V35.8818H22.3003V35.9402Z" fill="white"/>
<path d="M34.0567 35.9412L33.469 34.3649H30.4126L29.8248 35.9412H29.002L31.5881 28.9355H32.2934L34.8796 35.9412H34.0567ZM31.9995 30.0448L30.7065 33.7227H33.3514L31.9995 30.0448Z" fill="white"/>
<path d="M39.5812 35.9412H38.9935L36.7012 28.9355H37.4653L39.2873 34.5984L41.1094 28.9355H41.8735L39.5812 35.9412Z" fill="white"/>
<path d="M48.7496 35.9412L48.1618 34.3649H45.1055L44.5177 35.9412H43.6948L46.281 28.9355H46.9275L49.5137 35.9412H48.7496ZM46.6336 30.0448L45.3406 33.7227H47.9855L46.6336 30.0448Z" fill="white"/>
<path d="M57.0964 35.9412L53.3935 30.3367V35.9412H52.6294V28.9355H53.3347L57.0376 34.54V28.9355H57.8017V35.9412H57.0964Z" fill="white"/>
<path d="M66.0315 35.299C65.6201 35.7076 64.9735 35.9412 64.2682 35.9412H61.8584V28.9355H64.2682C64.9735 28.9355 65.6201 29.1691 66.0315 29.5777C66.7368 30.2783 66.7368 31.3875 66.7368 32.3216C66.6781 33.3141 66.7368 34.54 66.0315 35.299ZM65.5025 30.1031C65.1499 29.7529 64.6797 29.5777 64.0919 29.5777H62.5637V35.2406H64.0919C64.6209 35.2406 65.0911 35.1238 65.5025 34.7152C65.9727 34.1898 65.9727 33.1973 65.9727 32.3216C65.9727 31.5043 65.9727 30.6286 65.5025 30.1031Z" fill="white"/>
<path d="M70.437 35.9412V28.9355H74.7865V29.5777H71.2011V32.0297H74.2575V32.6719H71.2011V35.1822H74.7865V35.8244H70.437V35.9412Z" fill="white"/>
<path d="M82.3705 35.9412L80.7835 32.847H79.079V35.9412H78.3149V28.9355H81.0186C82.253 28.9355 83.0758 29.6945 83.0758 30.8621C83.0758 31.8546 82.4293 32.5551 81.5476 32.7303L83.1934 35.8828H82.3705V35.9412ZM80.9599 29.6361H79.079V32.2048H80.9599C81.7827 32.2048 82.3705 31.7962 82.3705 30.9205C82.3705 30.0448 81.7827 29.6361 80.9599 29.6361Z" fill="white"/>
<path d="M87.1905 28.2938H86.5439L87.4256 26.7759H88.2485L87.1905 28.2938ZM86.779 35.9415V28.9359H87.5431V35.9415H86.779Z" fill="white"/>
<path d="M95.6524 35.9412L95.0647 34.3649H92.0083L91.4205 35.9412H90.5977L93.1838 28.9355H93.8304L96.4165 35.9412H95.6524ZM93.5365 30.0448L92.2434 33.7227H94.8883L93.5365 30.0448Z" fill="white"/>
<path d="M106.88 35.9412V28.9355H107.644V35.9412H106.88Z" fill="white"/>
<path d="M116.109 35.9412L112.406 30.3367V35.9412H111.642V28.9355H112.347L116.05 34.54V28.9355H116.814V35.9412H116.109Z" fill="white"/>
<path d="M122.868 29.6368V35.9419H122.104V29.6368H120.047V28.9946H124.867V29.6368H122.868Z" fill="white"/>
<path d="M128.216 35.9412V28.9355H132.565V29.5777H128.98V32.0297H132.036V32.6719H128.98V35.1822H132.565V35.8244H128.216V35.9412Z" fill="white"/>
<path d="M136.092 35.9412V28.9355H136.856V35.2406H140.442V35.8828H136.092V35.9412Z" fill="white"/>
<path d="M143.73 35.9412V28.9355H144.494V35.9412H143.73Z" fill="white"/>
<path d="M152.55 35.1829C152.08 35.7083 151.375 36.0002 150.669 36.0002C149.964 36.0002 149.376 35.7667 148.847 35.2997C148.201 34.6575 148.201 33.9569 148.201 32.4974C148.201 31.0379 148.201 30.3374 148.847 29.6952C149.317 29.2281 149.964 28.9946 150.669 28.9946C152.021 28.9946 152.903 29.8703 153.138 31.0963H152.374C152.197 30.2206 151.551 29.6952 150.669 29.6952C150.199 29.6952 149.788 29.8703 149.435 30.2206C148.965 30.6876 148.965 31.1547 148.965 32.6142C148.965 34.0737 149.024 34.5407 149.435 35.0078C149.729 35.2997 150.199 35.4748 150.669 35.4748C151.198 35.4748 151.668 35.2413 152.021 34.891C152.315 34.5407 152.433 34.1905 152.433 33.6067V33.0812H150.728V32.439H153.197V33.5483C153.138 34.1905 152.962 34.7159 152.55 35.1829Z" fill="white"/>
<path d="M156.9 35.9412V28.9355H161.249V29.5777H157.664V32.0297H160.72V32.6719H157.664V35.1822H161.249V35.8244H156.9V35.9412Z" fill="white"/>
<path d="M169.243 35.9412L165.54 30.3367V35.9412H164.776V28.9355H165.481L169.184 34.54V28.9355H169.948V35.9412H169.243Z" fill="white"/>
<path d="M176.061 29.6368V35.9419H175.296V29.6368H173.239V28.9946H178.059V29.6368H176.061Z" fill="white"/>
<path d="M181.35 35.9412V28.9355H185.7V29.5777H182.114V32.0297H185.171V32.6719H182.114V35.1822H185.7V35.8244H181.35V35.9412Z" fill="white"/>
<path d="M0 17.8363V13.1944C0 13.0478 0.0490569 12.9501 0.147171 12.9501C0.245285 12.9501 0.343398 12.9989 0.392455 13.0967C0.686797 13.8296 1.0302 14.416 1.42265 15.0023C1.81511 15.5398 2.20756 16.0284 2.64907 16.3705C3.09059 16.7614 3.58115 17.0057 4.12078 17.2011C4.66041 17.3966 5.24909 17.4943 5.93589 17.4943C6.32834 17.4943 6.67174 17.4454 7.01514 17.3477C7.35854 17.25 7.65288 17.0545 7.89816 16.8102C8.14345 16.5659 8.33967 16.2727 8.48684 15.9307C8.63402 15.5887 8.73213 15.1489 8.73213 14.6114C8.73213 14.1228 8.63402 13.683 8.48684 13.341C8.29062 12.9501 8.04533 12.6569 7.75099 12.3637C7.45665 12.0705 7.11325 11.8262 6.7208 11.6308C6.32834 11.4353 5.93589 11.2399 5.54343 11.0444C5.10192 10.849 4.66041 10.6535 4.21889 10.4581C3.77738 10.2626 3.38493 10.0183 2.99247 9.77399C2.60002 9.52968 2.25662 9.2365 1.91322 8.89446C1.56982 8.55242 1.32454 8.16151 1.07925 7.72175C0.883024 7.33085 0.735854 6.93995 0.63774 6.54904C0.539626 6.15814 0.490569 5.71838 0.490569 5.32747C0.490569 4.69226 0.588683 4.1059 0.833967 3.47069C1.0302 2.83547 1.42265 2.29798 1.91322 1.76049C2.40379 1.27186 3.04153 0.832097 3.8755 0.538921C4.70946 0.245744 5.64154 0.050293 6.81891 0.050293C7.55476 0.050293 8.1925 0.0991602 8.73213 0.245749C9.27175 0.392337 9.71327 0.490056 10.1057 0.636645C10.4491 0.783233 10.7435 0.929823 10.9397 1.02755C11.1359 1.17414 11.234 1.223 11.2831 1.27186C11.3812 1.36959 11.4303 1.41845 11.4303 1.56504V3.91046C11.4303 3.95932 11.4303 4.00818 11.3812 4.05704C11.3321 4.1059 11.2831 4.10591 11.2831 4.10591C11.234 4.10591 11.185 4.1059 11.1359 4.05704C11.0869 4.05704 11.0378 4.00818 11.0378 3.91046C10.8906 3.51955 10.6944 3.12865 10.4491 2.73775C10.2038 2.34684 9.95855 2.00481 9.61515 1.71163C9.27176 1.41846 8.83024 1.17414 8.33967 0.97869C7.8491 0.783239 7.26042 0.685511 6.57363 0.685511C5.6906 0.685511 4.95475 0.880963 4.46418 1.32073C3.97361 1.76049 3.72832 2.29798 3.72832 3.03093C3.72832 3.47069 3.77738 3.81273 3.92455 4.10591C4.07172 4.39908 4.31701 4.69226 4.66041 4.98544C5.0038 5.27861 5.44532 5.52293 5.98494 5.8161C6.52457 6.10928 7.26042 6.40245 8.09439 6.74449C8.92836 7.08653 9.61515 7.42858 10.2529 7.81948C10.8906 8.21038 11.3812 8.65014 11.8227 9.08991C12.2642 9.57853 12.5586 10.116 12.7548 10.7024C12.951 11.2887 13.0982 11.9728 13.0982 12.7546C13.0982 13.5364 12.951 14.2205 12.7057 14.9046C12.4114 15.5887 12.0189 16.175 11.4303 16.6636C10.8416 17.1523 10.1548 17.5432 9.27175 17.8363C8.38873 18.1295 7.40759 18.2761 6.23023 18.2761C5.49437 18.2761 4.75852 18.1784 4.02267 17.9829C3.28681 17.7875 2.60002 17.592 1.91322 17.3477C1.81511 17.2989 1.71699 17.2989 1.61888 17.25C1.52076 17.2011 1.37359 17.2011 1.27548 17.2011C1.07925 17.2011 0.932081 17.25 0.833967 17.3966C0.735854 17.5432 0.63774 17.6898 0.539626 17.8852C0.490569 17.9829 0.392455 18.0807 0.294341 18.0318C0.0490569 18.0807 0 17.9829 0 17.8363Z" fill="white"/>
<path d="M30.7575 0.585341V4.20118C30.7575 4.34777 30.7084 4.39664 30.6103 4.4455C30.5122 4.4455 30.4141 4.39664 30.365 4.25005C30.316 4.15232 30.2669 4.0546 30.1688 3.85915C30.0707 3.66369 29.9726 3.46824 29.8254 3.22393C29.6782 2.97961 29.482 2.7353 29.2367 2.49099C28.9914 2.24667 28.7462 2.00236 28.4518 1.80691C28.1575 1.61146 27.8141 1.41601 27.4216 1.26942C27.0292 1.12283 26.6367 1.07397 26.1461 1.07397C25.9499 1.07397 25.7537 1.12283 25.6065 1.17169C25.4593 1.22056 25.3612 1.31828 25.2631 1.41601C25.165 1.51373 25.1159 1.66032 25.0669 1.80691C25.0178 1.9535 25.0178 2.10008 25.0178 2.24667V15.4396C25.0178 15.8305 25.1159 16.1726 25.2631 16.4169C25.4593 16.6612 25.6556 16.8566 25.8518 17.0032C26.0971 17.1498 26.2933 17.2475 26.5386 17.2964C26.7839 17.3453 26.931 17.3941 27.0292 17.3941C27.1273 17.3941 27.1763 17.443 27.2254 17.4919C27.2744 17.5407 27.2744 17.5896 27.2744 17.6384C27.2744 17.6873 27.2254 17.7362 27.2254 17.785C27.2254 17.8339 27.1273 17.8339 27.0292 17.8339H18.6895C18.5914 17.8339 18.5423 17.8339 18.4933 17.785C18.4442 17.7362 18.4442 17.6873 18.4442 17.6384C18.4442 17.5896 18.4442 17.5407 18.4933 17.4919C18.5423 17.443 18.5914 17.443 18.6895 17.3941C18.7876 17.3941 18.9838 17.3453 19.1801 17.2964C19.4253 17.2475 19.6216 17.1498 19.8669 17.0032C20.1121 16.8566 20.3084 16.6612 20.4555 16.4169C20.6518 16.1726 20.7008 15.8305 20.7008 15.4396C20.7008 15.3908 20.7008 15.1464 20.7008 14.8044C20.7008 14.4135 20.7008 13.9737 20.7008 13.4363C20.7008 12.8988 20.7008 12.2635 20.7008 11.5795C20.7008 10.8954 20.7008 10.1624 20.7008 9.4295C20.7008 8.69656 20.7008 7.96362 20.7008 7.27954C20.7008 6.59546 20.7008 5.91138 20.7008 5.32503C20.7008 4.73868 20.7008 4.20118 20.7008 3.81028C20.7008 3.37052 20.7008 3.07734 20.7008 2.93076C20.7008 2.7353 20.7008 2.49099 20.7008 2.29554C20.7008 2.10009 20.6518 1.90464 20.5537 1.70919C20.5046 1.5626 20.3574 1.41601 20.2103 1.31828C20.0631 1.22056 19.8178 1.17169 19.5725 1.17169C19.0819 1.17169 18.6895 1.22055 18.297 1.36714C17.9046 1.51373 17.5612 1.66032 17.2668 1.90463C16.9725 2.10009 16.6782 2.3444 16.4819 2.58871C16.2366 2.83302 16.0404 3.07734 15.8932 3.32165C15.7461 3.56597 15.5989 3.76142 15.5008 3.95687C15.4027 4.15232 15.3536 4.29891 15.3046 4.34777C15.2555 4.49436 15.1574 4.54322 15.0593 4.54322C14.9612 4.54322 14.9121 4.4455 14.9121 4.29891V0.683065C14.9121 0.536477 15.0102 0.438751 15.2065 0.438751H30.4631C30.6594 0.341026 30.7575 0.438753 30.7575 0.585341Z" fill="white"/>
<path d="M46.7494 1.95427C46.8966 1.66109 46.9457 1.46564 46.8966 1.31905C46.8475 1.17246 46.7985 1.07474 46.6513 0.977014C46.5041 0.879289 46.406 0.830425 46.2098 0.830425C46.0626 0.781562 45.9155 0.781559 45.8174 0.781559C45.7192 0.781559 45.6702 0.732698 45.6211 0.683835C45.5721 0.634972 45.5721 0.586108 45.5721 0.537245C45.5721 0.488382 45.6211 0.439518 45.6211 0.390655C45.6702 0.341792 45.7192 0.341797 45.8174 0.341797H50.3306C50.4287 0.341797 50.4778 0.341792 50.5268 0.390655C50.5759 0.439518 50.5759 0.488382 50.5759 0.537245C50.5759 0.586108 50.5759 0.634972 50.5268 0.683835C50.4778 0.732698 50.4287 0.732696 50.3306 0.781559C50.1834 0.781559 50.0362 0.83042 49.84 0.879283C49.6438 0.928146 49.4476 1.02587 49.2513 1.1236C49.0551 1.22132 48.8098 1.36792 48.5645 1.56337C48.3193 1.75882 48.074 2.00313 47.8287 2.29631C47.7306 2.4429 47.5343 2.68721 47.2891 2.98038C47.0438 3.32242 46.7494 3.66446 46.4551 4.10423C46.1607 4.49513 45.8174 4.9349 45.523 5.37466C45.1796 5.81443 44.8853 6.25419 44.5909 6.64509C44.2966 7.03599 44.0513 7.37804 43.8551 7.67121C43.6588 7.96439 43.5607 8.15984 43.5117 8.2087C43.4136 8.40415 43.3645 8.59961 43.3155 8.79506C43.2664 8.99051 43.2664 9.23482 43.2664 9.528V15.5381C43.2664 15.929 43.3645 16.2711 43.5117 16.5154C43.7079 16.7597 43.9041 16.9551 44.1004 17.1017C44.3456 17.2483 44.5419 17.346 44.7872 17.3949C45.0324 17.4438 45.1796 17.4926 45.2777 17.4926C45.3758 17.4926 45.4249 17.5415 45.474 17.5904C45.523 17.6392 45.523 17.6881 45.523 17.7369C45.523 17.7858 45.474 17.8347 45.474 17.8835C45.4249 17.9324 45.3758 17.9324 45.2777 17.9324H37.1833C37.0852 17.9324 37.0362 17.9324 36.9871 17.8835C36.9381 17.8347 36.9381 17.7858 36.9381 17.7369C36.9381 17.6881 36.9381 17.6392 36.9871 17.5904C37.0362 17.5415 37.0852 17.5415 37.1833 17.4926C37.2815 17.4926 37.4286 17.4438 37.6739 17.3949C37.9192 17.346 38.1154 17.2483 38.3607 17.1017C38.606 16.9551 38.8022 16.7597 38.9494 16.5154C39.1456 16.2711 39.1947 15.929 39.1947 15.5381V10.7007C39.1947 10.603 39.1947 10.4564 39.1947 10.3587C39.1947 10.2609 39.1947 10.1144 39.1456 10.0166C39.1456 9.9189 39.0966 9.77231 39.0475 9.67458C38.9984 9.57686 38.9494 9.43027 38.8513 9.28369C38.8022 9.18596 38.7041 9.03937 38.5569 8.84392C38.4098 8.5996 38.2135 8.35529 38.0173 8.06212C37.8211 7.76894 37.5758 7.37804 37.3305 7.036C37.0852 6.64509 36.8399 6.25419 36.5456 5.86329C36.3003 5.47239 36.006 5.08148 35.7607 4.69058C35.5154 4.29968 35.2701 3.95764 35.0248 3.6156C34.8286 3.27356 34.6324 3.02925 34.4852 2.78494C34.338 2.54062 34.2399 2.39403 34.1418 2.24744C33.9946 2.05199 33.8475 1.85654 33.6512 1.70996C33.455 1.5145 33.2588 1.36791 33.0626 1.27019C32.8663 1.1236 32.6701 1.02588 32.4739 0.977014C32.2776 0.879289 32.0814 0.830425 31.9342 0.830425C31.8361 0.830425 31.7871 0.781563 31.738 0.732701C31.689 0.683838 31.689 0.634974 31.689 0.586111C31.689 0.537248 31.738 0.488384 31.738 0.439521C31.7871 0.390658 31.8361 0.390655 31.9342 0.390655H40.1268C40.2249 0.390655 40.2739 0.390658 40.323 0.439521C40.372 0.488384 40.372 0.537248 40.372 0.586111C40.372 0.634974 40.372 0.683838 40.323 0.732701C40.2739 0.781563 40.2249 0.830425 40.1268 0.830425C40.0286 0.830425 39.8815 0.879286 39.7343 0.928149C39.5871 0.977011 39.44 1.02587 39.2928 1.1236C39.1456 1.22132 39.0966 1.31905 39.0475 1.46564C38.9984 1.61223 39.0475 1.80768 39.1456 2.10085C39.2437 2.2963 39.3418 2.54062 39.5381 2.83379C39.7343 3.17583 39.9305 3.51788 40.1758 3.90878C40.4211 4.29968 40.6664 4.69058 40.9117 5.08148C41.1569 5.47239 41.4022 5.86329 41.6475 6.20533C41.8928 6.54737 42.04 6.84055 42.2362 7.08486C42.3834 7.32918 42.4815 7.47576 42.5305 7.52462C42.6777 7.67121 42.7758 7.67121 42.923 7.57349C42.9721 7.52463 43.0702 7.37803 43.2664 7.13372C43.4626 6.88941 43.6588 6.59623 43.9041 6.20533C44.1494 5.86329 44.4438 5.42352 44.7381 5.03262C45.0324 4.64172 45.3268 4.20195 45.5721 3.81105C45.8174 3.42015 46.0626 3.07811 46.2589 2.78494C46.6023 2.29631 46.7004 2.10086 46.7494 1.95427Z" fill="white"/>
<path d="M65.245 13.8279C65.2941 13.6813 65.3922 13.6324 65.4903 13.6324C65.5884 13.6324 65.6375 13.7301 65.6375 13.8767V17.688C65.6375 17.8346 65.5394 17.9323 65.3432 17.9323H51.9997C51.9016 17.9323 51.8525 17.9323 51.8035 17.8835C51.7544 17.8346 51.7544 17.7857 51.7544 17.7369C51.7544 17.688 51.7544 17.6392 51.8035 17.5903C51.8525 17.5414 51.9016 17.5414 51.9997 17.4926C52.0978 17.4926 52.245 17.4437 52.4902 17.3948C52.7355 17.346 52.9318 17.2483 53.177 17.1017C53.4223 16.9551 53.6186 16.7596 53.7657 16.5153C53.962 16.271 54.011 15.929 54.011 15.538V2.83373C54.011 2.44282 53.9129 2.10078 53.7657 1.85647C53.5695 1.61216 53.3733 1.41671 53.177 1.27012C52.9808 1.12353 52.7355 1.02581 52.4902 0.976947C52.245 0.928084 52.0978 0.879215 51.9997 0.879215C51.9016 0.879215 51.8525 0.830354 51.8035 0.781491C51.7544 0.732628 51.7544 0.683764 51.7544 0.634901C51.7544 0.586038 51.8035 0.537182 51.8035 0.488319C51.8525 0.439456 51.9016 0.439453 51.9997 0.439453H60.3394C60.4375 0.439453 60.4865 0.439456 60.5356 0.488319C60.5846 0.537182 60.5846 0.586038 60.5846 0.634901C60.5846 0.683764 60.5846 0.732628 60.5356 0.781491C60.4865 0.830354 60.4375 0.879215 60.3394 0.879215C60.2412 0.879215 60.045 0.928084 59.8488 0.976947C59.6035 1.02581 59.4073 1.12353 59.162 1.27012C58.9167 1.41671 58.7205 1.61216 58.5733 1.85647C58.4261 2.10078 58.328 2.44282 58.328 2.83373V16.271C58.328 16.4664 58.3771 16.6619 58.4261 16.7596C58.4752 16.9062 58.5733 17.0039 58.7695 17.0528C58.9167 17.1017 59.162 17.1505 59.4563 17.1994C59.7507 17.1994 60.1431 17.2482 60.5846 17.2482C61.1733 17.2482 61.6639 17.1994 62.1054 17.0528C62.5469 16.9062 62.9394 16.7108 63.2828 16.5153C63.6262 16.3199 63.9205 16.0755 64.1167 15.7824C64.362 15.538 64.5582 15.2449 64.7054 15.0006C64.8526 14.7562 64.9998 14.5608 65.0488 14.3653C65.1469 14.0233 65.245 13.8767 65.245 13.8279Z" fill="white"/>
<path d="M82.0747 14.1699C82.1238 14.0233 82.2219 13.9744 82.32 13.9744C82.4181 13.9744 82.4672 14.0722 82.4672 14.2188V17.688C82.4672 17.8346 82.369 17.9323 82.1728 17.9323H68.2897C68.1916 17.9323 68.1426 17.9323 68.0935 17.8835C68.0444 17.8346 68.0444 17.7857 68.0444 17.7369C68.0444 17.688 68.0444 17.6392 68.0935 17.5903C68.1426 17.5414 68.1916 17.5414 68.2897 17.4926C68.3878 17.4926 68.535 17.4437 68.7803 17.3948C69.0256 17.346 69.2218 17.2483 69.4671 17.1017C69.7124 16.9551 69.9086 16.7596 70.0558 16.5153C70.252 16.271 70.3011 15.929 70.3011 15.538V2.83373C70.3011 2.44282 70.2029 2.10078 70.0558 1.85647C69.8595 1.61216 69.6633 1.41671 69.4671 1.27012C69.2218 1.12353 69.0256 1.02581 68.7803 0.976947C68.535 0.928084 68.3878 0.879215 68.2897 0.879215C68.1916 0.879215 68.1426 0.830354 68.0935 0.781491C68.0444 0.732628 68.0444 0.683764 68.0444 0.634901C68.0444 0.586038 68.0935 0.537182 68.0935 0.488319C68.1426 0.439456 68.1916 0.439453 68.2897 0.439453H81.0445C81.2407 0.439453 81.3389 0.537179 81.3389 0.683767V3.37122C81.3389 3.51781 81.2898 3.56667 81.1917 3.56667C81.0936 3.56667 80.9955 3.51781 80.9464 3.42009C80.8973 3.32236 80.7992 3.12691 80.6521 2.88259C80.5049 2.63828 80.2596 2.39396 80.0143 2.14965C79.72 1.90534 79.3766 1.66103 78.9841 1.46557C78.5426 1.27012 78.052 1.17239 77.4634 1.17239C77.0709 1.17239 76.6785 1.22126 76.3351 1.27012C75.9917 1.31898 75.6973 1.46557 75.452 1.61216C75.2067 1.75875 75.0105 1.9542 74.9124 2.19852C74.7652 2.44283 74.7162 2.736 74.7162 3.07804V8.55068V8.2575C74.7162 8.30636 74.7162 8.35522 74.7652 8.40409C74.8143 8.45295 74.8633 8.45295 74.9124 8.45295H76.5803C76.9728 8.45295 77.3162 8.35522 77.5615 8.20863C77.8068 8.06204 78.003 7.8666 78.1502 7.67115C78.2973 7.47569 78.3954 7.28024 78.4445 7.03593C78.4936 6.84048 78.5426 6.69389 78.5426 6.59617C78.5426 6.5473 78.5917 6.49844 78.6407 6.44958C78.6898 6.40071 78.7388 6.40071 78.7879 6.40071C78.837 6.40071 78.886 6.44958 78.9351 6.44958C78.9841 6.49844 78.9841 6.5473 78.9841 6.59617V11.0427C78.9841 11.0915 78.9841 11.1893 78.9351 11.1893C78.886 11.2381 78.837 11.2381 78.7879 11.2381C78.7388 11.2381 78.6898 11.2381 78.6407 11.1893C78.5917 11.1404 78.5426 11.0915 78.5426 11.0427C78.5426 10.9449 78.4936 10.7984 78.4445 10.6029C78.3954 10.4075 78.2973 10.212 78.1502 9.9677C78.003 9.77224 77.8068 9.57679 77.5615 9.4302C77.3162 9.28361 76.9728 9.18589 76.5803 9.18589H74.9124C74.8633 9.18589 74.8143 9.18589 74.7652 9.23475C74.7162 9.28362 74.7162 9.33248 74.7162 9.38134V9.23475V15.2449C74.7162 15.8801 75.0105 16.3199 75.5501 16.6619C76.0898 17.0039 76.8747 17.1505 77.8558 17.1505C78.3464 17.1505 78.7388 17.1017 79.1313 16.9551C79.5238 16.8085 79.8671 16.6619 80.1615 16.4664C80.4558 16.271 80.7502 16.0755 80.9955 15.8312C81.2407 15.5869 81.437 15.3426 81.5841 15.1472C81.7313 14.9517 81.8785 14.7562 81.9766 14.5608C81.9766 14.3653 82.0257 14.2188 82.0747 14.1699Z" fill="white"/>
<path d="M107.532 17.1984C107.63 17.2961 107.728 17.345 107.728 17.4427C107.728 17.5404 107.728 17.5893 107.63 17.6381C107.581 17.687 107.532 17.7359 107.434 17.8336C107.336 17.9313 107.238 17.9802 107.042 18.0291C106.894 18.0779 106.698 18.1268 106.453 18.1756C106.208 18.2245 105.913 18.2245 105.619 18.2245C105.177 18.2245 104.834 18.1756 104.491 18.0291C104.147 17.9313 103.853 17.7359 103.608 17.5893C103.362 17.3938 103.117 17.1984 102.872 17.0029C102.675 16.8075 102.479 16.5632 102.283 16.4166C102.234 16.3677 102.136 16.27 102.038 16.1234C101.94 16.0257 101.792 15.8302 101.694 15.6836C101.645 15.6348 101.596 15.5859 101.547 15.5859C101.498 15.5859 101.449 15.6348 101.4 15.6836C101.204 16.0257 101.008 16.3677 100.762 16.6609C100.517 16.9541 100.223 17.2472 99.9283 17.4916C99.5849 17.7359 99.2415 17.8825 98.849 18.0291C98.4566 18.1756 98.0151 18.2245 97.5245 18.2245C97.0339 18.2245 96.5434 18.1268 96.1019 17.9802C95.6603 17.8336 95.2679 17.5893 94.9736 17.345C94.6302 17.0518 94.3849 16.7098 94.2377 16.27C94.0415 15.8302 93.9434 15.3416 93.9434 14.8041C93.9434 14.2178 94.0415 13.6803 94.2868 13.1916C94.532 12.703 94.8264 12.2632 95.1698 11.8235C95.5132 11.4326 95.9547 11.0417 96.3962 10.6996C96.8377 10.3576 97.2792 10.0644 97.6717 9.86897C97.8189 9.82011 97.8189 9.67352 97.7698 9.52693C97.5245 8.98944 97.2792 8.50081 97.1321 8.01218C96.9849 7.52356 96.8868 7.13265 96.8868 6.74175C96.8868 6.25312 96.9849 5.81336 97.2302 5.47132C97.4264 5.12928 97.7207 4.8361 98.0641 4.59179C98.4075 4.34748 98.8 4.20089 99.2906 4.0543C99.7321 3.95657 100.223 3.90771 100.713 3.90771C101.057 3.90771 101.449 3.95657 101.792 4.0543C102.136 4.15202 102.43 4.29862 102.725 4.49407C102.97 4.68952 103.215 4.93383 103.362 5.22701C103.509 5.52018 103.608 5.86222 103.608 6.25312C103.608 6.83948 103.411 7.37697 103.068 7.81674C102.725 8.2565 102.283 8.54968 101.694 8.79399C101.645 8.84285 101.596 8.84285 101.547 8.89172C101.498 8.94058 101.547 8.98944 101.596 9.08716C101.891 9.57579 102.185 10.1133 102.528 10.6019C102.872 11.1394 103.215 11.628 103.608 12.1655C103.706 12.3121 103.804 12.3121 103.902 12.2144C104.294 11.7746 104.638 11.3837 105.03 11.1394C105.423 10.8462 105.815 10.7485 106.257 10.7485C106.747 10.7485 107.14 10.8951 107.434 11.1883C107.728 11.4814 107.876 11.8723 107.876 12.361C107.876 12.5076 107.826 12.703 107.777 12.8985C107.728 13.0939 107.63 13.2405 107.483 13.3871C107.336 13.5337 107.189 13.6314 106.992 13.7291C106.796 13.8269 106.6 13.8757 106.355 13.8757C105.766 13.8757 105.325 13.5825 105.128 13.0451C105.079 12.9473 105.03 12.8007 104.981 12.6541C104.932 12.5076 104.834 12.4587 104.638 12.4587C104.589 12.4587 104.491 12.4587 104.392 12.5076C104.294 12.5564 104.196 12.6053 104.098 12.703C104 12.8007 104 12.8496 104.049 12.9962C104.392 13.4848 104.785 13.9734 105.128 14.4621C105.472 14.9018 105.815 15.3416 106.109 15.7325C106.404 16.1234 106.698 16.4166 106.894 16.6609C107.238 16.9052 107.434 17.1007 107.532 17.1984ZM99.7321 15.537C99.9774 15.537 100.174 15.5371 100.37 15.4882C100.566 15.4393 100.762 15.3905 100.958 15.2927C101.057 15.2439 101.106 15.195 101.106 15.0973C101.106 15.0484 101.106 14.9507 101.057 14.9018C100.811 14.6087 100.615 14.2666 100.37 13.9246C100.125 13.5825 99.8792 13.1916 99.634 12.8007C99.3887 12.4098 99.1434 12.0189 98.8981 11.628C98.6528 11.2371 98.4075 10.8462 98.2113 10.4065C98.1623 10.3576 98.1132 10.3087 98.0641 10.3087C98.0151 10.3087 97.966 10.3576 97.917 10.4065C97.6226 10.6508 97.4264 10.9928 97.2302 11.3837C97.083 11.7746 96.9849 12.2144 96.9849 12.703C96.9849 13.1428 97.0339 13.5337 97.1811 13.8757C97.3283 14.2178 97.5245 14.5109 97.7698 14.7552C98.0151 14.9996 98.3094 15.195 98.6528 15.3416C98.9472 15.4882 99.3396 15.537 99.7321 15.537ZM101.351 4.88497C101.204 4.88497 101.106 4.88497 100.958 4.93383C100.811 4.98269 100.713 5.03156 100.566 5.08042C100.468 5.17814 100.37 5.27587 100.272 5.42246C100.174 5.56904 100.174 5.71564 100.174 5.95995C100.174 6.20426 100.272 6.49744 100.419 6.88834C100.566 7.27924 100.762 7.71901 101.057 8.20763C101.106 8.2565 101.155 8.30536 101.204 8.35422C101.253 8.35422 101.302 8.35423 101.4 8.30536C101.694 8.15878 101.94 8.01219 102.087 7.81674C102.234 7.67015 102.381 7.4747 102.479 7.32811C102.577 7.18152 102.626 6.98607 102.675 6.83948C102.725 6.69289 102.725 6.5463 102.725 6.39971C102.725 6.20426 102.675 6.05768 102.626 5.86223C102.577 5.66677 102.479 5.52018 102.381 5.42246C102.283 5.27587 102.136 5.17814 101.94 5.08042C101.743 4.93383 101.547 4.88497 101.351 4.88497Z" fill="white"/>
<path d="M119.354 9.23506C119.354 7.96463 119.6 6.79192 120.09 5.66808C120.581 4.54423 121.268 3.56698 122.102 2.73631C122.936 1.90564 123.966 1.22157 125.143 0.732942C126.321 0.244314 127.547 0 128.921 0C129.656 0 130.343 0.0488568 130.932 0.146582C131.521 0.244308 132.011 0.390898 132.453 0.537486C132.894 0.684074 133.189 0.830664 133.434 0.92839C133.679 1.07498 133.826 1.12384 133.826 1.1727C133.924 1.27043 133.973 1.3193 133.973 1.46588V4.54423C133.973 4.5931 133.973 4.64196 133.924 4.69082C133.875 4.73969 133.826 4.73969 133.826 4.73969C133.777 4.73969 133.728 4.73969 133.679 4.69082C133.63 4.64196 133.581 4.64196 133.581 4.5931C133.434 4.2022 133.238 3.76243 132.992 3.32266C132.747 2.8829 132.453 2.44314 132.109 2.05224C131.766 1.66133 131.324 1.36816 130.883 1.07498C130.392 0.830666 129.804 0.684076 129.166 0.684076C128.332 0.684076 127.596 0.879529 127.007 1.31929C126.419 1.75906 125.928 2.34541 125.536 3.12721C125.143 3.90902 124.898 4.78855 124.702 5.81467C124.505 6.84079 124.456 7.91577 124.456 9.08847C124.456 10.2612 124.604 11.2873 124.849 12.1668C125.143 13.0464 125.536 13.8282 126.075 14.4634C126.615 15.0986 127.302 15.5384 128.087 15.8804C128.921 16.2224 129.853 16.369 130.932 16.369C131.521 16.369 132.109 16.3202 132.698 16.1736C133.287 16.027 133.924 15.8315 134.513 15.5384C134.562 15.4895 134.611 15.4895 134.709 15.4895C134.758 15.4895 134.807 15.5384 134.856 15.5384C134.906 15.5872 134.906 15.6361 134.906 15.6849C134.906 15.7338 134.856 15.7827 134.807 15.8804C134.072 16.6133 133.139 17.1997 132.158 17.5906C131.177 17.9815 130 18.2258 128.675 18.2258C127.204 18.2258 125.928 17.9815 124.8 17.5417C123.671 17.0531 122.69 16.4179 121.905 15.5872C121.121 14.7566 120.532 13.8282 120.09 12.7043C119.6 11.6782 119.354 10.4566 119.354 9.23506Z" fill="white"/>
<path d="M150.752 13.8279C150.801 13.6813 150.9 13.6324 150.998 13.6324C151.096 13.6324 151.145 13.7301 151.145 13.8767V17.688C151.145 17.8346 151.047 17.9323 150.85 17.9323H137.507C137.409 17.9323 137.36 17.9323 137.311 17.8835C137.262 17.8346 137.262 17.7857 137.262 17.7369C137.262 17.688 137.262 17.6392 137.311 17.5903C137.36 17.5414 137.409 17.5414 137.507 17.4926C137.605 17.4926 137.752 17.4437 137.998 17.3948C138.243 17.346 138.439 17.2483 138.684 17.1017C138.93 16.9551 139.126 16.7596 139.273 16.5153C139.469 16.271 139.518 15.929 139.518 15.538V2.83373C139.518 2.44282 139.42 2.10078 139.273 1.85647C139.077 1.61216 138.881 1.41671 138.684 1.27012C138.439 1.12353 138.243 1.02581 137.998 0.976947C137.752 0.928084 137.605 0.879215 137.507 0.879215C137.409 0.879215 137.36 0.830354 137.311 0.781491C137.262 0.732628 137.262 0.683764 137.262 0.634901C137.262 0.586038 137.311 0.537182 137.311 0.488319C137.36 0.439456 137.409 0.439453 137.507 0.439453H145.847C145.945 0.439453 145.994 0.439456 146.043 0.488319C146.092 0.537182 146.092 0.586038 146.092 0.634901C146.092 0.683764 146.092 0.732628 146.043 0.781491C145.994 0.830354 145.945 0.879215 145.847 0.879215C145.749 0.879215 145.552 0.928084 145.356 0.976947C145.111 1.02581 144.915 1.12353 144.669 1.27012C144.424 1.41671 144.228 1.61216 144.081 1.85647C143.884 2.10078 143.835 2.44282 143.835 2.83373V16.271C143.835 16.4664 143.884 16.6619 143.933 16.7596C143.983 16.9062 144.081 17.0039 144.277 17.0528C144.424 17.1017 144.669 17.1505 144.964 17.1994C145.258 17.1994 145.65 17.2482 146.092 17.2482C146.681 17.2482 147.171 17.1994 147.613 17.0528C148.054 16.9062 148.447 16.7108 148.79 16.5153C149.133 16.3199 149.428 16.0755 149.624 15.7824C149.869 15.538 150.066 15.2449 150.213 15.0006C150.36 14.7562 150.507 14.5608 150.556 14.3653C150.654 14.0233 150.703 13.8767 150.752 13.8279Z" fill="white"/>
<path d="M167.531 14.1699C167.58 14.0233 167.678 13.9744 167.776 13.9744C167.874 13.9744 167.923 14.0722 167.923 14.2188V17.688C167.923 17.8346 167.825 17.9323 167.629 17.9323H153.746C153.648 17.9323 153.599 17.9323 153.55 17.8835C153.5 17.8346 153.5 17.7857 153.5 17.7369C153.5 17.688 153.5 17.6392 153.55 17.5903C153.599 17.5414 153.648 17.5414 153.746 17.4926C153.844 17.4926 153.991 17.4437 154.236 17.3948C154.482 17.346 154.678 17.2483 154.923 17.1017C155.168 16.9551 155.365 16.7596 155.512 16.5153C155.708 16.271 155.757 15.929 155.757 15.538V2.83373C155.757 2.44282 155.659 2.10078 155.512 1.85647C155.316 1.61216 155.119 1.41671 154.923 1.27012C154.727 1.12353 154.482 1.02581 154.236 0.976947C153.991 0.928084 153.844 0.879215 153.746 0.879215C153.648 0.879215 153.599 0.830354 153.55 0.781491C153.5 0.732628 153.5 0.683764 153.5 0.634901C153.5 0.586038 153.55 0.537182 153.55 0.488319C153.599 0.439456 153.648 0.439453 153.746 0.439453H166.501C166.697 0.439453 166.795 0.537179 166.795 0.683767V3.37122C166.795 3.51781 166.746 3.56667 166.648 3.56667C166.55 3.56667 166.452 3.51781 166.402 3.42009C166.353 3.32236 166.255 3.12691 166.108 2.88259C165.961 2.63828 165.716 2.39396 165.47 2.14965C165.176 1.90534 164.833 1.66103 164.44 1.46557C163.999 1.27012 163.508 1.17239 162.919 1.17239C162.527 1.17239 162.134 1.22126 161.791 1.27012C161.448 1.31898 161.153 1.46557 160.908 1.61216C160.663 1.75875 160.467 1.9542 160.368 2.19852C160.221 2.44283 160.172 2.736 160.172 3.07804V8.55068V8.2575C160.172 8.30636 160.172 8.35522 160.221 8.40409C160.27 8.45295 160.319 8.45295 160.368 8.45295H162.036C162.429 8.45295 162.772 8.35522 163.018 8.20863C163.263 8.06204 163.459 7.8666 163.606 7.67115C163.753 7.47569 163.851 7.28024 163.901 7.03593C163.95 6.84048 163.999 6.69389 163.999 6.59617C163.999 6.5473 164.048 6.49844 164.097 6.44958C164.146 6.40071 164.195 6.40071 164.244 6.40071C164.293 6.40071 164.342 6.44958 164.391 6.44958C164.44 6.49844 164.44 6.5473 164.44 6.59617V11.0427C164.44 11.0915 164.44 11.1893 164.391 11.1893C164.342 11.2381 164.293 11.2381 164.244 11.2381C164.195 11.2381 164.146 11.2381 164.097 11.1893C164.048 11.1404 163.999 11.0915 163.999 11.0427C163.999 10.9449 163.95 10.7984 163.901 10.6029C163.851 10.4075 163.753 10.212 163.606 9.9677C163.459 9.77224 163.263 9.57679 163.018 9.4302C162.772 9.28361 162.429 9.18589 162.036 9.18589H160.368C160.319 9.18589 160.27 9.18589 160.221 9.23475C160.172 9.28362 160.172 9.33248 160.172 9.38134V9.23475V15.2449C160.172 15.8801 160.467 16.3199 161.006 16.6619C161.546 17.0039 162.331 17.1505 163.312 17.1505C163.802 17.1505 164.195 17.1017 164.587 16.9551C164.98 16.8085 165.323 16.6619 165.618 16.4664C165.912 16.271 166.206 16.0755 166.452 15.8312C166.697 15.5869 166.893 15.3426 167.04 15.1472C167.187 14.9517 167.335 14.7562 167.433 14.5608C167.433 14.3653 167.531 14.2188 167.531 14.1699Z" fill="white"/>
<path d="M207.951 0.390655C208 0.439518 208 0.488382 208 0.537245C208 0.586108 208 0.634972 207.951 0.683835C207.902 0.732698 207.853 0.781559 207.755 0.781559C207.657 0.781559 207.461 0.83042 207.264 0.879283C207.019 0.928146 206.823 1.02587 206.578 1.17246C206.332 1.31905 206.136 1.5145 205.989 1.75881C205.842 2.00313 205.744 2.34517 205.744 2.73607V17.7369C205.744 17.8835 205.695 17.9324 205.596 17.9813C205.498 18.0301 205.4 17.9813 205.253 17.8835C205.204 17.8347 205.106 17.6881 204.861 17.4438C204.615 17.1506 204.321 16.8086 203.929 16.3688C203.536 15.929 203.095 15.3915 202.604 14.8052C202.113 14.2188 201.574 13.5836 200.985 12.8995C200.445 12.2155 199.857 11.5314 199.268 10.8473C198.679 10.1632 198.091 9.47914 197.551 8.79506C197.011 8.11098 196.472 7.52462 195.981 6.93827C195.491 6.35192 195.049 5.81443 194.657 5.37466C194.264 4.9349 193.97 4.59285 193.774 4.29968C193.528 4.05536 193.43 3.90878 193.43 3.90878C193.381 3.85992 193.332 3.81105 193.283 3.85992C193.234 3.85992 193.234 3.90878 193.234 4.00651V15.4404C193.234 15.8313 193.332 16.1733 193.479 16.4176C193.676 16.662 193.872 16.8574 194.068 17.004C194.313 17.1506 194.51 17.2483 194.755 17.2972C195 17.346 195.147 17.3949 195.245 17.3949C195.344 17.3949 195.393 17.4438 195.442 17.4926C195.491 17.5415 195.491 17.5904 195.491 17.6392C195.491 17.6881 195.442 17.7369 195.442 17.7858C195.393 17.8347 195.344 17.8347 195.245 17.8347H190.291C190.193 17.8347 190.144 17.8347 190.094 17.7858C190.045 17.7369 190.045 17.6881 190.045 17.6392C190.045 17.5904 190.045 17.5415 190.094 17.4926C190.144 17.4438 190.193 17.4438 190.291 17.3949C190.389 17.3949 190.585 17.346 190.781 17.2972C191.027 17.2483 191.223 17.1506 191.468 17.004C191.713 16.8574 191.91 16.662 192.057 16.4176C192.253 16.1733 192.302 15.8313 192.302 15.4404V2.73607C192.302 2.34517 192.204 2.00313 192.057 1.75881C191.861 1.5145 191.664 1.31905 191.468 1.17246C191.223 1.02587 191.027 0.928146 190.781 0.879283C190.536 0.83042 190.389 0.781559 190.291 0.781559C190.193 0.781559 190.144 0.732698 190.094 0.683835C190.045 0.634972 190.045 0.586108 190.045 0.537245C190.045 0.488382 190.094 0.439518 190.094 0.390655C190.144 0.341792 190.193 0.341797 190.291 0.341797H195.491C195.785 0.341797 195.981 0.439518 196.128 0.634969C196.276 0.83042 196.521 1.1236 196.864 1.5145C197.208 1.9054 197.551 2.34517 197.993 2.83379C198.434 3.32242 198.876 3.85991 199.366 4.44627C199.857 5.03262 200.347 5.61897 200.838 6.15646C201.328 6.74282 201.77 7.28031 202.212 7.8178C202.653 8.35529 203.045 8.79506 203.389 9.23482C203.732 9.62572 204.027 9.96776 204.223 10.2121C204.419 10.4564 204.566 10.603 204.566 10.603C204.615 10.6518 204.713 10.7007 204.713 10.7007C204.762 10.7007 204.762 10.6518 204.762 10.5541V2.78494C204.762 2.39403 204.664 2.05199 204.517 1.80768C204.321 1.56337 204.125 1.36792 203.929 1.22133C203.732 1.07474 203.487 0.977011 203.242 0.928149C202.996 0.879286 202.849 0.830425 202.751 0.830425C202.653 0.830425 202.604 0.781563 202.555 0.732701C202.506 0.683838 202.506 0.634974 202.506 0.586111C202.506 0.537248 202.555 0.488384 202.555 0.439521C202.604 0.390658 202.653 0.390655 202.751 0.390655H207.706C207.853 0.341792 207.902 0.341792 207.951 0.390655Z" fill="white"/>
<path d="M188.475 17.5903C188.426 17.5415 188.377 17.4926 188.328 17.4926C188.083 17.4437 187.837 17.3949 187.592 17.2483C187.347 17.1506 187.15 17.004 186.905 16.8085C186.709 16.6131 186.513 16.3688 186.316 16.1244C186.12 15.8313 185.973 15.5381 185.875 15.1472C185.826 14.9517 185.679 14.6097 185.532 14.0722C185.384 13.5347 185.139 12.8995 184.894 12.1666C184.649 11.4336 184.354 10.6029 184.06 9.72342C183.766 8.84389 183.471 7.96436 183.177 7.03597C182.883 6.15644 182.588 5.2769 182.294 4.44624C181.999 3.61557 181.754 2.83377 181.558 2.19855C181.313 1.56334 181.018 0.634943 181.018 0.586081C180.969 0.488355 180.92 0.390625 180.871 0.390625C180.822 0.390625 180.822 0.390625 180.773 0.390625H177.535C177.437 0.390625 177.339 0.439494 177.29 0.488357C177.241 0.537219 177.192 0.634945 177.143 0.73267C177.143 0.781533 176.947 1.2213 176.799 1.66106C176.652 2.05196 176.456 2.58945 176.26 3.27353C176.015 3.90875 175.769 4.69055 175.475 5.52122C175.181 6.35188 174.886 7.23142 174.543 8.11095C174.248 8.99048 173.905 9.87001 173.611 10.7495C173.316 11.6291 173.022 12.4109 172.777 13.1438C172.532 13.8768 172.335 14.4631 172.139 14.9517C171.943 15.4404 171.845 15.7335 171.796 15.8801C171.698 16.1244 171.55 16.3688 171.403 16.5642C171.256 16.7597 171.06 16.9062 170.913 17.0528C170.716 17.1994 170.52 17.2971 170.324 17.3949C170.128 17.4926 169.882 17.5415 169.637 17.6392C169.588 17.6392 169.539 17.688 169.49 17.7369C169.441 17.7858 169.441 17.8346 169.441 17.8835C169.441 17.9324 169.49 17.9812 169.49 17.9812C169.49 17.9812 169.588 18.0301 169.637 18.0301H174.494C174.543 18.0301 174.592 18.0301 174.641 17.9812C174.69 17.9324 174.69 17.8835 174.739 17.8346C174.739 17.7858 174.739 17.7369 174.69 17.6881C174.641 17.6392 174.592 17.5903 174.543 17.5903C174.396 17.5415 174.248 17.4926 174.052 17.4437C173.856 17.3949 173.66 17.2972 173.513 17.1994C173.316 17.1017 173.218 16.9062 173.12 16.7108C173.022 16.5153 173.022 16.271 173.071 15.929C173.071 15.8801 173.12 15.7335 173.169 15.5381C173.218 15.3426 173.316 15.0983 173.415 14.8051C173.513 14.512 173.611 14.2188 173.709 13.8768C173.807 13.5347 173.905 13.2415 174.003 12.8995C174.101 12.6063 174.199 12.3131 174.249 12.0688C174.298 11.8245 174.396 11.6291 174.396 11.5313C174.445 11.4825 174.494 11.4336 174.543 11.4336H180.184C180.233 11.4336 180.282 11.4825 180.332 11.5313C180.332 11.5802 180.381 11.6779 180.43 11.8245C180.479 12.02 180.577 12.2154 180.626 12.4597C180.724 12.7041 180.773 12.9972 180.871 13.2904C180.969 13.5836 181.067 13.8768 181.166 14.1211C181.264 14.4142 181.313 14.6586 181.411 14.854C181.509 15.0983 181.558 15.2449 181.607 15.3426C181.754 15.7824 181.754 16.1244 181.656 16.3688C181.558 16.6131 181.362 16.8574 181.166 17.004C180.969 17.1506 180.724 17.2972 180.528 17.346C180.282 17.3949 180.135 17.4437 180.086 17.4926C179.988 17.5415 179.939 17.5415 179.89 17.5903C179.841 17.6392 179.841 17.688 179.841 17.7369C179.841 17.7858 179.89 17.8346 179.939 17.8835C179.988 17.9324 180.037 17.9324 180.086 17.9324H188.279C188.377 17.9324 188.426 17.9324 188.475 17.8835C188.524 17.8346 188.524 17.7858 188.573 17.7369C188.524 17.6392 188.475 17.5903 188.475 17.5903ZM179.792 10.5052H174.837C174.739 10.5052 174.69 10.4564 174.739 10.3586C174.837 10.0655 174.935 9.67455 175.132 9.18592C175.279 8.6973 175.426 8.15981 175.622 7.62232C175.818 7.08483 175.965 6.49848 176.162 5.96099C176.358 5.37463 176.505 4.88601 176.652 4.39738C176.799 3.95761 176.898 3.56671 176.996 3.27353C177.094 2.98036 177.143 2.83377 177.143 2.78491C177.143 2.73604 177.192 2.68718 177.241 2.68718C177.29 2.68718 177.339 2.68718 177.339 2.78491C177.339 2.78491 177.388 2.88263 177.437 3.12694C177.486 3.32239 177.584 3.61557 177.732 3.95761C177.83 4.29965 177.977 4.69055 178.124 5.17918C178.271 5.61894 178.418 6.05871 178.566 6.54734C178.713 7.03597 178.86 7.47573 179.007 7.9155C179.154 8.35526 179.301 8.79503 179.399 9.13707C179.498 9.47911 179.596 9.77228 179.694 10.0166C179.743 10.2609 179.792 10.3586 179.841 10.4075C179.939 10.4564 179.89 10.5052 179.792 10.5052Z" fill="white"/>
</svg>
