<svg width="96" height="97" viewBox="0 0 96 97" fill="none" xmlns="http://www.w3.org/2000/svg">
<path d="M10.3651 28.6336L11.6817 28.2811L11.3244 26.949C10.3428 23.2714 12.4886 19.5034 16.1211 18.5262L19.7837 17.5456C20.2623 15.6352 21.7348 14.1464 23.6258 13.6615L27.2555 12.6897C27.6047 12.5962 27.9771 12.6471 28.291 12.8308L31.1481 14.503L53.7557 8.45012L55.3933 5.57457C55.5731 5.25872 55.8702 5.02856 56.2194 4.93507L59.8491 3.96327C61.7294 3.43844 63.7496 3.99208 65.1201 5.40748L68.7827 4.42687C72.4175 3.45834 76.1613 5.64945 77.1515 9.32484L91.4401 62.608C92.4217 66.2857 90.2759 70.0537 86.6434 71.0308L85.3269 71.3833L85.6841 72.7154C86.6657 76.3931 84.52 80.161 80.8875 81.1382L28.2259 95.2376C24.5911 96.2061 20.8473 94.015 19.8571 90.3396L5.56849 37.0564C4.58698 33.3785 6.73263 29.6108 10.3651 28.6336ZM27.4249 15.4998L24.3402 16.3257C23.2633 16.5915 22.4683 17.5079 22.3484 18.6222C22.1862 19.7298 22.7241 20.8268 23.6969 21.3722L40.7223 31.3366L44.1624 25.2958L27.4249 15.4998ZM34.4956 16.4622L45.5189 22.9138L51.837 11.8192L34.4956 16.4622V16.4622ZM63.4311 7.62292C62.7711 6.71991 61.6276 6.32289 60.5635 6.62743L57.4789 7.4533L47.8856 24.2989L53.8877 27.8118L63.646 10.6764C64.2128 9.71724 64.1271 8.49931 63.4311 7.62292ZM85.929 68.3667C88.1103 67.7827 89.3988 65.5201 88.807 63.313L74.5184 10.0298C73.9265 7.82272 71.6785 6.507 69.4971 7.09103L66.5454 7.8813C66.9337 9.29375 66.7416 10.8013 66.0126 12.0615L55.5762 30.3879C55.2015 31.0455 54.3681 31.2687 53.7146 30.8863L48.2029 27.6605L49.4839 32.4373L46.8508 33.1423L45.5698 28.3655L42.4107 33.9127C42.0361 34.5704 41.2027 34.7935 40.5492 34.4111L22.3404 23.7541C21.0784 23.0269 20.1577 21.8173 19.7872 20.4001L16.8355 21.1904C14.6542 21.7744 13.3657 24.037 13.9575 26.2441L28.2461 79.5273C28.838 81.7343 31.0861 83.0501 33.2674 82.466L85.929 68.3667ZM22.4902 89.6346C23.082 91.8417 25.3301 93.1574 27.5114 92.5734L80.1731 78.4741C82.3544 77.89 83.6429 75.6275 83.051 73.4204L82.6938 72.0883L33.9818 85.1302C30.347 86.0987 26.6032 83.9076 25.613 80.2322L12.3961 30.9453L11.0796 31.2978C8.89821 31.8818 7.60971 34.1444 8.20158 36.3515L22.4902 89.6346Z" fill="black"/>
<path d="M47.5647 35.8065L50.1978 35.1016L50.9122 37.7657L48.2791 38.4707L47.5647 35.8065Z" fill="black"/>
<path d="M32.5925 48.3812L35.2256 47.6763L35.94 50.3404L33.3069 51.0454L32.5925 48.3812Z" fill="black"/>
<path d="M52.2077 53.1239L54.8408 52.4189L55.5553 55.0831L52.9222 55.7881L52.2077 53.1239Z" fill="black"/>
<path d="M48.9939 41.1351L51.627 40.4302L54.1275 49.7547L51.4944 50.4597L48.9939 41.1351Z" fill="black"/>
<path d="M56.8523 70.4406L59.4854 69.7356L60.1998 72.3998L57.5667 73.1047L56.8523 70.4406Z" fill="black"/>
<path d="M53.6369 58.4523L56.27 57.7473L58.7705 67.0719L56.1374 67.7768L53.6369 58.4523Z" fill="black"/>
<path d="M27.2156 44.1101L37.7479 41.2902C38.475 41.0956 39.2244 41.5342 39.4217 42.2698L41.565 50.2623C41.6774 50.6816 41.5881 51.1286 41.3241 51.469L37.1296 56.8751C36.7568 57.3556 36.113 57.528 35.5498 57.2981L29.2119 54.7118C28.813 54.549 28.512 54.2064 28.3996 53.7871L26.2563 45.7947C26.0589 45.0589 26.4885 44.3048 27.2156 44.1101ZM30.854 52.4161L35.6074 54.3559L38.7533 50.3012L37.1458 44.3069L29.2466 46.4218L30.854 52.4161Z" fill="black"/>
</svg>
