<svg width="195" height="186" viewBox="0 0 195 186" fill="none" xmlns="http://www.w3.org/2000/svg">
<path d="M53.9 113.6L55.2 110.7C54.7 110.4 54.2 110.2 53.8 109.9L52.5 113C51.8 114.7 51.4 116 51.2 116.8C51 117.4 51 117.9 51 118.1L51.2 118.2C51.3 118 51.6 117.7 52 117.2C52.4 116.4 53.1 115.3 53.9 113.6Z" fill="white"/>
<path d="M101.9 52.3002C97.0996 49.3002 91.4996 46.7002 85.6996 44.7002C84.8996 46.4002 84.0996 48.1002 83.2996 49.9002C82.0996 52.4002 80.8996 55.0002 79.7996 57.6002C84.0996 59.2002 87.7996 61.3002 91.0996 63.5002C91.4996 63.8002 91.8996 64.1002 92.2996 64.3002C92.6996 64.6002 93.0996 64.8002 93.4996 65.1002C94.1996 65.7002 94.9996 66.3002 95.6996 66.8002C96.3996 67.4002 96.9996 68.0002 97.6996 68.5002C98.2996 69.1002 98.8996 69.7002 99.4996 70.2002C99.7996 70.5002 100.1 70.8002 100.3 71.0002C100.6 71.3002 100.8 71.6002 101.1 71.8002C101.6 72.4002 102.1 72.9002 102.5 73.4002C102.9 73.9002 103.3 74.5002 103.7 75.0002C103.9 75.3002 104.1 75.5002 104.3 75.7002C104.5 75.9002 104.6 76.2002 104.8 76.4002C105.1 76.9002 105.4 77.3002 105.7 77.7002C106 78.1002 106.2 78.6002 106.4 78.9002C106.8 79.7002 107.2 80.3002 107.5 80.9002C108 82.0002 108.3 82.6002 108.3 82.6002C108.3 82.6002 108.4 82.8002 108.5 83.1002C108.6 83.4002 108.8 83.8002 109 84.4002C109.4 85.6002 109.9 87.3002 109.9 89.6002C109.9 90.7002 109.8 92.0002 109.4 93.4002C109 94.7002 108.4 96.1002 107.4 97.4002C106.9 98.0002 106.3 98.6002 105.7 99.2002C105 99.7002 104.3 100.3 103.5 100.7C101.9 101.6 100.1 102.2 98.1996 102.7C96.2996 103.1 94.1996 103.3 91.9996 103.4C90.8996 103.4 89.7996 103.4 88.6996 103.3C88.1996 103.3 87.5996 103.2 86.9996 103.1C86.3996 103 85.8996 102.9 85.2996 102.9C80.7996 102.1 76.1996 100.6 71.6996 98.4002C67.1996 96.2002 62.8996 93.3002 58.9996 89.8002C57.9996 88.9002 57.0996 88.0002 56.1996 87.0002C55.2996 86.0002 54.3996 85.0002 53.5996 83.9002C52.7996 82.8002 51.9996 81.7002 51.3996 80.5002C50.6996 79.3002 50.0996 78.1002 49.6996 76.8002C48.6996 74.2002 48.1996 71.5002 48.4996 68.7002C48.5996 67.3002 48.8996 65.9002 49.3996 64.6002C49.8996 63.3002 50.6996 62.1002 51.4996 61.0002C53.2996 58.9002 55.5996 57.4002 58.0996 56.4002C60.5996 55.5002 63.0996 55.0002 65.6996 54.9002C66.9996 54.8002 68.1996 54.9002 69.3996 54.9002H69.5996H69.6996C69.7996 54.9002 69.7996 54.9002 69.7996 54.9002H69.8996L70.2996 55.0002L71.1996 55.1002L72.0996 55.2002C72.3996 55.2002 72.6996 55.3002 72.9996 55.3002C74.2996 55.6002 75.5996 55.9002 76.7996 56.2002C77.9996 53.5002 79.0996 50.8002 80.2996 48.1002C80.9996 46.5002 81.6996 44.8002 82.3996 43.2002C62.1996 37.1002 39.4996 37.9002 31.3996 50.9002C20.4996 68.4002 30.1996 94.4002 52.4996 108.3C52.8996 108.6 53.3996 108.8 53.7996 109.1C54.3996 109.4 54.9996 109.8 55.5996 110.1C78.2996 122.3 114.8 122.5 125.3 105.8C136.2 88.6002 124.2 66.1002 101.9 52.3002Z" fill="white"/>
<path d="M96.5996 82.7998C96.3996 83.2998 95.9996 83.6998 95.5996 83.9998C95.1996 84.2998 94.7996 84.4998 94.4996 84.6998C94.0996 84.7998 93.7996 84.8998 93.4996 84.9998C93.1996 84.9998 92.9996 84.9998 92.8996 84.9998C92.7996 84.9998 92.6996 84.9998 92.6996 84.9998C92.5996 84.9998 92.5996 84.9998 92.4996 84.9998C89.3996 84.9998 86.1996 82.6998 85.4996 79.9998C85.1996 78.6998 85.3996 77.5998 85.9996 76.6998C86.0996 76.6998 86.2996 76.6998 86.3996 76.6998C89.4996 76.6998 92.6996 78.9998 93.3996 81.6998C93.6996 82.8998 93.4996 84.0998 92.8996 84.8998C92.9996 84.8998 93.1996 84.7998 93.3996 84.7998C93.6996 84.6998 93.9996 84.5998 94.2996 84.4998C94.5996 84.2998 94.9996 84.0998 95.2996 83.7998C95.5996 83.4998 95.8996 83.0998 96.0996 82.5998C96.2996 82.0998 96.3996 81.5998 96.2996 80.9998C96.2996 80.6998 96.1996 80.3998 96.0996 80.1998C95.9996 80.0998 95.9996 79.8998 95.8996 79.7998L95.9996 79.4998C95.6996 78.9998 95.3996 78.4998 94.8996 78.0998C94.4996 77.6998 93.9996 77.2998 93.4996 76.9998C92.9996 76.6998 92.4996 76.3998 91.8996 76.1998C91.3996 75.9998 90.7996 75.8998 90.2996 75.7998C89.7996 75.6998 89.2996 75.6998 88.7996 75.6998C87.8996 75.7998 87.0996 75.9998 86.6996 76.2998C86.4996 76.3998 86.2996 76.5998 86.1996 76.5998C86.0996 76.6998 85.9996 76.6998 85.9996 76.6998C85.9996 76.6998 86.0996 76.5998 86.1996 76.4998C86.2996 76.3998 86.4996 76.1998 86.6996 76.0998C87.1996 75.7998 87.8996 75.3998 88.8996 75.2998C89.3996 75.1998 89.8996 75.1998 90.3996 75.2998C90.9996 75.2998 91.4996 75.4998 92.0996 75.6998C92.6996 75.8998 93.1996 76.1998 93.7996 76.4998C94.2996 76.7998 94.8996 77.1998 95.2996 77.6998C95.6996 78.1998 96.0996 78.6998 96.3996 79.2998L96.5996 79.6998C96.5996 79.7998 96.6996 79.9998 96.6996 80.0998C96.7996 80.3998 96.7996 80.6998 96.8996 80.9998C96.8996 81.6998 96.7996 82.2998 96.5996 82.7998ZM87.8996 92.3998C87.6996 92.8998 87.2996 93.2998 86.8996 93.5998C86.4996 93.8998 86.0996 94.0998 85.7996 94.2998C85.3996 94.3998 85.0996 94.4998 84.7996 94.5998C84.4996 94.6998 84.2996 94.6998 84.1996 94.6998C84.0996 94.6998 83.9996 94.6998 83.9996 94.6998C83.8996 94.6998 83.8996 94.6998 83.7996 94.6998C80.6996 94.6998 77.4996 92.3998 76.7996 89.6998C76.4996 88.3998 76.6996 87.2998 77.2996 86.3998C77.3996 86.3998 77.5996 86.3998 77.6996 86.3998C80.7996 86.3998 83.9996 88.6998 84.6996 91.3998C84.9996 92.5998 84.7996 93.7998 84.1996 94.5998C84.2996 94.5998 84.4996 94.4998 84.6996 94.4998C84.9996 94.3998 85.2996 94.2998 85.5996 94.1998C85.8996 93.9998 86.2996 93.7998 86.5996 93.4998C86.8996 93.1998 87.1996 92.7998 87.3996 92.2998C87.5996 91.7998 87.6996 91.2998 87.5996 90.6998C87.5996 90.3998 87.4996 90.0998 87.3996 89.8998C87.2996 89.7998 87.2996 89.5998 87.1996 89.4998L87.2996 88.9998C86.9996 88.4998 86.6996 87.9998 86.1996 87.5998C85.7996 87.1998 85.2996 86.7998 84.7996 86.4998C84.2996 86.1998 83.7996 85.8998 83.1996 85.6998C82.6996 85.4998 82.0996 85.3998 81.5996 85.2998C81.0996 85.1998 80.5996 85.1998 80.0996 85.1998C79.1996 85.2998 78.3996 85.4998 77.9996 85.7998C77.7996 85.8998 77.5996 86.0998 77.4996 86.0998C77.3996 86.1998 77.2996 86.1998 77.2996 86.1998C77.2996 86.1998 77.3996 86.0998 77.4996 85.9998C77.5996 85.8998 77.7996 85.6998 77.9996 85.5998C78.4996 85.2998 79.1996 84.8998 80.1996 84.7998C80.6996 84.6998 81.1996 84.6998 81.6996 84.7998C82.2996 84.7998 82.7996 84.9998 83.3996 85.1998C83.9996 85.3998 84.4996 85.6998 85.0996 85.9998C85.5996 86.2998 86.1996 86.6998 86.5996 87.1998C86.9996 87.6998 87.3996 88.1998 87.6996 88.7998L87.8996 89.1998C87.8996 89.2998 87.9996 89.4998 87.9996 89.5998C88.0996 89.8998 88.0996 90.1998 88.1996 90.4998C88.1996 91.1998 88.0996 91.7998 87.8996 92.3998ZM70.4996 80.3998C70.2996 80.8998 69.8996 81.2998 69.4996 81.5998C69.0996 81.8998 68.6996 82.0998 68.3996 82.2998C67.9996 82.3998 67.6996 82.4998 67.3996 82.5998C67.0996 82.6998 66.8996 82.6998 66.7996 82.6998C66.6996 82.6998 66.5996 82.6998 66.5996 82.6998C66.4996 82.6998 66.4996 82.6998 66.3996 82.6998C63.2996 82.6998 60.0996 80.3998 59.3996 77.6998C59.0996 76.3998 59.2996 75.2998 59.8996 74.3998C59.9996 74.3998 60.1996 74.3998 60.2996 74.3998C63.3996 74.3998 66.5996 76.6998 67.2996 79.3998C67.5996 80.5998 67.3996 81.7998 66.7996 82.5998C66.8996 82.5998 67.0996 82.4998 67.2996 82.4998C67.5996 82.3998 67.8996 82.2998 68.1996 82.1998C68.4996 81.9998 68.8996 81.7998 69.1996 81.4998C69.4996 81.1998 69.7996 80.7998 69.9996 80.2998C70.1996 79.7998 70.2996 79.2998 70.1996 78.6998C70.1996 78.3998 70.0996 78.0998 69.9996 77.8998C69.8996 77.7998 69.8996 77.5998 69.7996 77.4998L69.8996 76.9998C69.5996 76.4998 69.2996 75.9998 68.7996 75.5998C68.3996 75.1998 67.8996 74.7998 67.3996 74.4998C66.8996 74.1998 66.3996 73.8998 65.7996 73.6998C65.2996 73.4998 64.6996 73.3998 64.1996 73.2998C63.6996 73.1998 63.1996 73.1998 62.6996 73.1998C61.7996 73.2998 60.9996 73.4998 60.5996 73.7998C60.3996 73.8998 60.1996 74.0998 60.0996 74.0998C59.9996 74.1998 59.8996 74.1998 59.8996 74.1998C59.8996 74.1998 59.9996 74.0998 60.0996 73.9998C60.1996 73.8998 60.3996 73.6998 60.5996 73.5998C61.0996 73.2998 61.7996 72.8998 62.7996 72.7998C63.2996 72.6998 63.7996 72.6998 64.2996 72.7998C64.8996 72.7998 65.3996 72.9998 65.9996 73.1998C66.5996 73.3998 67.0996 73.6998 67.6996 73.9998C68.1996 74.2998 68.7996 74.6998 69.1996 75.1998C69.5996 75.6998 69.9996 76.1998 70.2996 76.7998L70.4996 77.1998C70.4996 77.2998 70.5996 77.4998 70.5996 77.5998C70.6996 77.8998 70.6996 78.1998 70.7996 78.4998C70.7996 79.1998 70.6996 79.7998 70.4996 80.3998ZM108.9 84.6998C108.7 84.0998 108.6 83.6998 108.4 83.3998C108.3 83.0998 108.2 82.8998 108.2 82.8998C108.2 82.8998 107.9 82.2998 107.4 81.1998C107.2 80.5998 106.8 79.9998 106.3 79.1998C106.1 78.7998 105.8 78.3998 105.6 77.9998C105.3 77.5998 105 77.0998 104.7 76.6998C104.5 76.4998 104.4 76.1998 104.2 75.9998C104 75.7998 103.8 75.4998 103.6 75.2998C103.2 74.7998 102.8 74.2998 102.3 73.7998C101.9 73.2998 101.3 72.7998 100.8 72.1998C100.5 71.8998 100.3 71.6998 99.9996 71.3998C99.6996 71.0998 99.3996 70.8998 99.0996 70.5998C98.4996 70.0998 97.8996 69.4998 97.2996 68.8998C96.6996 68.3998 95.9996 67.7998 95.2996 67.1998C94.5996 66.6998 93.7996 66.0998 93.0996 65.5998C92.6996 65.2998 92.2996 65.0998 91.8996 64.7998C91.4996 64.4998 91.0996 64.2998 90.6996 63.9998C87.3996 61.8998 83.5996 59.8998 79.2996 58.4998H79.1996C78.8996 59.2998 78.4996 59.9998 78.1996 60.7998C77.6996 61.7998 77.1996 62.8998 76.6996 64.0998C77.0996 64.2998 77.3996 64.3998 77.7996 64.6998C78.2996 64.9998 78.8996 65.3998 79.2996 65.8998C79.6996 66.3998 80.0996 66.8998 80.3996 67.4998L80.5996 67.8998C80.5996 67.9998 80.6996 68.1998 80.6996 68.2998C80.7996 68.5998 80.7996 68.8998 80.8996 69.1998C80.9996 69.7998 80.7996 70.3998 80.5996 70.8998C80.3996 71.3998 79.9996 71.7998 79.5996 72.0998C79.1996 72.3998 78.7996 72.5998 78.4996 72.7998C78.0996 72.8998 77.7996 72.9998 77.4996 73.0998C77.4996 72.9998 77.2996 72.9998 77.0996 72.9998C76.9996 72.9998 76.8996 72.9998 76.8996 72.9998C76.7996 72.9998 76.7996 72.9998 76.6996 72.9998C75.4996 72.9998 74.1996 72.5998 73.0996 71.9998C72.1996 71.4998 71.3996 70.8998 70.7996 70.0998C70.1996 69.3998 69.7996 68.6998 69.5996 67.8998C69.2996 66.5998 69.4996 65.4998 70.0996 64.5998C70.1996 64.5998 70.3996 64.5998 70.4996 64.5998C71.2996 64.5998 72.0996 64.7998 72.8996 64.9998C73.0996 64.4998 73.2996 63.9998 73.5996 63.4998C73.2996 63.4998 73.0996 63.4998 72.8996 63.4998C71.9996 63.5998 71.1996 63.7998 70.7996 64.0998C70.5996 64.1998 70.3996 64.3998 70.2996 64.3998C70.1996 64.4998 70.0996 64.4998 70.0996 64.4998C70.0996 64.4998 70.1996 64.3998 70.2996 64.2998C70.3996 64.1998 70.5996 63.9998 70.7996 63.8998C71.2996 63.5998 71.9996 63.1998 72.9996 63.0998C73.2996 63.0998 73.5996 63.0998 73.8996 63.0998C74.4996 61.7998 74.9996 60.4998 75.5996 59.1998C75.8996 58.5998 76.1996 57.8998 76.3996 57.2998C75.1996 56.9998 73.9996 56.7998 72.7996 56.5998C72.4996 56.4998 72.1996 56.4998 71.8996 56.4998L70.9996 56.3998L70.0996 56.2998H69.6996H69.5996C69.5996 56.2998 69.4996 56.2998 69.5996 56.2998H69.4996H69.2996C68.0996 56.2998 66.8996 56.2998 65.6996 56.3998C63.2996 56.5998 60.8996 57.0998 58.6996 57.9998C56.4996 58.8998 54.3996 60.2998 52.8996 62.1998C51.3996 64.0998 50.4996 66.3998 50.2996 68.8998C50.0996 71.2998 50.5996 73.7998 51.4996 76.1998C51.8996 77.3998 52.4996 78.4998 53.0996 79.5998C53.6996 80.6998 54.3996 81.7998 55.1996 82.7998C56.6996 84.8998 58.3996 86.6998 60.2996 88.4998C62.0996 90.2998 64.0996 91.7998 66.0996 93.2998C68.0996 94.7998 70.1996 96.0998 72.3996 97.1998C76.6996 99.4998 81.0996 101.2 85.4996 102.1C85.9996 102.2 86.5996 102.3 87.0996 102.4C87.5996 102.5 88.1996 102.6 88.6996 102.6C89.7996 102.7 90.7996 102.8 91.8996 102.8C93.9996 102.8 95.9996 102.7 97.9996 102.3C101.8 101.6 105.2 99.8998 107.2 97.3998C108.2 96.1998 108.9 94.7998 109.3 93.4998C109.7 92.1998 109.8 90.8998 109.8 89.7998C109.8 87.5998 109.3 85.8998 108.9 84.6998Z" fill="white"/>
<path d="M77.7 72.7999C78 72.6999 78.3 72.5999 78.6 72.4999C78.9 72.2999 79.3 72.0999 79.6 71.7999C79.9 71.4999 80.2 71.0999 80.4 70.5999C80.6 70.0999 80.7 69.5999 80.6 68.9999C80.6 68.6999 80.5 68.3999 80.4 68.1999C80.3 68.0999 80.3 67.8999 80.2 67.7999L80 67.3999C79.7 66.8999 79.4 66.3999 78.9 65.9999C78.5 65.5999 78 65.1999 77.5 64.8999C77.2 64.6999 76.8 64.4999 76.5 64.3999C76.1 65.1999 75.8 65.8999 75.5 66.6999C76.5 67.5999 77.2 68.5999 77.6 69.7999C77.9 70.9999 77.7 72.1999 77.1 72.9999C77.4 72.8999 77.5 72.8999 77.7 72.7999Z" fill="white"/>
<path d="M101.1 7.9C101.1 8.2 101 8.4 100.9 8.8C100.8 9.2 100.7 9.6 100.6 9.9C100.4 10.8 100 11.7 99.7 12.6C99.3 13.6 98.8 14.7 98.4 15.6C97.5 17.5 96.4 19.5 95.4 21C95 21.7 94.6 22.3 94.2 22.7C93.9 23.1 93.7 23.3 93.7 23.3C93.6 23.4 93.5 23.5 93.4 23.5C93.3 23.5 93.2 23.5 93.1 23.4C93.1 23.3 93 23.2 93 23C93 23 93 22.7 93.2 22.2C93.3 21.7 93.5 21 93.7 20.2C94.2 18.5 95 16.4 95.8 14.4C96.2 13.5 96.7 12.4 97.2 11.4C97.7 10.5 98.2 9.7 98.7 8.9C98.9 8.6 99.1 8.3 99.4 7.9C99.6 7.6 99.8 7.4 100 7.2C100.3 6.8 100.5 6.6 100.5 6.6C100.7 6.4 100.9 6.4 101.1 6.6C101.2 6.7 101.2 6.8 101.2 6.9C101.2 7.1 101.2 7.4 101.1 7.9ZM103 2.1L102.7 2C102.6 2 102.5 2.1 102.3 2.2C102 2.3 101.6 2.5 101.2 2.8C100.4 3.3 99.2 4.3 98 5.7C97.4 6.4 96.9 7.2 96.4 8.1C95.9 9 95.4 10 94.9 11.2C93.8 13.7 92.8 16.2 91.9 18.8C91.4 20.1 91 21.5 90.5 23C90 24.6 89.4 26.3 88.8 28.1C88.2 29.7 87.6 31.4 87 33C86.6 34.1 86.1 35.2 85.6 36.3C85.4 36.9 85.1 37.5 84.9 38.1C84.4 39.2 84 40.3 83.5 41.5L82.5 43.8C81.8 45.4 81.1 47.1 80.4 48.7L79.6 50.5C78.3 53.5 77 56.6 75.7 59.6L71 70.3C71.5 70.9 72.2 71.5 73 71.9L78.1 60.7C79.5 57.7 80.9 54.6 82.2 51.7L83 49.9C83.8 48.2 84.6 46.4 85.4 44.7L86.4 42.5C86.9 41.5 87.4 40.4 87.8 39.4C88.1 38.8 88.3 38.2 88.6 37.7C89.1 36.6 89.6 35.5 90.1 34.5C90.9 32.9 91.7 31.3 92.5 29.8C93.4 28.2 94.3 26.7 95.2 25.2C96 23.9 96.7 22.6 97.4 21.4C98.7 19 100 16.6 101 14.1C101.5 13 101.9 11.9 102.3 11C102.6 10.1 102.9 9.2 103 8.2C103.3 6.3 103.2 4.8 103 3.8C102.9 3.3 102.8 2.8 102.7 2.5C103 2.3 103 2.2 103 2.1Z" fill="white"/>
<path d="M150.8 135.4C150.7 135.4 150.7 135.4 150.8 135.4C137.4 133.9 114.1 133.8 91.5002 133.8C78.9002 133.8 66.9002 133.8 57.7002 133.5C48.7002 133.2 39.5002 132.2 32.5002 130.8C24.2002 129.1 19.8002 127 19.5002 124.5C19.4002 123.5 19.0002 120.4 33.7002 116.5C51.5002 111.8 70.3002 110.9 84.7002 110.6C86.6002 110.6 88.5002 110.5 90.5002 110.5C95.8002 110.5 101.1 110.6 106.3 110.7C112.5 110.8 118.8 111.7 124.8 112.5C130.5 113.3 136.4 114.1 142.2 114.3H142.8C145.1 114.4 147.5 114.5 150 114.5C155.7 114.5 162.9 114.1 168.7 111C170.5 110 174.3 108 174.1 105.5C174 104.4 173.2 103.4 171.7 102.4C167.7 99.9 162.9 98.7 158.3 97.6C155.4 96.9 152.4 96.2 149.6 95.1C145.1 93.4 138.8 90.5 135.8 84.9C132.8 79.3 134.3 72.4 140.2 64.7C141.8 62.7 143.2 60.7 144.6 58.8C140 56.8 135.7 54.8 131.6 52.7C110.9 42.3 98.8002 32.8 95.4002 24.3C94.1002 20.9 94.2002 17.7 95.7002 14.7C97.0002 12.2 98.7002 9.9 100.6 8L101 7.6C101 7.6 100.7 8.4 100.7 8.8C100.6 9.2 100.5 9.8 100.5 9.8C99.0002 11.4 97.9002 13.3 96.9002 15.3C95.5002 17.9 95.5002 20.8 96.7002 23.9C101.8 36.9 129.3 50.7 145.4 57.7C159.3 37.6 161.2 23.6 151.5 12.5C146.5 7 135 1.3 122.5 1.3C120.9 1.3 119.4 1.4 117.8 1.6C113.9 2.1 108.8 3.1 104 6.8L103.7 7.1L103.8 6.7C103.9 6.3 103.9 5.9 103.8 5.5V5.4L103.9 5.3C108.8 1.7 113.9 0.8 117.7 0.3C119.2 0.1 120.7 0 122.3 0C134 0 146.4 4.8 152.4 11.7C162.5 23.3 160.7 37.7 146.6 58.3C155.5 62.2 162 64.5 162.1 64.6C162.4 64.7 162.6 65.1 162.5 65.4C162.4 65.7 162.2 65.8 161.9 65.8C161.8 65.8 161.7 65.8 161.7 65.8C161.6 65.8 154.9 63.3 145.9 59.4C144.5 61.4 143 63.5 141.4 65.6C135.8 72.9 134.3 79.2 137.1 84.4C139.9 89.6 145.9 92.3 150.2 94C152.9 95 155.9 95.8 158.7 96.4C163.4 97.5 168.3 98.7 172.5 101.4C174.4 102.6 175.5 104 175.5 105.5C175.7 108.9 171.6 111.1 169.4 112.3C163.4 115.5 155.9 116 150.1 116C147.6 116 145.2 115.9 142.9 115.8H142.3C136.4 115.6 130.5 114.8 124.8 114C118.8 113.2 112.6 112.3 106.5 112.2C101.4 112.1 96.1002 112 90.7002 112C88.7002 112 86.8002 112 84.9002 112.1C70.6002 112.4 51.9002 113.3 34.2002 117.9C22.0002 121.1 20.9002 123.5 21.0002 124.4C21.4002 128 38.6002 131.6 57.9002 132.2C67.1002 132.5 79.0002 132.5 91.6002 132.5C114.2 132.5 137.6 132.6 151 134.1C151.2 134.1 151.3 134.2 151.4 134.3C151.5 134.4 151.6 134.6 151.5 134.8C151.4 135.1 151.1 135.4 150.8 135.4Z" fill="white"/>
<path d="M13.1 171.8C13.9 171.8 14.6 171.6 15.1 171.3C15.6 171 16.1 170.5 16.4 169.9C16.7 169.3 17 168.6 17.2 167.8C17.4 167 17.4 166 17.4 165C17.4 164.1 17.4 163.3 17.3 162.5C17.2 161.7 17.1 161 16.8 160.4C16.6 159.8 16.2 159.3 15.7 158.9C15.2 158.5 14.5 158.3 13.7 158.3C13.1 158.3 12.5 158.4 12.1 158.6C11.7 158.8 11.4 159.1 11.1 159.5C10.9 159.9 10.7 160.3 10.6 160.7C10.5 161.2 10.5 161.7 10.5 162.2V169.1C10.5 170 10.7 170.7 11.2 171.1C11.7 171.6 12.3 171.8 13.1 171.8ZM24 161.2C24.3 161.8 24.5 162.5 24.6 163.2C24.7 163.9 24.8 164.7 24.8 165.4C24.8 166.1 24.7 166.9 24.5 167.6C24.3 168.3 24.1 169 23.7 169.6C23.3 170.3 22.9 170.9 22.3 171.4C21.7 171.9 21 172.3 20.3 172.6C19.6 172.9 18.8 173.2 18 173.3C17.2 173.5 16.5 173.5 15.8 173.5C15.5 173.5 15.1 173.5 14.7 173.5C14.3 173.5 13.9 173.5 13.5 173.4C13.1 173.3 12.6 173.3 12.2 173.2C11.8 173.1 11.3 172.9 10.9 172.7C10.8 172.6 10.7 172.6 10.7 172.7L10.6 172.8V181.5C10.6 182.2 10.7 182.7 11 183.1C11.3 183.5 11.6 183.8 12 184.1C12.4 184.3 12.7 184.5 13.1 184.6C13.5 184.7 13.7 184.8 13.9 184.8C14 184.8 14.1 184.9 14.2 184.9C14.3 184.9 14.3 185 14.3 185.1C14.3 185.2 14.3 185.2 14.2 185.3C14.1 185.4 14 185.4 13.9 185.4H0.4C0.3 185.4 0.2 185.4 0.1 185.3C0 185.3 0 185.2 0 185.1C0 185 0 185 0.1 184.9C0.2 184.8 0.3 184.8 0.4 184.8C0.6 184.8 0.8 184.7 1.2 184.6C1.6 184.5 1.9 184.3 2.3 184.1C2.7 183.9 3 183.5 3.3 183.1C3.6 182.7 3.7 182.2 3.7 181.5V161C3.7 160.4 3.6 159.8 3.3 159.4C3 159 2.7 158.7 2.3 158.4C1.9 158.2 1.6 158 1.2 157.9C0.8 157.8 0.6 157.7 0.4 157.7C0.3 157.7 0.2 157.6 0.1 157.6C0 157.5 0 157.5 0 157.4C0 157.3 0 157.3 0.1 157.2C0.2 157.1 0.3 157.1 0.4 157.1H10.6H14.1C14.9 157.1 15.7 157.1 16.5 157.1C17.3 157.1 18 157.2 18.8 157.3C19.5 157.4 20.2 157.7 20.9 158C21.6 158.3 22.3 158.8 22.9 159.4C23.1 159.6 23.4 159.9 23.6 160.2C23.7 160.5 23.9 160.8 24 161.2Z" fill="white"/>
<path d="M51.5004 173.9C51.5004 175.8 51.3004 177.5 51.0004 179C50.7004 180.5 50.1004 181.8 49.2004 182.8C48.4004 183.8 47.3004 184.6 45.9004 185.2C44.5004 185.7 42.9004 186 40.9004 186C39.0004 186 37.3004 185.8 36.0004 185.4C34.6004 185 33.5004 184.4 32.6004 183.5C31.7004 182.6 31.1004 181.6 30.7004 180.2C30.3004 178.9 30.1004 177.3 30.1004 175.5V161C30.1004 160.4 30.0004 159.8 29.7004 159.4C29.4004 159 29.1004 158.7 28.7004 158.4C28.3004 158.2 28.0004 158 27.6004 157.9C27.2004 157.8 27.0004 157.7 26.8004 157.7C26.7004 157.7 26.6004 157.6 26.5004 157.6C26.4004 157.5 26.4004 157.4 26.4004 157.4C26.4004 157.3 26.4004 157.3 26.5004 157.2C26.6004 157.1 26.7004 157.1 26.8004 157.1H40.2004C40.3004 157.1 40.4004 157.1 40.5004 157.2C40.6004 157.3 40.6004 157.3 40.6004 157.4C40.6004 157.5 40.6004 157.6 40.5004 157.6C40.4004 157.7 40.3004 157.7 40.2004 157.7C40.0004 157.7 39.8004 157.8 39.4004 157.9C39.0004 158 38.7004 158.2 38.3004 158.4C37.9004 158.6 37.6004 159 37.3004 159.4C37.0004 159.8 37.0004 160.3 37.0004 161V176.9C37.0004 179.3 37.5004 181.1 38.5004 182.4C39.5004 183.7 41.1004 184.3 43.2004 184.3C43.5004 184.3 43.8004 184.3 44.2004 184.2C44.5004 184.1 44.9004 184.1 45.2004 184C45.5004 183.9 45.9004 183.8 46.2004 183.6C46.5004 183.5 46.8004 183.3 47.0004 183.1C47.7004 182.6 48.2004 182.1 48.5004 181.4C48.9004 180.7 49.1004 180 49.3004 179.2C49.5004 178.4 49.6004 177.6 49.6004 176.8C49.6004 176 49.6004 175.2 49.6004 174.5V161C49.6004 160.4 49.5004 159.8 49.2004 159.4C48.9004 159 48.6004 158.7 48.2004 158.4C47.8004 158.2 47.5004 158 47.1004 157.9C46.7004 157.8 46.5004 157.7 46.3004 157.7C46.2004 157.7 46.1004 157.6 46.0004 157.6C45.9004 157.5 45.9004 157.4 45.9004 157.4C45.9004 157.3 45.9004 157.3 46.0004 157.2C46.1004 157.1 46.2004 157.1 46.3004 157.1H54.5004C54.6004 157.1 54.7004 157.1 54.8004 157.2C54.9004 157.3 54.9004 157.3 54.9004 157.4C54.9004 157.5 54.9004 157.6 54.8004 157.6C54.7004 157.7 54.6004 157.7 54.5004 157.7C54.3004 157.7 54.1004 157.8 53.7004 157.9C53.3004 158 53.0004 158.2 52.6004 158.4C52.2004 158.6 51.9004 159 51.6004 159.4C51.3004 159.8 51.2004 160.3 51.2004 161V173.9H51.5004Z" fill="white"/>
<path d="M85.7 157.2C85.8 157.3 85.8 157.3 85.8 157.4C85.8 157.5 85.8 157.6 85.7 157.6C85.6 157.7 85.5 157.7 85.4 157.7C85.2 157.7 85 157.8 84.6 157.9C84.2 158 83.9 158.2 83.5 158.4C83.1 158.6 82.8 159 82.5 159.4C82.2 159.8 82.1 160.3 82.1 161V185.2C82.1 185.4 82 185.6 81.9 185.6C81.7 185.7 81.6 185.6 81.4 185.4C81.4 185.4 81.2 185.1 80.8 184.7C80.4 184.3 79.9 183.7 79.3 182.9C78.7 182.2 78 181.3 77.2 180.4C76.4 179.4 75.5 178.4 74.6 177.4C73.7 176.3 72.8 175.2 71.8 174.1C70.8 173 69.9 171.9 69 170.8C68.1 169.7 67.3 168.7 66.5 167.8C65.7 166.8 65 166 64.4 165.3C63.8 164.6 63.3 164 63 163.6C62.6 163.2 62.5 163 62.4 163C62.3 162.9 62.2 162.9 62.2 162.9C62.1 162.9 62.1 163 62.1 163.1V181.6C62.1 182.3 62.2 182.8 62.5 183.2C62.8 183.6 63.1 183.9 63.5 184.2C63.9 184.4 64.2 184.6 64.6 184.7C65 184.8 65.2 184.9 65.4 184.9C65.5 184.9 65.6 185 65.7 185C65.8 185.1 65.8 185.1 65.8 185.2C65.8 185.3 65.8 185.3 65.7 185.4C65.6 185.5 65.5 185.5 65.4 185.5H57.4C57.3 185.5 57.2 185.5 57.1 185.4C57 185.3 57 185.3 57 185.2C57 185.1 57 185 57.1 185C57.2 184.9 57.3 184.9 57.4 184.9C57.6 184.9 57.8 184.8 58.2 184.7C58.6 184.6 58.9 184.4 59.3 184.2C59.7 184 60 183.6 60.3 183.2C60.6 182.8 60.7 182.3 60.7 181.6V161C60.7 160.4 60.6 159.8 60.3 159.4C60 159 59.7 158.7 59.3 158.4C58.9 158.2 58.6 158 58.2 157.9C57.8 157.8 57.6 157.7 57.4 157.7C57.3 157.7 57.2 157.6 57.1 157.6C57 157.5 57 157.4 57 157.4C57 157.3 57 157.3 57.1 157.2C57.2 157.1 57.3 157.1 57.4 157.1H65.7C66.1 157.1 66.5 157.2 66.7 157.5C67 157.8 67.4 158.3 67.9 158.9C68.4 159.5 69 160.2 69.7 161.1C70.4 161.9 71.1 162.8 71.9 163.7C72.7 164.6 73.5 165.6 74.2 166.5C75 167.4 75.7 168.3 76.4 169.2C77.1 170.1 77.8 170.8 78.3 171.5C78.9 172.2 79.3 172.7 79.7 173.1C80 173.5 80.2 173.7 80.3 173.7C80.4 173.8 80.5 173.9 80.6 173.8C80.7 173.8 80.7 173.7 80.7 173.5V161C80.7 160.4 80.6 159.8 80.3 159.4C80 159 79.7 158.7 79.3 158.4C78.9 158.2 78.6 158 78.2 157.9C77.8 157.8 77.6 157.7 77.4 157.7C77.3 157.7 77.2 157.6 77.1 157.6C77 157.5 77 157.4 77 157.4C77 157.3 77 157.3 77.1 157.2C77.2 157.1 77.3 157.1 77.4 157.1H85.4C85.5 157.1 85.6 157.1 85.7 157.2Z" fill="white"/>
<path d="M113.7 157.5V163.3C113.7 163.5 113.6 163.6 113.4 163.7C113.2 163.7 113.1 163.6 113 163.4C112.9 163.3 112.8 163.1 112.7 162.8C112.6 162.5 112.4 162.2 112.1 161.8C111.8 161.4 111.5 161 111.2 160.6C110.8 160.2 110.4 159.8 109.9 159.5C109.4 159.2 108.9 158.9 108.3 158.7C107.7 158.5 107 158.4 106.3 158.4C106 158.4 105.7 158.5 105.4 158.6C105.2 158.7 105 158.8 104.9 159C104.8 159.2 104.7 159.4 104.6 159.6C104.5 159.8 104.5 160.1 104.5 160.3V181.6C104.5 182.3 104.6 182.8 104.9 183.2C105.2 183.6 105.5 183.9 105.9 184.2C106.3 184.4 106.6 184.6 107 184.7C107.4 184.8 107.6 184.9 107.8 184.9C107.9 184.9 108 185 108.1 185C108.2 185.1 108.2 185.1 108.2 185.2C108.2 185.3 108.2 185.3 108.1 185.4C108 185.5 107.9 185.5 107.8 185.5H94.3004C94.2004 185.5 94.1004 185.5 94.0004 185.4C93.9004 185.3 93.9004 185.3 93.9004 185.2C93.9004 185.1 93.9004 185 94.0004 185C94.1004 184.9 94.2004 184.9 94.3004 184.9C94.5004 184.9 94.7004 184.8 95.1004 184.7C95.5004 184.6 95.8004 184.4 96.2004 184.2C96.6004 184 96.9004 183.6 97.2004 183.2C97.5004 182.8 97.6004 182.3 97.6004 181.6V180.5V178.3V175.3C97.6004 174.2 97.6004 173 97.6004 171.8C97.6004 170.6 97.6004 169.5 97.6004 168.3V165V162.5V161.1C97.6004 160.8 97.6004 160.4 97.6004 160.1C97.6004 159.8 97.5004 159.5 97.4004 159.2C97.3004 158.9 97.1004 158.7 96.9004 158.5C96.7004 158.3 96.3004 158.2 95.9004 158.2C95.1004 158.2 94.5004 158.3 93.8004 158.5C93.2004 158.7 92.6004 159 92.2004 159.3C91.7004 159.6 91.3004 160 90.9004 160.4C90.5004 160.8 90.2004 161.2 90.0004 161.6C89.7004 162 89.5004 162.3 89.4004 162.6C89.3004 162.9 89.2004 163.1 89.1004 163.2C89.0004 163.4 88.9004 163.5 88.7004 163.5C88.5004 163.5 88.4004 163.4 88.4004 163.1V157.3C88.4004 157 88.5004 156.9 88.8004 156.9H113.3C113.6 157.1 113.7 157.2 113.7 157.5Z" fill="white"/>
<path d="M120.3 173.2C120.2 173.4 120.3 173.5 120.5 173.5H128.5C128.7 173.5 128.7 173.4 128.7 173.2C128.7 173.2 128.6 173 128.5 172.6C128.4 172.2 128.2 171.8 128 171.2C127.8 170.6 127.6 170 127.4 169.2C127.2 168.5 126.9 167.7 126.7 167C126.4 166.3 126.2 165.5 126 164.8C125.8 164.1 125.5 163.4 125.4 162.9C125.2 162.3 125.1 161.9 124.9 161.5C124.8 161.2 124.7 161 124.7 161C124.7 160.9 124.6 160.9 124.5 160.9C124.4 160.9 124.3 161 124.3 161C124.3 161 124.2 161.3 124 161.8C123.8 162.3 123.6 162.9 123.4 163.6C123.2 164.3 122.9 165.2 122.6 166.1C122.3 167 122 167.9 121.7 168.8C121.4 169.7 121.1 170.5 120.9 171.3C120.7 172.1 120.5 172.7 120.3 173.2ZM142.2 184.7C142.3 184.7 142.4 184.8 142.4 184.8C142.4 184.9 142.5 184.9 142.4 185C142.4 185.1 142.3 185.2 142.3 185.2C142.2 185.3 142.1 185.3 142 185.3H128.8C128.7 185.3 128.6 185.3 128.6 185.2C128.5 185.1 128.5 185.1 128.5 185C128.5 184.9 128.5 184.8 128.5 184.8C128.5 184.7 128.6 184.7 128.8 184.6C128.9 184.6 129.2 184.5 129.5 184.4C129.9 184.3 130.2 184.1 130.5 183.8C130.8 183.5 131.1 183.2 131.3 182.8C131.5 182.4 131.5 181.8 131.2 181.1C131.1 180.9 131 180.6 130.9 180.3C130.8 179.9 130.7 179.5 130.5 179.1C130.4 178.7 130.2 178.2 130 177.7C129.8 177.2 129.7 176.8 129.6 176.4C129.5 176 129.4 175.7 129.3 175.4C129.2 175.1 129.1 175 129.1 174.9C129.1 174.8 129 174.7 128.9 174.7H119.9C119.8 174.7 119.7 174.8 119.6 174.9C119.5 175.1 119.5 175.3 119.3 175.7C119.2 176.1 119 176.5 118.9 177C118.7 177.5 118.6 178 118.4 178.5C118.2 179 118.1 179.5 117.9 180C117.8 180.5 117.6 180.9 117.5 181.2C117.4 181.5 117.3 181.8 117.3 181.9C117.2 182.4 117.2 182.8 117.4 183.2C117.6 183.5 117.8 183.8 118.1 184C118.4 184.2 118.7 184.3 119 184.4C119.3 184.5 119.6 184.6 119.8 184.6C119.9 184.6 120 184.7 120.1 184.8C120.1 184.9 120.2 185 120.1 185C120.1 185.1 120 185.1 120 185.2C119.9 185.3 119.8 185.3 119.7 185.3H111.9C111.8 185.3 111.7 185.3 111.6 185.2C111.5 185.1 111.5 185.1 111.5 185C111.5 184.9 111.5 184.9 111.6 184.8C111.6 184.7 111.7 184.7 111.8 184.6C112.2 184.5 112.5 184.4 112.9 184.2C113.3 184.1 113.6 183.9 113.9 183.7C114.2 183.5 114.5 183.2 114.7 182.9C114.9 182.6 115.2 182.2 115.3 181.8C115.4 181.6 115.6 181.1 115.8 180.3C116.1 179.5 116.4 178.5 116.8 177.4C117.2 176.2 117.7 175 118.1 173.6C118.6 172.2 119.1 170.8 119.6 169.4C120.1 168 120.6 166.6 121.1 165.2C121.6 163.8 122 162.6 122.4 161.6C122.8 160.5 123.1 159.7 123.3 159C123.5 158.3 123.7 158 123.7 158C123.8 157.8 123.8 157.7 123.9 157.6C124 157.5 124.1 157.5 124.3 157.4C124.6 157.3 125 157.3 125.4 157.2C125.8 157.1 126.2 157 126.6 156.9C127 156.8 127.5 156.7 127.9 156.5C128.3 156.4 128.7 156.2 129.1 156.1C129.3 156 129.5 156 129.6 156C129.7 156.1 129.8 156.2 129.9 156.3C129.9 156.3 130 156.7 130.2 157.3C130.4 158 130.7 158.8 131.1 159.9C131.5 161 131.9 162.2 132.3 163.5C132.7 164.9 133.2 166.3 133.7 167.7C134.2 169.1 134.7 170.6 135.1 172C135.6 173.4 136 174.7 136.4 175.9C136.8 177.1 137.1 178.1 137.4 179C137.7 179.9 137.9 180.4 138 180.8C138.2 181.4 138.5 181.9 138.7 182.4C139 182.8 139.3 183.2 139.6 183.5C139.9 183.8 140.3 184.1 140.7 184.2C141.4 184.5 141.8 184.6 142.2 184.7Z" fill="white"/>
<path d="M166.2 157.5V163.3C166.2 163.5 166.1 163.6 165.9 163.7C165.7 163.7 165.6 163.6 165.5 163.4C165.4 163.3 165.3 163.1 165.2 162.8C165.1 162.5 164.9 162.2 164.6 161.8C164.3 161.4 164 161 163.7 160.6C163.3 160.2 162.9 159.8 162.4 159.5C161.9 159.2 161.4 158.9 160.8 158.7C160.2 158.5 159.5 158.4 158.8 158.4C158.5 158.4 158.2 158.5 157.9 158.6C157.7 158.7 157.5 158.8 157.4 159C157.3 159.2 157.2 159.4 157.1 159.6C157 159.8 157 160.1 157 160.3V181.6C157 182.3 157.1 182.8 157.4 183.2C157.7 183.6 158 183.9 158.4 184.2C158.8 184.4 159.1 184.6 159.5 184.7C159.9 184.8 160.1 184.9 160.3 184.9C160.4 184.9 160.5 185 160.6 185C160.7 185.1 160.7 185.1 160.7 185.2C160.7 185.3 160.7 185.3 160.6 185.4C160.5 185.5 160.4 185.5 160.3 185.5H146.9C146.8 185.5 146.7 185.5 146.6 185.4C146.5 185.3 146.5 185.3 146.5 185.2C146.5 185.1 146.5 185 146.6 185C146.7 184.9 146.8 184.9 146.9 184.9C147.1 184.9 147.3 184.8 147.7 184.7C148.1 184.6 148.4 184.4 148.8 184.2C149.2 184 149.5 183.6 149.8 183.2C150.1 182.8 150.2 182.3 150.2 181.6V180.5V178.3V175.3C150.2 174.2 150.2 173 150.2 171.8C150.2 170.6 150.2 169.5 150.2 168.3V165V162.5V161.1C150.2 160.8 150.2 160.4 150.2 160.1C150.2 159.8 150.1 159.5 150 159.2C149.9 158.9 149.7 158.7 149.5 158.5C149.3 158.3 148.9 158.2 148.5 158.2C147.7 158.2 147.1 158.3 146.4 158.5C145.8 158.7 145.2 159 144.8 159.3C144.3 159.6 143.9 160 143.5 160.4C143.1 160.8 142.8 161.2 142.6 161.6C142.3 162 142.1 162.3 142 162.6C141.9 162.9 141.8 163.1 141.7 163.2C141.6 163.4 141.5 163.5 141.3 163.5C141.1 163.5 141 163.4 141 163.1V157.3C141 157 141.1 156.9 141.4 156.9H165.9C166 157.1 166.2 157.2 166.2 157.5Z" fill="white"/>
<path d="M172.8 173.2C172.7 173.4 172.8 173.5 173 173.5H181C181.2 173.5 181.2 173.4 181.2 173.2C181.2 173.2 181.1 173 181 172.6C180.9 172.2 180.7 171.8 180.5 171.2C180.3 170.6 180.1 170 179.9 169.2C179.7 168.5 179.4 167.7 179.2 167C178.9 166.3 178.7 165.5 178.5 164.8C178.3 164.1 178 163.4 177.9 162.9C177.7 162.3 177.6 161.9 177.4 161.5C177.3 161.2 177.2 161 177.2 161C177.2 160.9 177.1 160.9 177 160.9C176.9 160.9 176.8 161 176.8 161C176.8 161 176.7 161.3 176.5 161.8C176.3 162.3 176.2 162.9 175.9 163.6C175.7 164.3 175.4 165.2 175.1 166.1C174.8 167 174.5 167.9 174.2 168.8C173.9 169.7 173.6 170.5 173.4 171.3C173.1 172.1 172.9 172.7 172.8 173.2ZM194.7 184.7C194.8 184.7 194.9 184.8 194.9 184.8C194.9 184.9 195 184.9 194.9 185C194.9 185.1 194.8 185.2 194.8 185.2C194.7 185.3 194.6 185.3 194.5 185.3H181.3C181.2 185.3 181.1 185.3 181.1 185.2C181 185.1 181 185.1 181 185C181 184.9 181 184.8 181 184.8C181 184.7 181.1 184.7 181.3 184.6C181.4 184.6 181.7 184.5 182 184.4C182.4 184.3 182.7 184.1 183 183.8C183.3 183.5 183.6 183.2 183.8 182.8C184 182.4 184 181.8 183.7 181.1C183.6 180.9 183.5 180.6 183.4 180.3C183.3 179.9 183.2 179.5 183 179.1C182.9 178.7 182.7 178.2 182.5 177.7C182.3 177.2 182.2 176.8 182.1 176.4C182 176 181.9 175.7 181.8 175.4C181.7 175.1 181.6 175 181.6 174.9C181.6 174.8 181.5 174.7 181.4 174.7H172.4C172.3 174.7 172.2 174.8 172.1 174.9C172 175.1 172 175.3 171.8 175.7C171.7 176.1 171.5 176.5 171.4 177C171.2 177.5 171.1 178 170.9 178.5C170.7 179 170.6 179.5 170.4 180C170.3 180.5 170.1 180.9 170 181.2C169.9 181.5 169.8 181.8 169.8 181.9C169.7 182.4 169.7 182.8 169.9 183.2C170.1 183.5 170.3 183.8 170.6 184C170.9 184.2 171.2 184.3 171.5 184.4C171.8 184.5 172.1 184.6 172.3 184.6C172.4 184.6 172.5 184.7 172.6 184.8C172.6 184.9 172.7 185 172.6 185C172.6 185.1 172.5 185.1 172.5 185.2C172.4 185.3 172.3 185.3 172.2 185.3H164.4C164.3 185.3 164.2 185.3 164.1 185.2C164 185.1 164 185.1 164 185C164 184.9 164 184.9 164.1 184.8C164.1 184.7 164.2 184.7 164.3 184.6C164.7 184.5 165 184.4 165.4 184.2C165.8 184.1 166.1 183.9 166.4 183.7C166.7 183.5 167 183.2 167.2 182.9C167.4 182.6 167.7 182.2 167.8 181.8C167.9 181.6 168.1 181.1 168.3 180.3C168.6 179.5 168.9 178.5 169.3 177.4C169.7 176.2 170.2 175 170.6 173.6C171.1 172.2 171.6 170.8 172.1 169.4C172.6 168 173.1 166.6 173.6 165.2C174.1 163.8 174.5 162.6 174.9 161.6C175.3 160.5 175.6 159.7 175.8 159C176 158.3 176.2 158 176.2 158C176.3 157.8 176.3 157.7 176.4 157.6C176.5 157.5 176.6 157.5 176.8 157.4C177.1 157.3 177.5 157.3 177.9 157.2C178.3 157.1 178.7 157 179.1 156.9C179.5 156.8 180 156.7 180.4 156.5C180.8 156.4 181.2 156.2 181.6 156.1C181.8 156 182 156 182.1 156C182.2 156.1 182.3 156.2 182.4 156.3C182.4 156.3 182.5 156.7 182.7 157.3C182.9 158 183.2 158.8 183.6 159.9C184 161 184.4 162.2 184.8 163.5C185.2 164.9 185.7 166.3 186.2 167.7C186.7 169.1 187.2 170.6 187.6 172C188.1 173.4 188.5 174.7 188.9 175.9C189.3 177.1 189.6 178.1 189.9 179C190.2 179.9 190.4 180.4 190.5 180.8C190.7 181.4 191 181.9 191.2 182.4C191.5 182.8 191.8 183.2 192.1 183.5C192.4 183.8 192.8 184.1 193.2 184.2C193.9 184.5 194.3 184.6 194.7 184.7Z" fill="white"/>
</svg>
